%FSLAX35Y35*%
%MOIN*%
%TF.FileFunction,Legend,Bot*%
%ADD10C,0.00591*%
%ADD11C,0.00214*%
%ADD12C,0.00384*%
%ADD13C,0.00409*%
%ADD14C,0.00512*%
%ADD15C,0.00650*%
%ADD16C,0.00768*%
%ADD17C,0.01181*%
%ADD18C,0.01575*%
%ADD19C,0.01969*%
%ADD20C,0.02362*%
%ADD21C,0.03150*%
%ADD22C,0.03937*%
%AMR_23*21,1,0.03200,0.03800,0,0,90.000*%
%ADD23R_23*%
%AMR_24*21,1,0.03200,0.03800,0,0,180.000*%
%ADD24R_24*%
%AMR_25*21,1,0.04409,0.06299,0,0,90.000*%
%ADD25R_25*%
%AMR_26*21,1,0.05000,0.05000,0,0,180.000*%
%ADD26R_26*%
%AMR_27*21,1,0.07874,0.09449,0,0,90.000*%
%ADD27R_27*%
%AMR_28*21,1,0.19685,0.19685,0,0,0.000*%
%ADD28R_28*%
%AMOCT_29*4,1,8,0.031496,0.023622,0.015748,0.039370,-0.015748,0.039370,-0.031496,0.023622,-0.031496,-0.023622,-0.015748,-0.039370,0.015748,-0.039370,0.031496,-0.023622,0.031496,0.023622,270.000*%
%ADD29OCT_29*%
%AMOCT_30*4,1,8,0.039370,0.009843,0.029528,0.019685,-0.029528,0.019685,-0.039370,0.009843,-0.039370,-0.009843,-0.029528,-0.019685,0.029528,-0.019685,0.039370,-0.009843,0.039370,0.009843,0.000*%
%ADD30OCT_30*%
%AMOCT_31*4,1,8,0.039370,0.009843,0.029528,0.019685,-0.029528,0.019685,-0.039370,0.009843,-0.039370,-0.009843,-0.029528,-0.019685,0.029528,-0.019685,0.039370,-0.009843,0.039370,0.009843,90.000*%
%ADD31OCT_31*%
%ADD32O,0.02559X0.04173*%
%AMRR_33*21,1,0.02559,0.03661,0,0,180.000*21,1,0.02047,0.04173,0,0,180.000*1,1,0.00512,-0.01024,-0.01831*1,1,0.00512,0.01024,0.01831*1,1,0.00512,-0.01024,0.01831*1,1,0.00512,0.01024,-0.01831*%
%ADD33RR_33*%
%AMRR_34*21,1,0.06299,0.06929,0,0,180.000*21,1,0.05354,0.07874,0,0,180.000*1,1,0.00945,-0.02677,-0.03465*1,1,0.00945,0.02677,0.03465*1,1,0.00945,-0.02677,0.03465*1,1,0.00945,0.02677,-0.03465*%
%ADD34RR_34*%
%AMRR_35*21,1,0.06299,0.06614,0,0,270.000*21,1,0.05039,0.07874,0,0,270.000*1,1,0.01260,0.03307,-0.02520*1,1,0.01260,-0.03307,0.02520*1,1,0.01260,-0.03307,-0.02520*1,1,0.01260,0.03307,0.02520*%
%ADD35RR_35*%
%AMRR_36*21,1,0.23622,0.06457,0,0,90.000*21,1,0.22205,0.07874,0,0,90.000*1,1,0.01417,-0.03228,0.11102*1,1,0.01417,0.03228,-0.11102*1,1,0.01417,0.03228,0.11102*1,1,0.01417,-0.03228,-0.11102*%
%ADD36RR_36*%
G54D10*
X43336Y18966D02*
X36250Y18966D01*
X36096Y18903D01*
X36033Y18750D01*
X36096Y18596D01*
X36250Y18533D01*
X43336Y18533D01*
X43489Y18596D01*
X43553Y18750D01*
X43489Y18903D01*
X43336Y18966D01*
X43336Y20777D02*
X36250Y20777D01*
X36096Y20714D01*
X36033Y20561D01*
X36096Y20407D01*
X36250Y20344D01*
X43336Y20344D01*
X43489Y20407D01*
X43553Y20561D01*
X43489Y20714D01*
X43336Y20777D01*
X36153Y23910D02*
X43239Y20367D01*
X43405Y20355D01*
X43530Y20464D01*
X43542Y20629D01*
X43433Y20754D01*
X36346Y24298D01*
X36181Y24309D01*
X36056Y24201D01*
X36044Y24035D01*
X36153Y23910D01*
X42160Y20906D02*
X43129Y20906D01*
X41058Y21457D02*
X42026Y21457D01*
X39956Y22009D02*
X40924Y22009D01*
X38853Y22560D02*
X39822Y22560D01*
X37751Y23111D02*
X38719Y23111D01*
X36649Y23662D02*
X37617Y23662D01*
X36070Y24213D02*
X36515Y24213D01*
X43336Y24320D02*
X36250Y24320D01*
X36096Y24257D01*
X36033Y24104D01*
X36096Y23951D01*
X36250Y23887D01*
X43336Y23887D01*
X43489Y23951D01*
X43553Y24104D01*
X43489Y24257D01*
X43336Y24320D01*
X37413Y76933D02*
X38019Y77040D01*
X38159Y77129D01*
X38195Y77291D01*
X38106Y77431D01*
X37944Y77467D01*
X37338Y77360D01*
X37198Y77271D01*
X37163Y77109D01*
X37252Y76969D01*
X37413Y76933D01*
X36951Y76651D02*
X37484Y76959D01*
X37585Y77091D01*
X37563Y77255D01*
X37432Y77356D01*
X37268Y77334D01*
X36735Y77026D01*
X36634Y76895D01*
X36655Y76731D01*
X36787Y76630D01*
X36951Y76651D01*
X37002Y77181D02*
X37573Y77181D01*
X36613Y76228D02*
X37009Y76700D01*
X37059Y76858D01*
X36982Y77005D01*
X36824Y77055D01*
X36677Y76978D01*
X36282Y76507D01*
X36232Y76349D01*
X36308Y76202D01*
X36466Y76152D01*
X36613Y76228D01*
X36446Y76703D02*
X37010Y76703D01*
X36441Y75715D02*
X36651Y76294D01*
X36644Y76459D01*
X36522Y76571D01*
X36356Y76564D01*
X36244Y76442D01*
X36034Y75863D01*
X36041Y75698D01*
X36163Y75586D01*
X36329Y75593D01*
X36441Y75715D01*
X36133Y76137D02*
X36594Y76137D01*
X36454Y75174D02*
X36454Y75789D01*
X36390Y75943D01*
X36237Y76006D01*
X36084Y75943D01*
X36021Y75789D01*
X36021Y75174D01*
X36084Y75021D01*
X36237Y74958D01*
X36390Y75021D01*
X36454Y75174D01*
X36021Y75509D02*
X36454Y75509D01*
X36651Y74670D02*
X36441Y75248D01*
X36329Y75370D01*
X36163Y75378D01*
X36041Y75266D01*
X36034Y75100D01*
X36244Y74522D01*
X36356Y74400D01*
X36522Y74392D01*
X36644Y74504D01*
X36651Y74670D01*
X36091Y74944D02*
X36551Y74944D01*
X37009Y74264D02*
X36613Y74735D01*
X36466Y74812D01*
X36308Y74762D01*
X36232Y74615D01*
X36282Y74457D01*
X36677Y73985D01*
X36824Y73909D01*
X36982Y73959D01*
X37059Y74106D01*
X37009Y74264D01*
X36281Y74460D02*
X36844Y74460D01*
X37484Y74004D02*
X36951Y74312D01*
X36787Y74334D01*
X36655Y74233D01*
X36634Y74069D01*
X36735Y73937D01*
X37268Y73629D01*
X37432Y73608D01*
X37563Y73709D01*
X37585Y73873D01*
X37484Y74004D01*
X36646Y74159D02*
X37217Y74159D01*
X38019Y73923D02*
X37413Y74030D01*
X37252Y73994D01*
X37163Y73855D01*
X37198Y73693D01*
X37338Y73604D01*
X37944Y73497D01*
X38106Y73533D01*
X38195Y73673D01*
X38159Y73834D01*
X38019Y73923D01*
X41604Y77509D02*
X37982Y77509D01*
X37829Y77446D01*
X37765Y77293D01*
X37829Y77140D01*
X37982Y77076D01*
X41604Y77076D01*
X41757Y77140D01*
X41820Y77293D01*
X41757Y77446D01*
X41604Y77509D01*
X42172Y74030D02*
X41566Y73923D01*
X41426Y73834D01*
X41391Y73673D01*
X41480Y73533D01*
X41641Y73497D01*
X42247Y73604D01*
X42387Y73693D01*
X42423Y73855D01*
X42334Y73994D01*
X42172Y74030D01*
X42634Y74312D02*
X42102Y74004D01*
X42001Y73873D01*
X42022Y73709D01*
X42154Y73608D01*
X42318Y73629D01*
X42851Y73937D01*
X42952Y74069D01*
X42930Y74233D01*
X42799Y74334D01*
X42634Y74312D01*
X42369Y74159D02*
X42940Y74159D01*
X42972Y74735D02*
X42577Y74264D01*
X42527Y74106D01*
X42603Y73959D01*
X42762Y73909D01*
X42909Y73985D01*
X43304Y74457D01*
X43354Y74615D01*
X43277Y74762D01*
X43119Y74812D01*
X42972Y74735D01*
X42741Y74460D02*
X43305Y74460D01*
X43145Y75248D02*
X42935Y74670D01*
X42942Y74504D01*
X43064Y74392D01*
X43230Y74400D01*
X43342Y74522D01*
X43552Y75100D01*
X43545Y75266D01*
X43423Y75378D01*
X43257Y75370D01*
X43145Y75248D01*
X43034Y74944D02*
X43495Y74944D01*
X43132Y75789D02*
X43132Y75174D01*
X43195Y75021D01*
X43349Y74958D01*
X43502Y75021D01*
X43565Y75174D01*
X43565Y75789D01*
X43502Y75943D01*
X43349Y76006D01*
X43195Y75943D01*
X43132Y75789D01*
X43132Y75509D02*
X43565Y75509D01*
X42935Y76294D02*
X43145Y75715D01*
X43257Y75593D01*
X43423Y75586D01*
X43545Y75698D01*
X43552Y75863D01*
X43342Y76442D01*
X43230Y76564D01*
X43064Y76571D01*
X42942Y76459D01*
X42935Y76294D01*
X42992Y76137D02*
X43452Y76137D01*
X42577Y76700D02*
X42972Y76228D01*
X43119Y76152D01*
X43277Y76202D01*
X43354Y76349D01*
X43304Y76507D01*
X42909Y76978D01*
X42762Y77055D01*
X42603Y77005D01*
X42527Y76858D01*
X42577Y76700D01*
X42576Y76703D02*
X43139Y76703D01*
X42102Y76959D02*
X42634Y76651D01*
X42799Y76630D01*
X42930Y76731D01*
X42952Y76895D01*
X42851Y77026D01*
X42318Y77334D01*
X42154Y77356D01*
X42022Y77255D01*
X42001Y77091D01*
X42102Y76959D01*
X42013Y77181D02*
X42583Y77181D01*
X41566Y77040D02*
X42172Y76933D01*
X42334Y76969D01*
X42423Y77109D01*
X42387Y77271D01*
X42247Y77360D01*
X41641Y77467D01*
X41480Y77431D01*
X41391Y77291D01*
X41426Y77129D01*
X41566Y77040D01*
X37982Y73533D02*
X41604Y73533D01*
X41757Y73596D01*
X41820Y73750D01*
X41757Y73903D01*
X41604Y73966D01*
X37982Y73966D01*
X37829Y73903D01*
X37765Y73750D01*
X37829Y73596D01*
X37982Y73533D01*
X37982Y78887D02*
X43336Y78887D01*
X43489Y78951D01*
X43553Y79104D01*
X43489Y79257D01*
X43336Y79320D01*
X37982Y79320D01*
X37829Y79257D01*
X37765Y79104D01*
X37829Y78951D01*
X37982Y78887D01*
X37413Y82288D02*
X38019Y82395D01*
X38159Y82484D01*
X38195Y82645D01*
X38106Y82785D01*
X37944Y82821D01*
X37338Y82714D01*
X37198Y82625D01*
X37163Y82463D01*
X37252Y82324D01*
X37413Y82288D01*
X36951Y82006D02*
X37484Y82313D01*
X37585Y82445D01*
X37563Y82609D01*
X37432Y82710D01*
X37268Y82688D01*
X36735Y82381D01*
X36634Y82249D01*
X36655Y82085D01*
X36787Y81984D01*
X36951Y82006D01*
X37002Y82535D02*
X37573Y82535D01*
X36613Y81583D02*
X37009Y82054D01*
X37059Y82212D01*
X36982Y82359D01*
X36824Y82409D01*
X36677Y82332D01*
X36282Y81861D01*
X36232Y81703D01*
X36308Y81556D01*
X36466Y81506D01*
X36613Y81583D01*
X36446Y82057D02*
X37010Y82057D01*
X36441Y81070D02*
X36651Y81648D01*
X36644Y81813D01*
X36522Y81925D01*
X36356Y81918D01*
X36244Y81796D01*
X36034Y81218D01*
X36041Y81052D01*
X36163Y80940D01*
X36329Y80948D01*
X36441Y81070D01*
X36133Y81491D02*
X36594Y81491D01*
X36454Y80528D02*
X36454Y81144D01*
X36390Y81297D01*
X36237Y81360D01*
X36084Y81297D01*
X36021Y81144D01*
X36021Y80528D01*
X36084Y80375D01*
X36237Y80312D01*
X36390Y80375D01*
X36454Y80528D01*
X36021Y80863D02*
X36454Y80863D01*
X36651Y80024D02*
X36441Y80603D01*
X36329Y80725D01*
X36163Y80732D01*
X36041Y80620D01*
X36034Y80454D01*
X36244Y79876D01*
X36356Y79754D01*
X36522Y79747D01*
X36644Y79859D01*
X36651Y80024D01*
X36091Y80298D02*
X36551Y80298D01*
X37009Y79618D02*
X36613Y80089D01*
X36466Y80166D01*
X36308Y80116D01*
X36232Y79969D01*
X36282Y79811D01*
X36677Y79340D01*
X36824Y79263D01*
X36982Y79313D01*
X37059Y79460D01*
X37009Y79618D01*
X36281Y79814D02*
X36844Y79814D01*
X37484Y79359D02*
X36951Y79666D01*
X36787Y79688D01*
X36655Y79587D01*
X36634Y79423D01*
X36735Y79291D01*
X37268Y78984D01*
X37432Y78962D01*
X37563Y79063D01*
X37585Y79227D01*
X37484Y79359D01*
X36646Y79513D02*
X37217Y79513D01*
X38019Y79278D02*
X37413Y79385D01*
X37252Y79349D01*
X37163Y79209D01*
X37198Y79047D01*
X37338Y78958D01*
X37944Y78851D01*
X38106Y78887D01*
X38195Y79027D01*
X38159Y79189D01*
X38019Y79278D01*
X43336Y82864D02*
X37982Y82864D01*
X37829Y82800D01*
X37765Y82647D01*
X37829Y82494D01*
X37982Y82431D01*
X43336Y82431D01*
X43489Y82494D01*
X43553Y82647D01*
X43489Y82800D01*
X43336Y82864D01*
X43120Y88001D02*
X43120Y84458D01*
X43183Y84305D01*
X43336Y84242D01*
X43489Y84305D01*
X43553Y84458D01*
X43553Y88001D01*
X43489Y88155D01*
X43336Y88218D01*
X43183Y88155D01*
X43120Y88001D01*
X43120Y84793D02*
X43553Y84793D01*
X43120Y85344D02*
X43553Y85344D01*
X43120Y85895D02*
X43553Y85895D01*
X43120Y86446D02*
X43553Y86446D01*
X43120Y86998D02*
X43553Y86998D01*
X43120Y87549D02*
X43553Y87549D01*
X43160Y88100D02*
X43512Y88100D01*
X36250Y85974D02*
X43336Y85974D01*
X43489Y86037D01*
X43553Y86190D01*
X43489Y86344D01*
X43336Y86407D01*
X36250Y86407D01*
X36096Y86344D01*
X36033Y86190D01*
X36096Y86037D01*
X36250Y85974D01*
X48326Y23149D02*
X48326Y20000D01*
X48390Y19846D01*
X48543Y19783D01*
X48696Y19846D01*
X48759Y20000D01*
X48759Y23149D01*
X48696Y23302D01*
X48543Y23366D01*
X48390Y23302D01*
X48326Y23149D01*
X48326Y20334D02*
X48759Y20334D01*
X48326Y20885D02*
X48759Y20885D01*
X48326Y21437D02*
X48759Y21437D01*
X48326Y21988D02*
X48759Y21988D01*
X48326Y22539D02*
X48759Y22539D01*
X48326Y23090D02*
X48759Y23090D01*
X48326Y79399D02*
X48326Y76250D01*
X48390Y76096D01*
X48543Y76033D01*
X48696Y76096D01*
X48759Y76250D01*
X48759Y79399D01*
X48696Y79552D01*
X48543Y79616D01*
X48390Y79552D01*
X48326Y79399D01*
X48326Y76584D02*
X48759Y76584D01*
X48326Y77135D02*
X48759Y77135D01*
X48326Y77687D02*
X48759Y77687D01*
X48326Y78238D02*
X48759Y78238D01*
X48326Y78789D02*
X48759Y78789D01*
X48326Y79340D02*
X48759Y79340D01*
X30201Y23543D02*
X30201Y20000D01*
X30265Y19846D01*
X30418Y19783D01*
X30571Y19846D01*
X30634Y20000D01*
X30634Y23543D01*
X30571Y23696D01*
X30418Y23759D01*
X30265Y23696D01*
X30201Y23543D01*
X30201Y20334D02*
X30634Y20334D01*
X30201Y20885D02*
X30634Y20885D01*
X30201Y21437D02*
X30634Y21437D01*
X30201Y21988D02*
X30634Y21988D01*
X30201Y22539D02*
X30634Y22539D01*
X30201Y23090D02*
X30634Y23090D01*
X30242Y23641D02*
X30594Y23641D01*
X28607Y21515D02*
X32229Y21515D01*
X32382Y21579D01*
X32445Y21732D01*
X32382Y21885D01*
X32229Y21948D01*
X28607Y21948D01*
X28454Y21885D01*
X28390Y21732D01*
X28454Y21579D01*
X28607Y21515D01*
X30201Y79793D02*
X30201Y76250D01*
X30265Y76096D01*
X30418Y76033D01*
X30571Y76096D01*
X30634Y76250D01*
X30634Y79793D01*
X30571Y79946D01*
X30418Y80009D01*
X30265Y79946D01*
X30201Y79793D01*
X30201Y76584D02*
X30634Y76584D01*
X30201Y77135D02*
X30634Y77135D01*
X30201Y77687D02*
X30634Y77687D01*
X30201Y78238D02*
X30634Y78238D01*
X30201Y78789D02*
X30634Y78789D01*
X30201Y79340D02*
X30634Y79340D01*
X30242Y79891D02*
X30594Y79891D01*
X28607Y77765D02*
X32229Y77765D01*
X32382Y77829D01*
X32445Y77982D01*
X32382Y78135D01*
X32229Y78198D01*
X28607Y78198D01*
X28454Y78135D01*
X28390Y77982D01*
X28454Y77829D01*
X28607Y77765D01*
G54D11*
X56878Y132113D02*
X56488Y132503D01*
X44406Y132308D02*
X44211Y132503D01*
X49278Y124513D02*
X48888Y124903D01*
X44406Y129190D02*
X44211Y129385D01*
X56878Y113599D02*
X56683Y113794D01*
X52201Y118277D02*
X52006Y118471D01*
X39728Y130749D02*
X39533Y130944D01*
X56878Y112040D02*
X56683Y112235D01*
X44406Y124513D02*
X44211Y124708D01*
X42846Y126072D02*
X42652Y126267D01*
X36610Y132308D02*
X36415Y132503D01*
X53760Y113599D02*
X53565Y113794D01*
X53760Y112040D02*
X53565Y112235D01*
X50642Y115158D02*
X50447Y115353D01*
X49083Y116718D02*
X48888Y116912D01*
X47524Y118277D02*
X47329Y118471D01*
X45965Y119836D02*
X45770Y120031D01*
X42846Y122954D02*
X42652Y123149D01*
X36610Y129190D02*
X36415Y129385D01*
X33492Y130749D02*
X33297Y130944D01*
X39728Y122954D02*
X39533Y123149D01*
X44406Y116718D02*
X44211Y116912D01*
X41287Y119836D02*
X41093Y120031D01*
X56878Y104050D02*
X56488Y104440D01*
X28815Y132113D02*
X28425Y132503D01*
X49083Y110481D02*
X48888Y110676D01*
X36610Y121395D02*
X36415Y121590D01*
X35051Y121395D02*
X34856Y121590D01*
X33492Y122954D02*
X33297Y123149D01*
X44406Y110481D02*
X44211Y110676D01*
X42846Y110481D02*
X42652Y110676D01*
X44406Y107363D02*
X44211Y107558D01*
X35051Y116718D02*
X34856Y116912D01*
X33492Y116718D02*
X33297Y116912D01*
X31933Y118277D02*
X31738Y118471D01*
X30374Y119836D02*
X30179Y120031D01*
X35051Y113599D02*
X34856Y113794D01*
X28815Y118277D02*
X28620Y118471D01*
X49278Y96450D02*
X48888Y96840D01*
X21215Y124513D02*
X20825Y124903D01*
X36610Y108922D02*
X36415Y109117D01*
X35051Y110481D02*
X34856Y110676D01*
X33492Y112040D02*
X33297Y112235D01*
X28815Y116718D02*
X28620Y116912D01*
X27256Y118277D02*
X27061Y118471D01*
X25697Y119836D02*
X25502Y120031D01*
X41287Y102686D02*
X41093Y102881D01*
X39728Y104245D02*
X39533Y104440D01*
X38169Y105804D02*
X37974Y105999D01*
X36610Y107363D02*
X36415Y107558D01*
X35051Y108922D02*
X34856Y109117D01*
X41287Y101127D02*
X41093Y101322D01*
X27256Y115158D02*
X27061Y115353D01*
X25697Y116718D02*
X25502Y116912D01*
X24138Y118277D02*
X23943Y118471D01*
X44406Y96450D02*
X44211Y96645D01*
X42846Y98009D02*
X42652Y98204D01*
X31933Y107363D02*
X31738Y107558D01*
X30374Y108922D02*
X30179Y109117D01*
X28815Y110481D02*
X28620Y110676D01*
X33492Y102686D02*
X33297Y102881D01*
X25697Y110481D02*
X25502Y110676D01*
X21020Y113599D02*
X20825Y113794D01*
X35051Y98009D02*
X34856Y98204D01*
X22579Y110481D02*
X22384Y110676D01*
X31933Y98009D02*
X31738Y98204D01*
X30374Y99568D02*
X30179Y99763D01*
X28815Y101127D02*
X28620Y101322D01*
X27256Y102686D02*
X27061Y102881D01*
X25697Y104245D02*
X25502Y104440D01*
X24138Y105804D02*
X23943Y105999D01*
X31933Y96450D02*
X31738Y96645D01*
X28815Y98009D02*
X28620Y98204D01*
X28815Y96450D02*
X28620Y96645D01*
X24138Y101127D02*
X23943Y101322D01*
X22579Y99568D02*
X22384Y99763D01*
X44406Y120031D02*
X44211Y119836D01*
X33492Y109117D02*
X33297Y108922D01*
X25697Y101322D02*
X25502Y101127D01*
X24138Y99763D02*
X23943Y99568D01*
X39728Y113794D02*
X39533Y113599D01*
X47524Y120031D02*
X47329Y119836D01*
X45965Y116912D02*
X45770Y116718D01*
X44406Y115353D02*
X44211Y115158D01*
X38169Y109117D02*
X37974Y108922D01*
X31933Y102881D02*
X31738Y102686D01*
X28815Y99763D02*
X28620Y99568D01*
X27256Y98204D02*
X27061Y98009D01*
X25697Y96645D02*
X25502Y96450D01*
X38169Y107558D02*
X37974Y107363D01*
X31933Y101322D02*
X31738Y101127D01*
X56878Y124903D02*
X56488Y124513D01*
X30374Y98204D02*
X30179Y98009D01*
X50642Y116912D02*
X50447Y116718D01*
X49083Y115353D02*
X48888Y115158D01*
X42846Y109117D02*
X42652Y108922D01*
X30374Y96645D02*
X30179Y96450D01*
X45965Y110676D02*
X45770Y110481D01*
X44406Y109117D02*
X44211Y108922D01*
X33492Y98204D02*
X33297Y98009D01*
X41287Y104440D02*
X41093Y104245D01*
X39728Y102881D02*
X39533Y102686D01*
X56878Y118471D02*
X56683Y118277D01*
X50642Y112235D02*
X50447Y112040D01*
X39728Y101322D02*
X39533Y101127D01*
X52201Y112235D02*
X52006Y112040D01*
X50642Y110676D02*
X50447Y110481D01*
X49083Y109117D02*
X48888Y108922D01*
X55319Y113794D02*
X55124Y113599D01*
X55319Y112235D02*
X55124Y112040D01*
X42846Y99763D02*
X42652Y99568D01*
X41287Y96645D02*
X41093Y96450D01*
X49278Y104440D02*
X48888Y104050D01*
X56878Y96840D02*
X56488Y96450D01*
X42846Y120031D02*
X42652Y119836D01*
X41287Y118471D02*
X41093Y118277D01*
X35051Y112235D02*
X34856Y112040D01*
X25697Y102881D02*
X25502Y102686D01*
X44406Y123149D02*
X44211Y122954D01*
X22579Y101322D02*
X22384Y101127D01*
X21020Y99763D02*
X20825Y99568D01*
X35051Y115353D02*
X34856Y115158D01*
X27256Y107558D02*
X27061Y107363D01*
X25697Y105999D02*
X25502Y105804D01*
X42846Y124708D02*
X42652Y124513D01*
X41287Y123149D02*
X41093Y122954D01*
X39728Y121590D02*
X39533Y121395D01*
X33492Y115353D02*
X33297Y115158D01*
X49278Y132503D02*
X48888Y132113D01*
X36610Y120031D02*
X36415Y119836D01*
X35051Y118471D02*
X34856Y118277D01*
X35051Y120031D02*
X34856Y119836D01*
X33492Y118471D02*
X33297Y118277D01*
X28815Y113794D02*
X28620Y113599D01*
X27256Y112235D02*
X27061Y112040D01*
X44406Y130944D02*
X44211Y130749D01*
X30374Y116912D02*
X30179Y116718D01*
X28815Y115353D02*
X28620Y115158D01*
X24138Y110676D02*
X23943Y110481D01*
X35051Y123149D02*
X34856Y122954D01*
X30374Y118471D02*
X30179Y118277D01*
X39728Y129385D02*
X39533Y129190D01*
X38169Y127826D02*
X37974Y127631D01*
X36610Y126267D02*
X36415Y126072D01*
X31933Y121590D02*
X31738Y121395D01*
X27256Y116912D02*
X27061Y116718D01*
X21020Y110676D02*
X20825Y110481D01*
X41287Y132503D02*
X41093Y132308D01*
X28815Y120031D02*
X28620Y119836D01*
X21020Y112235D02*
X20825Y112040D01*
X39728Y132503D02*
X39533Y132308D01*
X25697Y118471D02*
X25502Y118277D01*
X36610Y130944D02*
X36415Y130749D01*
X35051Y129385D02*
X34856Y129190D01*
X33492Y127826D02*
X33297Y127631D01*
X35051Y130944D02*
X34856Y130749D01*
X22579Y118471D02*
X22384Y118277D01*
X21020Y116912D02*
X20825Y116718D01*
X28815Y124903D02*
X28425Y124513D01*
X21020Y118471D02*
X20825Y118277D01*
X21215Y132503D02*
X20825Y132113D01*
X41093Y129385D02*
X39728Y129385D01*
X45770Y132308D02*
X44406Y132308D01*
X37974Y126267D02*
X36610Y126267D01*
X44211Y126072D02*
X42846Y126072D01*
X36415Y126072D02*
X35051Y126072D01*
X42652Y126267D02*
X41287Y126267D01*
X42652Y127631D02*
X41287Y127631D01*
X45770Y127826D02*
X44406Y127826D01*
X28620Y99568D02*
X27256Y99568D01*
X25502Y96450D02*
X25502Y95086D01*
X23943Y99568D02*
X22579Y99568D01*
X25697Y98009D02*
X25697Y96645D01*
X28815Y105804D02*
X28815Y104440D01*
X28815Y121395D02*
X28815Y120031D01*
X27061Y116718D02*
X27061Y115353D01*
X25502Y99763D02*
X24138Y99763D01*
X22579Y99568D02*
X22579Y98204D01*
X22579Y102686D02*
X22579Y101322D01*
X22384Y101127D02*
X22384Y99763D01*
X36415Y133867D02*
X35051Y133867D01*
X33297Y133867D02*
X31933Y133867D01*
X22774Y99568D02*
X22774Y98204D01*
X24138Y112040D02*
X24138Y110676D01*
X24138Y105804D02*
X24138Y104440D01*
X24138Y96450D02*
X24138Y95086D01*
X34856Y99568D02*
X33492Y99568D01*
X23163Y99568D02*
X23163Y98204D01*
X23358Y99568D02*
X23358Y98204D01*
X22968Y99568D02*
X22968Y98204D01*
X23943Y99568D02*
X23943Y98204D01*
X23553Y99568D02*
X23553Y98204D01*
X23748Y99568D02*
X23748Y98204D01*
X39533Y110481D02*
X38169Y110481D01*
X23943Y110481D02*
X22579Y110481D01*
X20825Y109117D02*
X19461Y109117D01*
X30179Y105609D02*
X28815Y105609D01*
X30179Y105219D02*
X28815Y105219D01*
X30179Y105414D02*
X28815Y105414D01*
X45770Y105999D02*
X44406Y105999D01*
X30179Y105804D02*
X28815Y105804D01*
X20825Y105804D02*
X19461Y105804D01*
X23943Y105999D02*
X22579Y105999D01*
X42652Y105804D02*
X41287Y105804D01*
X42652Y104440D02*
X41287Y104440D01*
X30179Y104440D02*
X28815Y104440D01*
X30179Y104635D02*
X28815Y104635D01*
X41093Y104245D02*
X39728Y104245D01*
X30179Y105025D02*
X28815Y105025D01*
X30179Y104830D02*
X28815Y104830D01*
X58242Y107558D02*
X56878Y107558D01*
X55124Y107558D02*
X53760Y107558D01*
X45770Y107363D02*
X44406Y107363D01*
X58242Y121395D02*
X56878Y121395D01*
X48888Y121395D02*
X47524Y121395D01*
X42652Y123149D02*
X41287Y123149D01*
X39533Y123149D02*
X38169Y123149D01*
X41093Y122954D02*
X39728Y122954D01*
X48888Y120031D02*
X47524Y120031D01*
X52006Y119836D02*
X50642Y119836D01*
X47329Y119836D02*
X45965Y119836D01*
X39533Y124513D02*
X38169Y124513D01*
X45770Y124513D02*
X44406Y124513D01*
X42652Y124513D02*
X41287Y124513D01*
X44211Y124708D02*
X42846Y124708D01*
X48888Y115158D02*
X47524Y115158D01*
X22384Y113599D02*
X21020Y113599D01*
X20825Y113794D02*
X19461Y113794D01*
X20825Y102881D02*
X19461Y102881D01*
X48888Y113794D02*
X47524Y113794D01*
X56683Y118277D02*
X55319Y118277D01*
X58242Y118471D02*
X56878Y118471D01*
X45770Y116718D02*
X44406Y116718D01*
X44406Y107363D02*
X44406Y105999D01*
X44600Y107363D02*
X44600Y105999D01*
X44211Y133867D02*
X44211Y132503D01*
X44211Y126072D02*
X44211Y124708D01*
X45185Y107363D02*
X45185Y105999D01*
X45380Y107363D02*
X45380Y105999D01*
X44795Y107363D02*
X44795Y105999D01*
X44990Y107363D02*
X44990Y105999D01*
X44016Y126072D02*
X44016Y124708D01*
X43236Y126072D02*
X43236Y124708D01*
X43431Y126072D02*
X43431Y124708D01*
X43041Y126072D02*
X43041Y124708D01*
X43821Y126072D02*
X43821Y124708D01*
X43626Y126072D02*
X43626Y124708D01*
X45575Y107363D02*
X45575Y105999D01*
X48108Y121395D02*
X48108Y120031D01*
X48108Y115158D02*
X48108Y113794D01*
X47913Y115158D02*
X47913Y113794D01*
X47913Y121395D02*
X47913Y120031D01*
X48498Y115158D02*
X48498Y113794D01*
X48498Y121395D02*
X48498Y120031D01*
X48303Y115158D02*
X48303Y113794D01*
X48303Y121395D02*
X48303Y120031D01*
X45770Y107363D02*
X45770Y105999D01*
X45770Y96450D02*
X45770Y95086D01*
X45965Y112040D02*
X45965Y110676D01*
X45770Y110481D02*
X45770Y109117D01*
X47718Y115158D02*
X47718Y113794D01*
X47718Y121395D02*
X47718Y120031D01*
X47524Y115158D02*
X47524Y113794D01*
X47524Y108922D02*
X47524Y107558D01*
X47524Y121395D02*
X47524Y120031D01*
X41287Y127631D02*
X41287Y126267D01*
X41482Y105804D02*
X41482Y104440D01*
X41287Y124513D02*
X41287Y123149D01*
X41287Y105804D02*
X41287Y104440D01*
X41287Y112040D02*
X41287Y110676D01*
X41287Y108922D02*
X41287Y107558D01*
X39339Y124513D02*
X39339Y123149D01*
X39533Y113599D02*
X39533Y112235D01*
X39533Y105804D02*
X39533Y104440D01*
X39144Y124513D02*
X39144Y123149D01*
X39728Y118277D02*
X39728Y116912D01*
X39533Y129190D02*
X39533Y127826D01*
X39533Y124513D02*
X39533Y123149D01*
X39728Y115158D02*
X39728Y113794D01*
X39728Y96450D02*
X39728Y95086D01*
X42457Y105804D02*
X42457Y104440D01*
X42457Y124513D02*
X42457Y123149D01*
X42262Y105804D02*
X42262Y104440D01*
X42262Y127631D02*
X42262Y126267D01*
X42262Y124513D02*
X42262Y123149D01*
X42652Y127631D02*
X42652Y126267D01*
X42846Y130749D02*
X42846Y129385D01*
X42846Y126072D02*
X42846Y124708D01*
X42652Y124513D02*
X42652Y123149D01*
X42652Y105804D02*
X42652Y104440D01*
X42457Y127631D02*
X42457Y126267D01*
X41677Y127631D02*
X41677Y126267D01*
X41677Y124513D02*
X41677Y123149D01*
X41872Y105804D02*
X41872Y104440D01*
X36415Y98009D02*
X35051Y98009D01*
X41482Y127631D02*
X41482Y126267D01*
X41482Y124513D02*
X41482Y123149D01*
X41677Y105804D02*
X41677Y104440D01*
X42067Y127631D02*
X42067Y126267D01*
X42067Y124513D02*
X42067Y123149D01*
X42067Y105804D02*
X42067Y104440D01*
X41872Y124513D02*
X41872Y123149D01*
X41872Y127631D02*
X41872Y126267D01*
X25502Y96255D02*
X24138Y96255D01*
X25502Y95670D02*
X24138Y95670D01*
X25502Y95865D02*
X24138Y95865D01*
X33297Y95086D02*
X31933Y95086D01*
X36415Y95086D02*
X35051Y95086D01*
X20825Y95086D02*
X19461Y95086D01*
X25502Y95086D02*
X24138Y95086D01*
X30179Y95086D02*
X28815Y95086D01*
X25502Y95281D02*
X24138Y95281D01*
X25502Y95475D02*
X24138Y95475D01*
X25502Y96060D02*
X24138Y96060D01*
X48888Y121395D02*
X48888Y120031D01*
X48888Y118277D02*
X48888Y116912D01*
X48888Y115158D02*
X48888Y113794D01*
X49083Y116718D02*
X49083Y115353D01*
X48693Y121395D02*
X48693Y120031D01*
X48693Y115158D02*
X48693Y113794D01*
X25502Y96450D02*
X24138Y96450D01*
X36415Y116718D02*
X36415Y115353D01*
X23943Y98204D02*
X22579Y98204D01*
X30179Y105804D02*
X30179Y104440D01*
X34856Y98204D02*
X33492Y98204D01*
X34077Y99568D02*
X34077Y98204D01*
X33882Y99568D02*
X33882Y98204D01*
X34272Y99568D02*
X34272Y98204D01*
X33492Y99568D02*
X33492Y98204D01*
X33687Y99568D02*
X33687Y98204D01*
X34467Y99568D02*
X34467Y98204D01*
X34661Y99568D02*
X34661Y98204D01*
X34856Y99568D02*
X34856Y98204D01*
X34856Y102686D02*
X34856Y101322D01*
X38754Y124513D02*
X38754Y123149D01*
X38169Y124513D02*
X38169Y123149D01*
X38949Y124513D02*
X38949Y123149D01*
X38559Y124513D02*
X38559Y123149D01*
X38364Y124513D02*
X38364Y123149D01*
X49083Y104245D02*
X47524Y104245D01*
X58242Y132308D02*
X56683Y132308D01*
X28620Y124708D02*
X28620Y123149D01*
X28620Y133867D02*
X28620Y132308D01*
X49083Y105804D02*
X49083Y104245D01*
X21020Y124708D02*
X21020Y123149D01*
X49083Y96645D02*
X47524Y96645D01*
X49083Y96645D02*
X49083Y95086D01*
X58242Y96645D02*
X56683Y96645D01*
X56683Y124708D02*
X56683Y123149D01*
X21020Y132308D02*
X19461Y132308D01*
X30179Y132308D02*
X28620Y132308D01*
X56683Y96645D02*
X56683Y95086D01*
X49083Y132308D02*
X47524Y132308D01*
X58242Y104245D02*
X56683Y104245D01*
X21020Y133867D02*
X21020Y132308D01*
X56683Y105804D02*
X56683Y104245D01*
X49083Y133867D02*
X49083Y132308D01*
X49083Y124708D02*
X49083Y123149D01*
X49083Y124708D02*
X47524Y124708D01*
X21020Y124708D02*
X19461Y124708D01*
X56683Y133867D02*
X56683Y132308D01*
X30179Y124708D02*
X28620Y124708D01*
X58242Y124708D02*
X56683Y124708D01*
X45770Y129775D02*
X42846Y129775D01*
X39923Y122954D02*
X39923Y120031D01*
X27061Y116328D02*
X24138Y116328D01*
X48888Y117302D02*
X45965Y117302D01*
X24138Y102686D02*
X24138Y99763D01*
X48888Y117497D02*
X45965Y117497D01*
X27061Y104830D02*
X24138Y104830D01*
X35636Y98009D02*
X35636Y95086D01*
X36415Y109702D02*
X33492Y109702D01*
X36415Y116328D02*
X33492Y116328D01*
X22384Y116912D02*
X19461Y116912D01*
X45770Y109702D02*
X42846Y109702D01*
X45770Y109507D02*
X42846Y109507D01*
X35441Y98009D02*
X35441Y95086D01*
X36415Y116523D02*
X33492Y116523D01*
X27061Y116523D02*
X24138Y116523D01*
X36415Y116718D02*
X33492Y116718D01*
X27061Y116718D02*
X24138Y116718D01*
X39533Y104635D02*
X36610Y104635D01*
X36415Y98009D02*
X36415Y95086D01*
X36415Y109507D02*
X33492Y109507D01*
X47329Y119836D02*
X47329Y116912D01*
X48888Y117107D02*
X45965Y117107D01*
X47134Y119836D02*
X47134Y116912D01*
X48888Y116912D02*
X45965Y116912D01*
X32323Y98009D02*
X32323Y95086D01*
X36415Y119836D02*
X33492Y119836D01*
X44211Y119836D02*
X41287Y119836D01*
X45770Y129385D02*
X42846Y129385D01*
X39533Y104830D02*
X36610Y104830D01*
X36415Y109117D02*
X33492Y109117D01*
X40118Y122954D02*
X40118Y120031D01*
X36026Y98009D02*
X36026Y95086D01*
X31933Y98009D02*
X31933Y95086D01*
X44211Y108922D02*
X41287Y108922D01*
X29400Y98009D02*
X29400Y95086D01*
X36220Y98009D02*
X36220Y95086D01*
X50447Y108922D02*
X47524Y108922D01*
X40313Y104245D02*
X40313Y101322D01*
X48888Y117887D02*
X45965Y117887D01*
X36415Y109312D02*
X33492Y109312D01*
X32128Y98009D02*
X32128Y95086D01*
X57463Y121395D02*
X57463Y118471D01*
X40118Y104245D02*
X40118Y101322D01*
X48888Y117692D02*
X45965Y117692D01*
X45770Y109312D02*
X42846Y109312D01*
X45770Y129580D02*
X42846Y129580D01*
X48888Y118082D02*
X45965Y118082D01*
X45770Y109117D02*
X42846Y109117D01*
X53565Y118277D02*
X50642Y118277D01*
X31933Y115158D02*
X31933Y112235D01*
X36415Y118471D02*
X33492Y118471D01*
X57268Y121395D02*
X57268Y118471D01*
X39533Y100542D02*
X36610Y100542D01*
X35831Y98009D02*
X35831Y95086D01*
X22384Y118277D02*
X19461Y118277D01*
X48888Y118277D02*
X45965Y118277D01*
X38559Y110481D02*
X38559Y107558D01*
X39923Y104245D02*
X39923Y101322D01*
X32907Y98009D02*
X32907Y95086D01*
X25307Y102686D02*
X25307Y99763D01*
X45770Y130359D02*
X42846Y130359D01*
X45770Y110286D02*
X42846Y110286D01*
X39533Y102686D02*
X39533Y99763D01*
X58047Y121395D02*
X58047Y118471D01*
X36415Y110481D02*
X33492Y110481D01*
X38949Y110481D02*
X38949Y107558D01*
X45770Y130554D02*
X42846Y130554D01*
X25502Y102686D02*
X25502Y99763D01*
X34856Y113989D02*
X31933Y113989D01*
X34856Y113794D02*
X31933Y113794D01*
X36415Y110286D02*
X33492Y110286D01*
X39533Y110481D02*
X39533Y107558D01*
X30179Y113794D02*
X27256Y113794D01*
X27061Y104440D02*
X24138Y104440D01*
X25112Y102686D02*
X25112Y99763D01*
X44211Y111261D02*
X41287Y111261D01*
X33102Y98009D02*
X33102Y95086D01*
X44211Y111456D02*
X41287Y111456D01*
X44211Y110871D02*
X41287Y110871D01*
X39144Y110481D02*
X39144Y107558D01*
X44211Y111066D02*
X41287Y111066D01*
X33297Y98009D02*
X33297Y95086D01*
X29789Y98009D02*
X29789Y95086D01*
X22384Y112040D02*
X19461Y112040D01*
X44211Y112040D02*
X41287Y112040D01*
X39339Y110481D02*
X39339Y107558D01*
X45770Y110481D02*
X42846Y110481D01*
X45770Y130749D02*
X42846Y130749D01*
X44211Y111651D02*
X41287Y111651D01*
X44211Y110676D02*
X41287Y110676D01*
X44211Y111845D02*
X41287Y111845D01*
X58242Y121395D02*
X58242Y118471D01*
X22384Y110676D02*
X19461Y110676D01*
X35051Y110481D02*
X35051Y107558D01*
X35051Y98009D02*
X35051Y95086D01*
X27061Y115548D02*
X24138Y115548D01*
X45770Y109897D02*
X42846Y109897D01*
X39728Y122954D02*
X39728Y120031D01*
X36415Y115548D02*
X33492Y115548D01*
X36415Y115353D02*
X33492Y115353D01*
X45770Y129969D02*
X42846Y129969D01*
X34856Y115158D02*
X31933Y115158D01*
X30179Y115158D02*
X27256Y115158D01*
X24528Y102686D02*
X24528Y99763D01*
X27061Y115353D02*
X24138Y115353D01*
X34856Y130749D02*
X34856Y127826D01*
X36415Y115938D02*
X33492Y115938D01*
X36415Y116133D02*
X33492Y116133D01*
X57657Y121395D02*
X57657Y118471D01*
X27061Y116133D02*
X24138Y116133D01*
X35246Y98009D02*
X35246Y95086D01*
X27061Y104635D02*
X24138Y104635D01*
X27061Y115743D02*
X24138Y115743D01*
X36415Y109897D02*
X33492Y109897D01*
X36415Y115743D02*
X33492Y115743D01*
X27061Y115938D02*
X24138Y115938D01*
X32518Y98009D02*
X32518Y95086D01*
X24333Y102686D02*
X24333Y99763D01*
X32713Y98009D02*
X32713Y95086D01*
X38754Y110481D02*
X38754Y107558D01*
X34856Y114574D02*
X31933Y114574D01*
X45770Y110092D02*
X42846Y110092D01*
X34856Y114379D02*
X31933Y114379D01*
X34856Y114184D02*
X31933Y114184D01*
X24917Y102686D02*
X24917Y99763D01*
X45770Y130164D02*
X42846Y130164D01*
X24722Y102686D02*
X24722Y99763D01*
X34856Y114964D02*
X31933Y114964D01*
X29594Y98009D02*
X29594Y95086D01*
X39728Y104245D02*
X39728Y101322D01*
X57852Y121395D02*
X57852Y118471D01*
X39533Y104440D02*
X36610Y104440D01*
X36415Y110092D02*
X33492Y110092D01*
X34856Y114769D02*
X31933Y114769D01*
X36415Y110481D02*
X36415Y107558D01*
X43041Y98009D02*
X43041Y95086D01*
X40703Y122954D02*
X40703Y120031D01*
X34856Y128800D02*
X31933Y128800D01*
X43041Y102686D02*
X43041Y99763D01*
X19850Y112040D02*
X19850Y109117D01*
X19850Y105804D02*
X19850Y102881D01*
X31738Y99958D02*
X28815Y99958D01*
X43236Y98009D02*
X43236Y95086D01*
X39533Y128800D02*
X36610Y128800D01*
X20240Y105804D02*
X20240Y102881D01*
X43236Y102686D02*
X43236Y99763D01*
X20045Y112040D02*
X20045Y109117D01*
X20045Y105804D02*
X20045Y102881D01*
X22384Y99958D02*
X19461Y99958D01*
X19656Y105804D02*
X19656Y102881D01*
X37195Y129190D02*
X37195Y126267D01*
X28425Y99568D02*
X28425Y96645D01*
X19461Y105804D02*
X19461Y102881D01*
X39533Y105219D02*
X36610Y105219D01*
X19461Y112040D02*
X19461Y109117D01*
X42846Y98009D02*
X42846Y95086D01*
X39533Y99958D02*
X36610Y99958D01*
X28230Y99568D02*
X28230Y96645D01*
X42846Y102686D02*
X42846Y99763D01*
X29984Y98009D02*
X29984Y95086D01*
X19656Y112040D02*
X19656Y109117D01*
X42652Y119836D02*
X42652Y116912D01*
X20240Y112040D02*
X20240Y109117D01*
X22384Y99763D02*
X19461Y99763D01*
X20825Y112040D02*
X20825Y109117D01*
X22384Y100737D02*
X19461Y100737D01*
X44016Y98009D02*
X44016Y95086D01*
X43821Y102686D02*
X43821Y99763D01*
X20825Y105804D02*
X20825Y102881D01*
X44211Y98009D02*
X44211Y95086D01*
X31738Y100737D02*
X28815Y100737D01*
X27841Y99568D02*
X27841Y96645D01*
X44211Y102686D02*
X44211Y99763D01*
X27061Y105219D02*
X24138Y105219D01*
X44016Y102686D02*
X44016Y99763D01*
X21020Y113599D02*
X21020Y110676D01*
X40703Y104245D02*
X40703Y101322D01*
X20435Y112040D02*
X20435Y109117D01*
X20435Y105804D02*
X20435Y102881D01*
X44211Y99763D02*
X41287Y99763D01*
X38364Y110481D02*
X38364Y107558D01*
X28035Y99568D02*
X28035Y96645D01*
X31738Y100542D02*
X28815Y100542D01*
X43431Y102686D02*
X43431Y99763D01*
X43431Y98009D02*
X43431Y95086D01*
X20630Y112040D02*
X20630Y109117D01*
X43821Y98009D02*
X43821Y95086D01*
X31738Y99763D02*
X28815Y99763D01*
X43626Y98009D02*
X43626Y95086D01*
X39533Y99763D02*
X36610Y99763D01*
X20630Y105804D02*
X20630Y102881D01*
X43626Y102686D02*
X43626Y99763D01*
X37780Y129190D02*
X37780Y126267D01*
X27061Y105804D02*
X24138Y105804D01*
X39533Y105609D02*
X36610Y105609D01*
X41482Y119836D02*
X41482Y116912D01*
X44211Y98009D02*
X41287Y98009D01*
X34856Y128410D02*
X31933Y128410D01*
X29010Y98009D02*
X29010Y95086D01*
X39533Y105804D02*
X36610Y105804D01*
X39533Y128410D02*
X36610Y128410D01*
X41677Y119836D02*
X41677Y116912D01*
X39533Y100347D02*
X36610Y100347D01*
X39533Y105414D02*
X36610Y105414D01*
X39533Y128021D02*
X36610Y128021D01*
X41287Y119836D02*
X41287Y116912D01*
X34856Y128216D02*
X31933Y128216D01*
X39533Y128216D02*
X36610Y128216D01*
X29205Y98009D02*
X29205Y95086D01*
X38169Y110481D02*
X38169Y107558D01*
X34856Y127826D02*
X31933Y127826D01*
X39533Y127826D02*
X36610Y127826D01*
X41093Y122954D02*
X41093Y120031D01*
X22384Y100542D02*
X19461Y100542D01*
X34856Y128021D02*
X31933Y128021D01*
X37974Y129190D02*
X37974Y126267D01*
X27061Y105609D02*
X24138Y105609D01*
X31738Y100347D02*
X28815Y100347D01*
X42262Y119836D02*
X42262Y116912D01*
X28620Y99568D02*
X28620Y96645D01*
X31738Y100153D02*
X28815Y100153D01*
X34856Y128605D02*
X31933Y128605D01*
X37390Y129190D02*
X37390Y126267D01*
X39533Y100153D02*
X36610Y100153D01*
X22384Y100153D02*
X19461Y100153D01*
X42457Y119836D02*
X42457Y116912D01*
X40898Y104245D02*
X40898Y101322D01*
X30179Y110481D02*
X30179Y107558D01*
X39533Y128605D02*
X36610Y128605D01*
X22384Y100347D02*
X19461Y100347D01*
X27061Y105414D02*
X24138Y105414D01*
X37585Y129190D02*
X37585Y126267D01*
X41093Y104245D02*
X41093Y101322D01*
X41872Y119836D02*
X41872Y116912D01*
X28620Y119836D02*
X28620Y116912D01*
X30179Y98009D02*
X30179Y95086D01*
X56878Y121395D02*
X56878Y118471D01*
X28815Y102686D02*
X28815Y99763D01*
X40898Y122954D02*
X40898Y120031D01*
X42067Y119836D02*
X42067Y116912D01*
X28815Y98009D02*
X28815Y95086D01*
X44211Y108338D02*
X41287Y108338D01*
X22384Y101127D02*
X19461Y101127D01*
X45575Y116718D02*
X45575Y113794D01*
X27451Y99568D02*
X27451Y96645D01*
X31738Y121395D02*
X28815Y121395D01*
X31738Y121200D02*
X28815Y121200D01*
X39533Y129190D02*
X36610Y129190D01*
X36610Y102686D02*
X36610Y99763D01*
X50447Y108338D02*
X47524Y108338D01*
X34856Y129190D02*
X31933Y129190D01*
X22189Y113599D02*
X22189Y110676D01*
X45380Y116718D02*
X45380Y113794D01*
X50447Y107948D02*
X47524Y107948D01*
X36610Y129190D02*
X36610Y126267D01*
X45770Y122954D02*
X42846Y122954D01*
X21994Y113599D02*
X21994Y110676D01*
X40508Y104245D02*
X40508Y101322D01*
X39533Y105025D02*
X36610Y105025D01*
X50447Y108143D02*
X47524Y108143D01*
X44211Y108143D02*
X41287Y108143D01*
X45770Y116718D02*
X45770Y113794D01*
X27256Y99568D02*
X27256Y96645D01*
X31738Y120225D02*
X28815Y120225D01*
X46354Y119836D02*
X46354Y116912D01*
X22384Y113599D02*
X22384Y110676D01*
X31738Y120420D02*
X28815Y120420D01*
X40313Y122954D02*
X40313Y120031D01*
X44211Y108727D02*
X41287Y108727D01*
X31738Y120031D02*
X28815Y120031D01*
X50447Y108727D02*
X47524Y108727D01*
X46939Y119836D02*
X46939Y116912D01*
X46744Y119836D02*
X46744Y116912D01*
X46549Y119836D02*
X46549Y116912D01*
X27061Y105025D02*
X24138Y105025D01*
X45770Y120031D02*
X42846Y120031D01*
X44211Y108532D02*
X41287Y108532D01*
X39533Y101127D02*
X36610Y101127D01*
X27256Y119836D02*
X27256Y116912D01*
X31738Y101127D02*
X28815Y101127D01*
X31738Y121005D02*
X28815Y121005D01*
X31738Y120810D02*
X28815Y120810D01*
X31738Y120615D02*
X28815Y120615D01*
X46159Y119836D02*
X46159Y116912D01*
X50447Y108532D02*
X47524Y108532D01*
X45965Y119836D02*
X45965Y116912D01*
X44211Y107753D02*
X41287Y107753D01*
X44600Y116718D02*
X44600Y113794D01*
X21409Y113599D02*
X21409Y110676D01*
X50447Y107753D02*
X47524Y107753D01*
X39533Y100932D02*
X36610Y100932D01*
X36805Y129190D02*
X36805Y126267D01*
X44795Y116718D02*
X44795Y113794D01*
X21604Y113599D02*
X21604Y110676D01*
X31738Y100932D02*
X28815Y100932D01*
X40508Y122954D02*
X40508Y120031D01*
X44211Y107558D02*
X41287Y107558D01*
X39533Y128995D02*
X36610Y128995D01*
X44406Y116718D02*
X44406Y113794D01*
X50447Y107558D02*
X47524Y107558D01*
X45185Y116718D02*
X45185Y113794D01*
X27646Y99568D02*
X27646Y96645D01*
X34856Y128995D02*
X31933Y128995D01*
X22384Y100932D02*
X19461Y100932D01*
X39533Y100737D02*
X36610Y100737D01*
X57073Y121395D02*
X57073Y118471D01*
X44990Y116718D02*
X44990Y113794D01*
X21799Y113599D02*
X21799Y110676D01*
X21215Y113599D02*
X21215Y110676D01*
X37000Y129190D02*
X37000Y126267D01*
X44211Y107948D02*
X41287Y107948D01*
X30179Y109897D02*
X25697Y109897D01*
X31543Y121395D02*
X31543Y116912D01*
X31738Y121395D02*
X31738Y116912D01*
X29984Y118277D02*
X29984Y113794D01*
X30959Y121395D02*
X30959Y116912D01*
X53370Y102686D02*
X53370Y98204D01*
X28620Y110871D02*
X24138Y110871D01*
X27061Y130749D02*
X27061Y126267D01*
X54929Y102686D02*
X54929Y98204D01*
X54150Y102686D02*
X54150Y98204D01*
X29205Y118277D02*
X29205Y113794D01*
X30179Y109702D02*
X25697Y109702D01*
X39533Y108727D02*
X35051Y108727D01*
X39533Y108922D02*
X35051Y108922D01*
X29010Y118277D02*
X29010Y113794D01*
X28620Y110676D02*
X24138Y110676D01*
X52591Y102686D02*
X52591Y98204D01*
X39533Y107558D02*
X35051Y107558D01*
X29594Y118277D02*
X29594Y113794D01*
X52980Y102686D02*
X52980Y98204D01*
X55124Y130749D02*
X55124Y126267D01*
X30179Y110092D02*
X25697Y110092D01*
X31348Y121395D02*
X31348Y116912D01*
X30179Y110286D02*
X25697Y110286D01*
X30179Y118277D02*
X30179Y113794D01*
X30179Y109312D02*
X25697Y109312D01*
X53760Y102686D02*
X53760Y98204D01*
X54539Y102686D02*
X54539Y98204D01*
X39533Y107948D02*
X35051Y107948D01*
X39533Y108143D02*
X35051Y108143D01*
X30374Y121395D02*
X30374Y116912D01*
X31154Y121395D02*
X31154Y116912D01*
X30764Y121395D02*
X30764Y116912D01*
X30179Y110481D02*
X25697Y110481D01*
X53175Y102686D02*
X53175Y98204D01*
X53955Y102686D02*
X53955Y98204D01*
X52785Y102686D02*
X52785Y98204D01*
X39533Y108532D02*
X35051Y108532D01*
X53565Y102686D02*
X53565Y98204D01*
X28815Y118277D02*
X28815Y113794D01*
X30179Y109117D02*
X25697Y109117D01*
X39533Y107753D02*
X35051Y107753D01*
X29400Y118277D02*
X29400Y113794D01*
X30179Y109507D02*
X25697Y109507D01*
X30569Y121395D02*
X30569Y116912D01*
X39533Y108338D02*
X35051Y108338D01*
X54734Y102686D02*
X54734Y98204D01*
X54344Y102686D02*
X54344Y98204D01*
X29789Y118277D02*
X29789Y113794D01*
X55124Y102686D02*
X55124Y98204D01*
X42846Y112040D02*
X42846Y107558D01*
X19850Y118277D02*
X19850Y113794D01*
X19656Y118277D02*
X19656Y113794D01*
X55124Y126267D02*
X50642Y126267D01*
X27061Y126267D02*
X22579Y126267D01*
X37195Y108922D02*
X37195Y104440D01*
X20435Y118277D02*
X20435Y113794D01*
X20045Y118277D02*
X20045Y113794D01*
X20240Y118277D02*
X20240Y113794D01*
X19461Y118277D02*
X19461Y113794D01*
X44211Y133477D02*
X39728Y133477D01*
X27061Y126851D02*
X22579Y126851D01*
X55124Y126656D02*
X50642Y126656D01*
X37585Y108922D02*
X37585Y104440D01*
X27061Y127046D02*
X22579Y127046D01*
X55124Y126851D02*
X50642Y126851D01*
X55124Y126462D02*
X50642Y126462D01*
X44211Y133867D02*
X39728Y133867D01*
X27061Y126462D02*
X22579Y126462D01*
X37390Y108922D02*
X37390Y104440D01*
X44211Y133672D02*
X39728Y133672D01*
X27061Y126656D02*
X22579Y126656D01*
X55124Y130554D02*
X50642Y130554D01*
X44990Y132308D02*
X44990Y127826D01*
X21799Y121395D02*
X21799Y116912D01*
X44990Y124513D02*
X44990Y120031D01*
X44795Y124513D02*
X44795Y120031D01*
X44795Y132308D02*
X44795Y127826D01*
X36805Y108922D02*
X36805Y104440D01*
X21994Y121395D02*
X21994Y116912D01*
X36415Y122759D02*
X31933Y122759D01*
X36415Y122564D02*
X31933Y122564D01*
X27061Y130749D02*
X22579Y130749D01*
X45185Y124513D02*
X45185Y120031D01*
X45185Y132308D02*
X45185Y127826D01*
X36415Y122954D02*
X31933Y122954D01*
X21604Y121395D02*
X21604Y116912D01*
X21020Y121395D02*
X21020Y116912D01*
X44211Y112040D02*
X44211Y107558D01*
X21215Y121395D02*
X21215Y116912D01*
X20630Y118277D02*
X20630Y113794D01*
X20825Y118277D02*
X20825Y113794D01*
X44406Y132308D02*
X44406Y127826D01*
X44600Y124513D02*
X44600Y120031D01*
X44600Y132308D02*
X44600Y127826D01*
X44406Y124513D02*
X44406Y120031D01*
X37000Y108922D02*
X37000Y104440D01*
X21409Y121395D02*
X21409Y116912D01*
X44211Y133282D02*
X39728Y133282D01*
X40118Y133867D02*
X40118Y129385D01*
X36415Y129385D02*
X31933Y129385D01*
X27061Y129385D02*
X22579Y129385D01*
X55124Y129385D02*
X50642Y129385D01*
X55124Y129580D02*
X50642Y129580D01*
X36415Y129580D02*
X31933Y129580D01*
X27061Y129580D02*
X22579Y129580D01*
X55124Y128995D02*
X50642Y128995D01*
X40508Y133867D02*
X40508Y129385D01*
X27061Y128995D02*
X22579Y128995D01*
X27061Y129190D02*
X22579Y129190D01*
X55124Y129190D02*
X50642Y129190D01*
X40313Y133867D02*
X40313Y129385D01*
X36415Y130554D02*
X31933Y130554D01*
X39923Y133867D02*
X39923Y129385D01*
X36415Y130164D02*
X31933Y130164D01*
X27061Y130164D02*
X22579Y130164D01*
X55124Y129969D02*
X50642Y129969D01*
X55124Y130164D02*
X50642Y130164D01*
X36415Y130359D02*
X31933Y130359D01*
X27061Y130359D02*
X22579Y130359D01*
X55124Y130359D02*
X50642Y130359D01*
X36415Y129775D02*
X31933Y129775D01*
X27061Y129775D02*
X22579Y129775D01*
X27061Y130554D02*
X22579Y130554D01*
X55124Y129775D02*
X50642Y129775D01*
X36415Y129969D02*
X31933Y129969D01*
X27061Y129969D02*
X22579Y129969D01*
X39728Y133867D02*
X39728Y129385D01*
X55124Y128800D02*
X50642Y128800D01*
X27061Y127631D02*
X22579Y127631D01*
X55124Y127436D02*
X50642Y127436D01*
X44211Y132698D02*
X39728Y132698D01*
X55124Y127631D02*
X50642Y127631D01*
X37974Y108922D02*
X37974Y104440D01*
X44211Y132503D02*
X39728Y132503D01*
X27061Y127241D02*
X22579Y127241D01*
X44211Y133088D02*
X39728Y133088D01*
X55124Y127046D02*
X50642Y127046D01*
X37780Y108922D02*
X37780Y104440D01*
X27061Y127436D02*
X22579Y127436D01*
X55124Y127241D02*
X50642Y127241D01*
X44211Y132893D02*
X39728Y132893D01*
X27061Y127826D02*
X22579Y127826D01*
X40898Y133867D02*
X40898Y129385D01*
X55124Y128410D02*
X50642Y128410D01*
X27061Y128605D02*
X22579Y128605D01*
X27061Y128800D02*
X22579Y128800D01*
X40703Y133867D02*
X40703Y129385D01*
X55124Y128605D02*
X50642Y128605D01*
X55124Y128021D02*
X50642Y128021D01*
X27061Y128021D02*
X22579Y128021D01*
X55124Y127826D02*
X50642Y127826D01*
X27061Y128216D02*
X22579Y128216D01*
X27061Y128410D02*
X22579Y128410D01*
X55124Y128216D02*
X50642Y128216D01*
X41093Y133867D02*
X41093Y129385D01*
X50057Y112040D02*
X50057Y107558D01*
X50252Y112040D02*
X50252Y107558D01*
X53565Y115353D02*
X49083Y115353D01*
X49862Y112040D02*
X49862Y107558D01*
X55124Y102686D02*
X50642Y102686D01*
X50642Y130749D02*
X50642Y126267D01*
X50642Y102686D02*
X50642Y98204D01*
X50447Y112040D02*
X50447Y107558D01*
X53565Y115548D02*
X49083Y115548D01*
X36415Y130749D02*
X31933Y130749D01*
X53565Y116133D02*
X49083Y116133D01*
X49278Y112040D02*
X49278Y107558D01*
X49083Y112040D02*
X49083Y107558D01*
X53565Y116328D02*
X49083Y116328D01*
X35246Y133867D02*
X35246Y129385D01*
X55124Y98204D02*
X50642Y98204D01*
X49667Y112040D02*
X49667Y107558D01*
X53565Y115743D02*
X49083Y115743D01*
X53565Y115938D02*
X49083Y115938D01*
X49472Y112040D02*
X49472Y107558D01*
X35051Y133867D02*
X35051Y129385D01*
X50837Y102686D02*
X50837Y98204D01*
X52201Y102686D02*
X52201Y98204D01*
X28620Y111651D02*
X24138Y111651D01*
X28620Y111845D02*
X24138Y111845D01*
X52006Y102686D02*
X52006Y98204D01*
X52396Y102686D02*
X52396Y98204D01*
X28620Y111066D02*
X24138Y111066D01*
X28620Y111261D02*
X24138Y111261D01*
X28620Y111456D02*
X24138Y111456D01*
X55124Y130749D02*
X50642Y130749D01*
X51226Y102686D02*
X51226Y98204D01*
X51421Y102686D02*
X51421Y98204D01*
X51031Y102686D02*
X51031Y98204D01*
X51811Y102686D02*
X51811Y98204D01*
X28620Y112040D02*
X24138Y112040D01*
X51616Y102686D02*
X51616Y98204D01*
X53565Y116523D02*
X49083Y116523D01*
X25502Y120420D02*
X21020Y120420D01*
X22384Y121395D02*
X22384Y116912D01*
X25502Y120615D02*
X21020Y120615D01*
X45770Y132308D02*
X45770Y127826D01*
X25502Y120810D02*
X21020Y120810D01*
X36415Y133867D02*
X36415Y129385D01*
X22579Y130749D02*
X22579Y126267D01*
X22774Y110481D02*
X22774Y105999D01*
X36220Y133867D02*
X36220Y129385D01*
X25502Y120225D02*
X21020Y120225D01*
X25502Y120031D02*
X21020Y120031D01*
X22579Y110481D02*
X22579Y105999D01*
X45770Y124513D02*
X45770Y120031D01*
X36415Y121979D02*
X31933Y121979D01*
X36415Y121784D02*
X31933Y121784D01*
X36610Y108922D02*
X36610Y104440D01*
X36415Y122174D02*
X31933Y122174D01*
X45380Y124513D02*
X45380Y120031D01*
X36415Y122369D02*
X31933Y122369D01*
X45380Y132308D02*
X45380Y127826D01*
X22189Y121395D02*
X22189Y116912D01*
X25502Y121200D02*
X21020Y121200D01*
X25502Y121005D02*
X21020Y121005D01*
X45575Y132308D02*
X45575Y127826D01*
X36415Y121590D02*
X31933Y121590D01*
X45575Y124513D02*
X45575Y120031D01*
X25502Y121395D02*
X21020Y121395D01*
X23748Y110481D02*
X23748Y105999D01*
X44211Y117302D02*
X39728Y117302D01*
X44211Y117497D02*
X39728Y117497D01*
X44211Y117692D02*
X39728Y117692D01*
X23943Y110481D02*
X23943Y105999D01*
X53565Y116718D02*
X49083Y116718D01*
X44211Y116912D02*
X39728Y116912D01*
X35441Y133867D02*
X35441Y129385D01*
X44211Y117107D02*
X39728Y117107D01*
X44211Y117887D02*
X39728Y117887D01*
X23163Y110481D02*
X23163Y105999D01*
X35831Y133867D02*
X35831Y129385D01*
X36026Y133867D02*
X36026Y129385D01*
X22968Y110481D02*
X22968Y105999D01*
X44211Y118082D02*
X39728Y118082D01*
X35636Y133867D02*
X35636Y129385D01*
X23553Y110481D02*
X23553Y105999D01*
X23358Y110481D02*
X23358Y105999D01*
X44211Y118277D02*
X39728Y118277D01*
X45770Y96060D02*
X39728Y96060D01*
X45770Y95865D02*
X39728Y95865D01*
X45770Y96450D02*
X39728Y96450D01*
X45770Y96255D02*
X39728Y96255D01*
X45770Y95281D02*
X39728Y95281D01*
X45770Y95086D02*
X39728Y95086D01*
X45770Y95670D02*
X39728Y95670D01*
X45770Y95475D02*
X39728Y95475D01*
X55709Y118277D02*
X55709Y112235D01*
X55904Y118277D02*
X55904Y112235D01*
X55319Y118277D02*
X55319Y112235D01*
X55514Y118277D02*
X55514Y112235D01*
X41093Y132308D02*
X35051Y132308D01*
X41093Y131723D02*
X35051Y131723D01*
X41093Y131529D02*
X35051Y131529D01*
X41093Y132113D02*
X35051Y132113D01*
X41093Y131918D02*
X35051Y131918D01*
X55124Y113599D02*
X55124Y107558D01*
X53760Y113599D02*
X53760Y107558D01*
X53955Y113599D02*
X53955Y107558D01*
X53370Y118277D02*
X53370Y112235D01*
X53565Y118277D02*
X53565Y112235D01*
X54150Y113599D02*
X54150Y107558D01*
X54734Y113599D02*
X54734Y107558D01*
X54929Y113599D02*
X54929Y107558D01*
X54344Y113599D02*
X54344Y107558D01*
X54539Y113599D02*
X54539Y107558D01*
X41093Y121005D02*
X35051Y121005D01*
X41093Y120810D02*
X35051Y120810D01*
X41093Y121395D02*
X35051Y121395D01*
X41093Y121200D02*
X35051Y121200D01*
X41093Y120615D02*
X35051Y120615D01*
X41093Y120031D02*
X35051Y120031D01*
X57463Y113599D02*
X57463Y107558D01*
X41093Y120420D02*
X35051Y120420D01*
X41093Y120225D02*
X35051Y120225D01*
X57268Y113599D02*
X57268Y107558D01*
X41093Y130944D02*
X35051Y130944D01*
X56098Y118277D02*
X56098Y112235D01*
X41093Y131334D02*
X35051Y131334D01*
X41093Y131139D02*
X35051Y131139D01*
X56293Y118277D02*
X56293Y112235D01*
X56878Y113599D02*
X56878Y107558D01*
X57073Y113599D02*
X57073Y107558D01*
X56488Y118277D02*
X56488Y112235D01*
X56683Y118277D02*
X56683Y112235D01*
X30959Y102686D02*
X30959Y96645D01*
X30764Y102686D02*
X30764Y96645D01*
X31348Y102686D02*
X31348Y96645D01*
X31154Y102686D02*
X31154Y96645D01*
X30569Y102686D02*
X30569Y96645D01*
X25307Y121395D02*
X25307Y115353D01*
X25112Y121395D02*
X25112Y115353D01*
X30374Y102686D02*
X30374Y96645D01*
X25502Y121395D02*
X25502Y115353D01*
X31543Y102686D02*
X31543Y96645D01*
X43431Y122954D02*
X43431Y116912D01*
X43236Y122954D02*
X43236Y116912D01*
X43821Y122954D02*
X43821Y116912D01*
X43626Y122954D02*
X43626Y116912D01*
X43041Y122954D02*
X43041Y116912D01*
X44211Y122954D02*
X44211Y116912D01*
X31738Y102686D02*
X31738Y96645D01*
X42846Y122954D02*
X42846Y116912D01*
X44016Y122954D02*
X44016Y116912D01*
X52785Y118277D02*
X52785Y112235D01*
X20045Y101127D02*
X20045Y95086D01*
X52591Y118277D02*
X52591Y112235D01*
X20240Y101127D02*
X20240Y95086D01*
X52980Y118277D02*
X52980Y112235D01*
X19656Y101127D02*
X19656Y95086D01*
X19461Y101127D02*
X19461Y95086D01*
X19850Y101127D02*
X19850Y95086D01*
X53175Y118277D02*
X53175Y112235D01*
X20435Y101127D02*
X20435Y95086D01*
X24528Y121395D02*
X24528Y115353D01*
X24333Y121395D02*
X24333Y115353D01*
X24917Y121395D02*
X24917Y115353D01*
X24722Y121395D02*
X24722Y115353D01*
X24138Y121395D02*
X24138Y115353D01*
X20630Y101127D02*
X20630Y95086D01*
X52396Y118277D02*
X52396Y112235D01*
X20825Y101127D02*
X20825Y95086D01*
X52201Y118277D02*
X52201Y112235D01*
X57657Y113599D02*
X57657Y107558D01*
X45770Y114574D02*
X39728Y114574D01*
X45770Y114769D02*
X39728Y114769D01*
X45770Y115158D02*
X39728Y115158D01*
X45770Y114964D02*
X39728Y114964D01*
X45770Y113989D02*
X39728Y113989D01*
X45770Y114184D02*
X39728Y114184D01*
X45770Y113794D02*
X39728Y113794D01*
X45770Y114379D02*
X39728Y114379D01*
X57852Y113599D02*
X57852Y107558D01*
X52006Y111845D02*
X45965Y111845D01*
X52006Y111651D02*
X45965Y111651D01*
X52006Y111456D02*
X45965Y111456D01*
X58242Y113599D02*
X58242Y107558D01*
X58047Y113599D02*
X58047Y107558D01*
X52006Y112040D02*
X45965Y112040D01*
X52006Y111261D02*
X45965Y111261D01*
X52006Y110676D02*
X45965Y110676D01*
X52006Y110871D02*
X45965Y110871D01*
X52006Y111066D02*
X45965Y111066D01*
X33297Y108922D02*
X25697Y108922D01*
X33297Y108727D02*
X25697Y108727D01*
X33297Y108532D02*
X25697Y108532D01*
X33297Y108338D02*
X25697Y108338D01*
X27451Y115158D02*
X27451Y107558D01*
X27646Y115158D02*
X27646Y107558D01*
X27256Y115158D02*
X27256Y107558D01*
X33297Y96645D02*
X25697Y96645D01*
X33297Y96840D02*
X25697Y96840D01*
X27841Y115158D02*
X27841Y107558D01*
X28620Y115158D02*
X28620Y107558D01*
X33297Y97034D02*
X25697Y97034D01*
X28425Y115158D02*
X28425Y107558D01*
X28035Y115158D02*
X28035Y107558D01*
X28230Y115158D02*
X28230Y107558D01*
X33297Y108143D02*
X25697Y108143D01*
X36415Y126072D02*
X36415Y118471D01*
X36220Y126072D02*
X36220Y118471D01*
X41482Y102686D02*
X41482Y95086D01*
X41287Y102686D02*
X41287Y95086D01*
X35636Y126072D02*
X35636Y118471D01*
X35441Y126072D02*
X35441Y118471D01*
X36026Y126072D02*
X36026Y118471D01*
X35831Y126072D02*
X35831Y118471D01*
X42457Y102686D02*
X42457Y95086D01*
X42262Y102686D02*
X42262Y95086D01*
X33297Y97814D02*
X25697Y97814D01*
X42652Y102686D02*
X42652Y95086D01*
X41872Y102686D02*
X41872Y95086D01*
X41677Y102686D02*
X41677Y95086D01*
X42067Y102686D02*
X42067Y95086D01*
X33297Y98009D02*
X25697Y98009D01*
X32323Y108922D02*
X32323Y101322D01*
X32128Y108922D02*
X32128Y101322D01*
X33297Y97229D02*
X25697Y97229D01*
X32518Y108922D02*
X32518Y101322D01*
X33297Y107753D02*
X25697Y107753D01*
X33297Y107948D02*
X25697Y107948D01*
X31933Y108922D02*
X31933Y101322D01*
X33297Y107558D02*
X25697Y107558D01*
X33297Y97619D02*
X25697Y97619D01*
X33297Y97424D02*
X25697Y97424D01*
X35246Y126072D02*
X35246Y118471D01*
X35051Y126072D02*
X35051Y118471D01*
X32907Y108922D02*
X32907Y101322D01*
X32713Y108922D02*
X32713Y101322D01*
X33297Y108922D02*
X33297Y101322D01*
X33102Y108922D02*
X33102Y101322D01*
X44211Y102296D02*
X36610Y102296D01*
X34856Y116912D02*
X27256Y116912D01*
X28620Y119251D02*
X21020Y119251D01*
X34856Y117302D02*
X27256Y117302D01*
X34856Y117107D02*
X27256Y117107D01*
X44211Y101517D02*
X36610Y101517D01*
X44211Y102686D02*
X36610Y102686D01*
X28620Y119836D02*
X21020Y119836D01*
X44211Y101322D02*
X36610Y101322D01*
X44211Y102491D02*
X36610Y102491D01*
X28620Y119446D02*
X21020Y119446D01*
X28620Y119056D02*
X21020Y119056D01*
X44211Y101906D02*
X36610Y101906D01*
X44211Y101712D02*
X36610Y101712D01*
X28620Y118666D02*
X21020Y118666D01*
X34856Y118277D02*
X27256Y118277D01*
X28620Y118471D02*
X21020Y118471D01*
X34856Y118082D02*
X27256Y118082D01*
X28620Y118861D02*
X21020Y118861D01*
X34856Y117497D02*
X27256Y117497D01*
X44211Y102101D02*
X36610Y102101D01*
X34856Y117887D02*
X27256Y117887D01*
X34856Y117692D02*
X27256Y117692D01*
X58242Y113599D02*
X50642Y113599D01*
X39533Y113210D02*
X31933Y113210D01*
X39533Y113405D02*
X31933Y113405D01*
X39533Y112820D02*
X31933Y112820D01*
X39533Y113015D02*
X31933Y113015D01*
X39533Y112430D02*
X31933Y112430D01*
X39533Y112235D02*
X31933Y112235D01*
X58242Y112235D02*
X50642Y112235D01*
X28620Y119641D02*
X21020Y119641D01*
X39533Y112625D02*
X31933Y112625D01*
X39533Y113599D02*
X31933Y113599D01*
X51811Y119836D02*
X51811Y110676D01*
X52006Y119836D02*
X52006Y110676D01*
X51031Y119836D02*
X51031Y110676D01*
X50642Y119836D02*
X50642Y110676D01*
X50837Y119836D02*
X50837Y110676D01*
X51421Y119836D02*
X51421Y110676D01*
X51226Y119836D02*
X51226Y110676D01*
X51616Y119836D02*
X51616Y110676D01*
X58242Y95475D02*
X47524Y95475D01*
X57268Y105804D02*
X57268Y95086D01*
X57073Y133867D02*
X57073Y123149D01*
X56878Y133867D02*
X56878Y123149D01*
X58242Y95086D02*
X47524Y95086D01*
X58242Y133867D02*
X58242Y123149D01*
X57073Y105804D02*
X57073Y95086D01*
X58047Y105804D02*
X58047Y95086D01*
X57463Y133867D02*
X57463Y123149D01*
X58242Y95281D02*
X47524Y95281D01*
X58047Y133867D02*
X58047Y123149D01*
X57268Y133867D02*
X57268Y123149D01*
X57463Y105804D02*
X57463Y95086D01*
X58242Y105804D02*
X58242Y95086D01*
X58242Y95865D02*
X47524Y95865D01*
X57852Y105804D02*
X57852Y95086D01*
X58242Y96060D02*
X47524Y96060D01*
X48303Y133867D02*
X48303Y123149D01*
X48498Y105804D02*
X48498Y95086D01*
X57657Y133867D02*
X57657Y123149D01*
X48498Y133867D02*
X48498Y123149D01*
X48888Y133867D02*
X48888Y123149D01*
X58242Y96255D02*
X47524Y96255D01*
X58242Y96450D02*
X47524Y96450D01*
X48693Y105804D02*
X48693Y95086D01*
X48693Y133867D02*
X48693Y123149D01*
X48888Y105804D02*
X48888Y95086D01*
X47718Y105804D02*
X47718Y95086D01*
X57657Y105804D02*
X57657Y95086D01*
X47718Y133867D02*
X47718Y123149D01*
X57852Y133867D02*
X57852Y123149D01*
X47524Y105804D02*
X47524Y95086D01*
X47524Y133867D02*
X47524Y123149D01*
X47913Y105804D02*
X47913Y95086D01*
X48108Y105804D02*
X48108Y95086D01*
X48108Y133867D02*
X48108Y123149D01*
X48303Y105804D02*
X48303Y95086D01*
X56878Y105804D02*
X56878Y95086D01*
X47913Y133867D02*
X47913Y123149D01*
X58242Y95670D02*
X47524Y95670D01*
X30179Y132698D02*
X19461Y132698D01*
X58242Y132503D02*
X47524Y132503D01*
X58242Y132698D02*
X47524Y132698D01*
X58242Y132893D02*
X47524Y132893D01*
X30179Y132893D02*
X19461Y132893D01*
X58242Y124318D02*
X47524Y124318D01*
X30179Y124318D02*
X19461Y124318D01*
X30179Y124513D02*
X19461Y124513D01*
X30179Y132503D02*
X19461Y132503D01*
X58242Y124513D02*
X47524Y124513D01*
X30179Y133672D02*
X19461Y133672D01*
X58242Y133477D02*
X47524Y133477D01*
X58242Y133672D02*
X47524Y133672D01*
X58242Y133867D02*
X47524Y133867D01*
X30179Y133867D02*
X19461Y133867D01*
X58242Y133088D02*
X47524Y133088D01*
X30179Y133088D02*
X19461Y133088D01*
X30179Y133282D02*
X19461Y133282D01*
X30179Y133477D02*
X19461Y133477D01*
X58242Y133282D02*
X47524Y133282D01*
X58242Y105609D02*
X47524Y105609D01*
X58242Y105414D02*
X47524Y105414D01*
X58242Y105804D02*
X47524Y105804D01*
X58242Y123149D02*
X47524Y123149D01*
X30179Y123149D02*
X19461Y123149D01*
X58242Y104635D02*
X47524Y104635D01*
X58242Y104440D02*
X47524Y104440D01*
X58242Y104830D02*
X47524Y104830D01*
X58242Y105219D02*
X47524Y105219D01*
X58242Y105025D02*
X47524Y105025D01*
X30179Y123928D02*
X19461Y123928D01*
X58242Y123733D02*
X47524Y123733D01*
X58242Y123928D02*
X47524Y123928D01*
X58242Y124123D02*
X47524Y124123D01*
X30179Y124123D02*
X19461Y124123D01*
X58242Y123343D02*
X47524Y123343D01*
X30179Y123343D02*
X19461Y123343D01*
X30179Y123538D02*
X19461Y123538D01*
X30179Y123733D02*
X19461Y123733D01*
X58242Y123538D02*
X47524Y123538D01*
X29789Y133867D02*
X29789Y123149D01*
X29594Y133867D02*
X29594Y123149D01*
X30179Y133867D02*
X30179Y123149D01*
X29984Y133867D02*
X29984Y123149D01*
X29010Y133867D02*
X29010Y123149D01*
X28815Y133867D02*
X28815Y123149D01*
X29400Y133867D02*
X29400Y123149D01*
X29205Y133867D02*
X29205Y123149D01*
X34467Y119836D02*
X34467Y109117D01*
X34272Y119836D02*
X34272Y109117D01*
X34856Y119836D02*
X34856Y109117D01*
X34661Y119836D02*
X34661Y109117D01*
X33687Y119836D02*
X33687Y109117D01*
X33492Y119836D02*
X33492Y109117D01*
X34077Y119836D02*
X34077Y109117D01*
X33882Y119836D02*
X33882Y109117D01*
X19850Y133867D02*
X19850Y123149D01*
X20045Y133867D02*
X20045Y123149D01*
X19461Y133867D02*
X19461Y123149D01*
X19656Y133867D02*
X19656Y123149D01*
X20630Y133867D02*
X20630Y123149D01*
X20825Y133867D02*
X20825Y123149D01*
X20240Y133867D02*
X20240Y123149D01*
X20435Y133867D02*
X20435Y123149D01*
X26671Y112040D02*
X26671Y101322D01*
X26476Y112040D02*
X26476Y101322D01*
X27061Y112040D02*
X27061Y101322D01*
X26866Y112040D02*
X26866Y101322D01*
X25892Y112040D02*
X25892Y101322D01*
X25697Y112040D02*
X25697Y101322D01*
X26281Y112040D02*
X26281Y101322D01*
X26087Y112040D02*
X26087Y101322D01*
X34856Y102296D02*
X22579Y102296D01*
X34856Y102101D02*
X22579Y102101D01*
X34856Y102686D02*
X22579Y102686D01*
X34856Y102491D02*
X22579Y102491D01*
X32518Y133867D02*
X32518Y121590D01*
X32713Y133867D02*
X32713Y121590D01*
X32907Y133867D02*
X32907Y121590D01*
X31933Y133867D02*
X31933Y121590D01*
X32128Y133867D02*
X32128Y121590D01*
X32323Y133867D02*
X32323Y121590D01*
X34856Y101517D02*
X22579Y101517D01*
X34856Y101712D02*
X22579Y101712D01*
X34856Y101906D02*
X22579Y101906D01*
X33102Y133867D02*
X33102Y121590D01*
X33297Y133867D02*
X33297Y121590D01*
X34856Y101322D02*
X22579Y101322D01*
G54D15*
X3937Y144749D02*
X3937Y149473D01*
X3937Y147111D02*
X8267Y147111D01*
X8267Y149473D02*
X8267Y144749D01*
X3937Y149473D02*
X6102Y151835D01*
X8267Y149473D01*
X9566Y151835D02*
X9566Y144749D01*
X9566Y147111D02*
X12814Y150654D01*
X11190Y148882D02*
X13897Y144749D01*
X15196Y151835D02*
X15196Y145930D01*
X16279Y144749D01*
X19527Y144749D01*
X15196Y148882D02*
X17362Y148882D01*
X20826Y148882D02*
X20826Y145930D01*
X21909Y144749D01*
X24074Y144749D01*
X25157Y145930D01*
X25157Y148882D02*
X25157Y144749D01*
X30787Y145339D02*
X29704Y144749D01*
X27539Y144749D01*
X26456Y145930D01*
X26456Y147701D01*
X27539Y148882D01*
X29704Y148882D01*
X30787Y148292D01*
X30787Y147701D01*
X29704Y147111D01*
X26456Y147111D01*
X32086Y144749D02*
X36417Y144749D01*
X33169Y151835D02*
X34251Y151835D01*
X34251Y144749D01*
X37716Y144749D02*
X42047Y144749D01*
X38799Y151835D02*
X39881Y151835D01*
X39881Y144749D01*
X47677Y145339D02*
X46594Y144749D01*
X44429Y144749D01*
X43346Y145930D01*
X43346Y147701D01*
X44429Y148882D01*
X46594Y148882D01*
X47677Y148292D01*
X47677Y147701D01*
X46594Y147111D01*
X43346Y147111D01*
X48976Y144749D02*
X52765Y144749D01*
X53307Y145930D01*
X52765Y147111D01*
X49517Y147111D01*
X48976Y148292D01*
X49517Y148882D01*
X53307Y148882D01*
X60236Y151835D02*
X60236Y144749D01*
X60236Y148292D02*
X62942Y148292D01*
X64025Y148882D01*
X64566Y150063D01*
X64025Y151245D01*
X62942Y151835D01*
X60236Y151835D01*
X65866Y148882D02*
X65866Y144749D01*
X65866Y147111D02*
X67490Y148882D01*
X70196Y148882D01*
X71496Y147701D02*
X71496Y145930D01*
X71496Y147701D02*
X72578Y148882D01*
X74744Y148882D01*
X75826Y147701D01*
X75826Y145930D01*
X74744Y144749D01*
X72578Y144749D01*
X71496Y145930D01*
X77125Y142386D02*
X80374Y142386D01*
X81456Y143567D01*
X81456Y148882D01*
X79832Y148882D01*
X81456Y151835D02*
X81456Y151245D01*
X87086Y145339D02*
X86003Y144749D01*
X83838Y144749D01*
X82755Y145930D01*
X82755Y147701D01*
X83838Y148882D01*
X86003Y148882D01*
X87086Y148292D01*
X87086Y147701D01*
X86003Y147111D01*
X82755Y147111D01*
X88385Y151835D02*
X88385Y144749D01*
X88385Y147111D02*
X91633Y150654D01*
X90009Y148882D02*
X92716Y144749D01*
X94015Y151835D02*
X94015Y145930D01*
X95098Y144749D01*
X98346Y144749D01*
X94015Y148882D02*
X96181Y148882D01*
X105275Y148882D02*
X107440Y144749D01*
X109606Y148882D01*
X110905Y147701D02*
X110905Y145930D01*
X110905Y147701D02*
X111988Y148882D01*
X114153Y148882D01*
X115236Y147701D01*
X115236Y145930D01*
X114153Y144749D01*
X111988Y144749D01*
X110905Y145930D01*
X116535Y144749D02*
X116535Y148882D01*
X116535Y147701D02*
X117618Y148882D01*
X119783Y148882D01*
X120866Y147701D01*
X120866Y144749D01*
X127795Y151835D02*
X132125Y151835D01*
X129960Y151835D02*
X129960Y144749D01*
X133425Y144749D02*
X133425Y149473D01*
X133425Y147111D02*
X137755Y147111D01*
X137755Y149473D02*
X137755Y144749D01*
X133425Y149473D02*
X135590Y151835D01*
X137755Y149473D01*
X139055Y151835D02*
X139055Y144749D01*
X139055Y148292D02*
X141761Y148292D01*
X142844Y148882D01*
X143385Y150063D01*
X142844Y151245D01*
X141761Y151835D01*
X139055Y151835D01*
X141220Y148292D02*
X143385Y144749D01*
X146309Y151835D02*
X145226Y151245D01*
X144685Y150063D01*
X144685Y146520D01*
X145226Y145339D01*
X146309Y144749D01*
X147391Y144749D01*
X148474Y145339D01*
X149015Y146520D01*
X149015Y148292D01*
X147933Y148292D01*
X146309Y151835D02*
X147391Y151835D01*
X148474Y151245D01*
X150314Y151835D02*
X150314Y144749D01*
X154645Y144749D01*
X150314Y148292D02*
X152480Y148292D01*
X150314Y151835D02*
X154645Y151835D01*
X155944Y151835D02*
X160275Y151835D01*
X158110Y151835D02*
X158110Y144749D01*
X167204Y144749D02*
X167204Y151835D01*
X171535Y144749D01*
X171535Y151835D01*
X175541Y144749D02*
X176624Y145339D01*
X177165Y146520D01*
X175541Y144749D02*
X174458Y144749D01*
X173375Y145339D01*
X172834Y146520D01*
X172834Y150063D01*
X173375Y151245D01*
X174458Y151835D01*
X175541Y151835D01*
X176624Y151245D01*
X177165Y150063D01*
X178464Y148292D02*
X182795Y148292D01*
X184094Y151835D02*
X184094Y144749D01*
X188425Y144749D01*
X184094Y148292D02*
X186259Y148292D01*
X184094Y151835D02*
X188425Y151835D01*
X194055Y151835D02*
X194055Y144749D01*
X190807Y144749D01*
X189724Y145930D01*
X189724Y147701D01*
X190807Y148882D01*
X194055Y148882D01*
X195354Y144749D02*
X199685Y144749D01*
X197519Y144749D02*
X197519Y148882D01*
X197519Y151835D02*
X197519Y151245D01*
X195895Y148882D02*
X197519Y148882D01*
X200984Y151835D02*
X200984Y145930D01*
X202066Y144749D01*
X205314Y144749D01*
X200984Y148882D02*
X203149Y148882D01*
X206614Y144749D02*
X210944Y144749D01*
X208779Y144749D02*
X208779Y148882D01*
X208779Y151835D02*
X208779Y151245D01*
X207155Y148882D02*
X208779Y148882D01*
X212244Y147701D02*
X212244Y145930D01*
X212244Y147701D02*
X213326Y148882D01*
X215492Y148882D01*
X216574Y147701D01*
X216574Y145930D01*
X215492Y144749D01*
X213326Y144749D01*
X212244Y145930D01*
X217874Y144749D02*
X217874Y148882D01*
X217874Y147701D02*
X218956Y148882D01*
X221122Y148882D01*
X222204Y147701D01*
X222204Y144749D01*
X224586Y145339D02*
X224586Y144749D01*
X225127Y144749D01*
X225127Y145339D01*
X224586Y145339D01*
X225127Y148292D02*
X224586Y148292D01*
X224586Y147701D01*
X225127Y147701D01*
X225127Y148292D01*
X234763Y151835D02*
X234763Y144749D01*
X234763Y147111D02*
X239094Y151835D01*
X236387Y148882D02*
X239094Y144749D01*
X240393Y147701D02*
X240393Y145930D01*
X240393Y147701D02*
X241476Y148882D01*
X243641Y148882D01*
X244724Y147701D01*
X244724Y145930D01*
X243641Y144749D01*
X241476Y144749D01*
X240393Y145930D01*
X250354Y144749D02*
X250354Y147701D01*
X249271Y148882D01*
X248188Y144749D02*
X248188Y147701D01*
X246023Y148882D02*
X249271Y148882D01*
X246023Y144749D02*
X246023Y148882D01*
X248188Y147701D02*
X247106Y148882D01*
X255984Y144749D02*
X255984Y147701D01*
X254901Y148882D01*
X253818Y144749D02*
X253818Y147701D01*
X251653Y148882D02*
X254901Y148882D01*
X251653Y144749D02*
X251653Y148882D01*
X253818Y147701D02*
X252736Y148882D01*
X261614Y145339D02*
X260531Y144749D01*
X258366Y144749D01*
X257283Y145930D01*
X257283Y147701D01*
X258366Y148882D01*
X260531Y148882D01*
X261614Y148292D01*
X261614Y147701D01*
X260531Y147111D01*
X257283Y147111D01*
X262913Y148882D02*
X262913Y144749D01*
X262913Y147111D02*
X264537Y148882D01*
X267244Y148882D01*
X268543Y148882D02*
X272874Y148882D01*
X268543Y144749D01*
X272874Y144749D01*
X274173Y144749D02*
X278503Y144749D01*
X276338Y144749D02*
X276338Y148882D01*
X276338Y151835D02*
X276338Y151245D01*
X274714Y148882D02*
X276338Y148882D01*
X284133Y145339D02*
X283051Y144749D01*
X280885Y144749D01*
X279803Y145930D01*
X279803Y147701D01*
X280885Y148882D01*
X283051Y148882D01*
X284133Y148292D01*
X284133Y147701D01*
X283051Y147111D01*
X279803Y147111D01*
X285433Y144749D02*
X289763Y144749D01*
X286515Y151835D02*
X287598Y151835D01*
X287598Y144749D01*
X291062Y144749D02*
X295393Y144749D01*
X292145Y151835D02*
X293228Y151835D01*
X293228Y144749D01*
X301023Y145339D02*
X299940Y144749D01*
X297775Y144749D01*
X296692Y145930D01*
X296692Y147701D01*
X297775Y148882D01*
X299940Y148882D01*
X301023Y148292D01*
X301023Y147701D01*
X299940Y147111D01*
X296692Y147111D01*
X307952Y144749D02*
X307952Y151835D01*
X312283Y144749D01*
X312283Y151835D01*
X313582Y148882D02*
X313582Y145930D01*
X314665Y144749D01*
X316830Y144749D01*
X317913Y145930D01*
X317913Y148882D02*
X317913Y144749D01*
X319212Y151835D02*
X319212Y145930D01*
X320295Y144749D01*
X323543Y144749D01*
X319212Y148882D02*
X321377Y148882D01*
X324842Y148882D02*
X329173Y148882D01*
X324842Y144749D01*
X329173Y144749D01*
X330472Y148882D02*
X330472Y145930D01*
X331555Y144749D01*
X333720Y144749D01*
X334803Y145930D01*
X334803Y148882D02*
X334803Y144749D01*
X336102Y144749D02*
X336102Y148882D01*
X336102Y147701D02*
X337185Y148882D01*
X339350Y148882D01*
X340433Y147701D01*
X340433Y144749D01*
X346062Y145930D02*
X344980Y144749D01*
X342814Y144749D01*
X341732Y145930D01*
X341732Y147701D01*
X342814Y148882D01*
X344980Y148882D01*
X346062Y147701D01*
X346062Y143567D01*
X344980Y142386D01*
X341732Y142386D01*
X352992Y144749D02*
X357322Y144749D01*
X355157Y144749D02*
X355157Y148882D01*
X355157Y151835D02*
X355157Y151245D01*
X353533Y148882D02*
X355157Y148882D01*
X358622Y144749D02*
X362411Y144749D01*
X362952Y145930D01*
X362411Y147111D01*
X359163Y147111D01*
X358622Y148292D01*
X359163Y148882D01*
X362952Y148882D01*
X364251Y151835D02*
X364251Y145930D01*
X365334Y144749D01*
X368582Y144749D01*
X364251Y148882D02*
X366417Y148882D01*
X375511Y144749D02*
X379301Y144749D01*
X379842Y145930D01*
X379301Y147111D01*
X376053Y147111D01*
X375511Y148292D01*
X376053Y148882D01*
X379842Y148882D01*
X381141Y151835D02*
X381141Y145930D01*
X382224Y144749D01*
X385472Y144749D01*
X381141Y148882D02*
X383307Y148882D01*
X386771Y148882D02*
X386771Y144749D01*
X386771Y147111D02*
X388395Y148882D01*
X391102Y148882D01*
X392401Y145930D02*
X393484Y144749D01*
X395649Y144749D01*
X396732Y145930D01*
X392401Y145930D02*
X392401Y147701D01*
X393484Y148882D01*
X395649Y148882D01*
X396732Y147701D01*
X396732Y144749D01*
X398031Y142386D02*
X398031Y150654D01*
X399114Y151835D01*
X402362Y151835D01*
X398031Y147111D02*
X400196Y147111D01*
X403661Y151835D02*
X403661Y144749D01*
X406909Y144749D01*
X407992Y145930D01*
X407992Y147701D01*
X406909Y148882D01*
X403661Y148882D01*
X409291Y145930D02*
X410374Y144749D01*
X412539Y144749D01*
X413622Y145930D01*
X409291Y145930D02*
X409291Y147701D01*
X410374Y148882D01*
X412539Y148882D01*
X413622Y147701D01*
X413622Y144749D01*
X414921Y148882D02*
X414921Y144749D01*
X414921Y147111D02*
X416545Y148882D01*
X419251Y148882D01*
X422716Y144749D02*
X422716Y145339D01*
X423257Y145339D01*
X423257Y144749D01*
X422716Y144749D01*
X422716Y147111D02*
X423257Y147111D01*
X423799Y150654D01*
X423257Y151835D01*
X422716Y151835D01*
X422175Y150654D01*
X422716Y147111D01*
G54D17*
X15900Y13750D02*
X15900Y84616D01*
X63607Y13750D02*
X63607Y84616D01*
X12258Y44232D02*
X3991Y44232D01*
X3991Y55767D01*
X12258Y55767D01*
X12258Y44232D01*
M02*
