%FSLAX35Y35*%
%MOIN*%
%TF.FileFunction,Copper,L2,Bot*%
%ADD10C,0.00591*%
%ADD11C,0.00214*%
%ADD12C,0.00384*%
%ADD13C,0.00409*%
%ADD14C,0.00472*%
%ADD15C,0.00512*%
%ADD16C,0.00650*%
%ADD17C,0.00768*%
%ADD18C,0.00886*%
%ADD19C,0.01181*%
%ADD20C,0.01575*%
%ADD21C,0.01969*%
%ADD22C,0.02362*%
%ADD23C,0.03150*%
%ADD24C,0.03937*%
%AMR_25*21,1,0.00787,0.00787,0,0,0.000*%
%ADD25R_25*%
%AMR_26*21,1,0.01181,0.01181,0,0,0.000*%
%ADD26R_26*%
%AMR_27*21,1,0.01706,0.01706,0,0,0.000*%
%ADD27R_27*%
%AMR_28*21,1,0.02133,0.02133,0,0,0.000*%
%ADD28R_28*%
%AMR_29*21,1,0.02362,0.02362,0,0,0.000*%
%ADD29R_29*%
%AMR_30*21,1,0.03200,0.03800,0,0,0.000*%
%ADD30R_30*%
%AMR_31*21,1,0.03200,0.03800,0,0,90.000*%
%ADD31R_31*%
%AMR_32*21,1,0.03200,0.03800,0,0,180.000*%
%ADD32R_32*%
%AMR_33*21,1,0.04409,0.06299,0,0,90.000*%
%ADD33R_33*%
%AMR_34*21,1,0.05000,0.05000,0,0,180.000*%
%ADD34R_34*%
%AMR_35*21,1,0.07874,0.09449,0,0,90.000*%
%ADD35R_35*%
%AMR_36*21,1,0.19685,0.19685,0,0,0.000*%
%ADD36R_36*%
%AMOCT_37*4,1,8,0.031496,0.023622,0.015748,0.039370,-0.015748,0.039370,-0.031496,0.023622,-0.031496,-0.023622,-0.015748,-0.039370,0.015748,-0.039370,0.031496,-0.023622,0.031496,0.023622,270.000*%
%ADD37OCT_37*%
%AMOCT_38*4,1,8,0.039370,0.009843,0.029528,0.019685,-0.029528,0.019685,-0.039370,0.009843,-0.039370,-0.009843,-0.029528,-0.019685,0.029528,-0.019685,0.039370,-0.009843,0.039370,0.009843,0.000*%
%ADD38OCT_38*%
%AMOCT_39*4,1,8,0.039370,0.009843,0.029528,0.019685,-0.029528,0.019685,-0.039370,0.009843,-0.039370,-0.009843,-0.029528,-0.019685,0.029528,-0.019685,0.039370,-0.009843,0.039370,0.009843,90.000*%
%ADD39OCT_39*%
%ADD40O,0.02559X0.04173*%
%AMRR_41*21,1,0.02559,0.03661,0,0,180.000*21,1,0.02047,0.04173,0,0,180.000*1,1,0.00512,-0.01024,-0.01831*1,1,0.00512,0.01024,0.01831*1,1,0.00512,-0.01024,0.01831*1,1,0.00512,0.01024,-0.01831*%
%ADD41RR_41*%
%AMRR_42*21,1,0.06299,0.06929,0,0,180.000*21,1,0.05354,0.07874,0,0,180.000*1,1,0.00945,-0.02677,-0.03465*1,1,0.00945,0.02677,0.03465*1,1,0.00945,-0.02677,0.03465*1,1,0.00945,0.02677,-0.03465*%
%ADD42RR_42*%
%AMRR_43*21,1,0.06299,0.06614,0,0,270.000*21,1,0.05039,0.07874,0,0,270.000*1,1,0.01260,0.03307,-0.02520*1,1,0.01260,-0.03307,0.02520*1,1,0.01260,-0.03307,-0.02520*1,1,0.01260,0.03307,0.02520*%
%ADD43RR_43*%
%AMRR_44*21,1,0.23622,0.06457,0,0,90.000*21,1,0.22205,0.07874,0,0,90.000*1,1,0.01417,-0.03228,0.11102*1,1,0.01417,0.03228,-0.11102*1,1,0.01417,0.03228,0.11102*1,1,0.01417,-0.03228,-0.11102*%
%ADD44RR_44*%
G54D16*
X3937Y144749D02*
X3937Y149473D01*
X3937Y147111D02*
X8267Y147111D01*
X8267Y149473D02*
X8267Y144749D01*
X3937Y149473D02*
X6102Y151835D01*
X8267Y149473D01*
X9566Y151835D02*
X9566Y144749D01*
X9566Y147111D02*
X12814Y150654D01*
X11190Y148882D02*
X13897Y144749D01*
X15196Y151835D02*
X15196Y145930D01*
X16279Y144749D01*
X19527Y144749D01*
X15196Y148882D02*
X17362Y148882D01*
X20826Y148882D02*
X20826Y145930D01*
X21909Y144749D01*
X24074Y144749D01*
X25157Y145930D01*
X25157Y148882D02*
X25157Y144749D01*
X30787Y145339D02*
X29704Y144749D01*
X27539Y144749D01*
X26456Y145930D01*
X26456Y147701D01*
X27539Y148882D01*
X29704Y148882D01*
X30787Y148292D01*
X30787Y147701D01*
X29704Y147111D01*
X26456Y147111D01*
X32086Y144749D02*
X36417Y144749D01*
X33169Y151835D02*
X34251Y151835D01*
X34251Y144749D01*
X37716Y144749D02*
X42047Y144749D01*
X38799Y151835D02*
X39881Y151835D01*
X39881Y144749D01*
X47677Y145339D02*
X46594Y144749D01*
X44429Y144749D01*
X43346Y145930D01*
X43346Y147701D01*
X44429Y148882D01*
X46594Y148882D01*
X47677Y148292D01*
X47677Y147701D01*
X46594Y147111D01*
X43346Y147111D01*
X48976Y144749D02*
X52765Y144749D01*
X53307Y145930D01*
X52765Y147111D01*
X49517Y147111D01*
X48976Y148292D01*
X49517Y148882D01*
X53307Y148882D01*
X60236Y151835D02*
X60236Y144749D01*
X60236Y148292D02*
X62942Y148292D01*
X64025Y148882D01*
X64566Y150063D01*
X64025Y151245D01*
X62942Y151835D01*
X60236Y151835D01*
X65866Y148882D02*
X65866Y144749D01*
X65866Y147111D02*
X67490Y148882D01*
X70196Y148882D01*
X71496Y147701D02*
X71496Y145930D01*
X71496Y147701D02*
X72578Y148882D01*
X74744Y148882D01*
X75826Y147701D01*
X75826Y145930D01*
X74744Y144749D01*
X72578Y144749D01*
X71496Y145930D01*
X77125Y142386D02*
X80374Y142386D01*
X81456Y143567D01*
X81456Y148882D01*
X79832Y148882D01*
X81456Y151835D02*
X81456Y151245D01*
X87086Y145339D02*
X86003Y144749D01*
X83838Y144749D01*
X82755Y145930D01*
X82755Y147701D01*
X83838Y148882D01*
X86003Y148882D01*
X87086Y148292D01*
X87086Y147701D01*
X86003Y147111D01*
X82755Y147111D01*
X88385Y151835D02*
X88385Y144749D01*
X88385Y147111D02*
X91633Y150654D01*
X90009Y148882D02*
X92716Y144749D01*
X94015Y151835D02*
X94015Y145930D01*
X95098Y144749D01*
X98346Y144749D01*
X94015Y148882D02*
X96181Y148882D01*
X105275Y148882D02*
X107440Y144749D01*
X109606Y148882D01*
X110905Y147701D02*
X110905Y145930D01*
X110905Y147701D02*
X111988Y148882D01*
X114153Y148882D01*
X115236Y147701D01*
X115236Y145930D01*
X114153Y144749D01*
X111988Y144749D01*
X110905Y145930D01*
X116535Y144749D02*
X116535Y148882D01*
X116535Y147701D02*
X117618Y148882D01*
X119783Y148882D01*
X120866Y147701D01*
X120866Y144749D01*
X127795Y151835D02*
X132125Y151835D01*
X129960Y151835D02*
X129960Y144749D01*
X133425Y144749D02*
X133425Y149473D01*
X133425Y147111D02*
X137755Y147111D01*
X137755Y149473D02*
X137755Y144749D01*
X133425Y149473D02*
X135590Y151835D01*
X137755Y149473D01*
X139055Y151835D02*
X139055Y144749D01*
X139055Y148292D02*
X141761Y148292D01*
X142844Y148882D01*
X143385Y150063D01*
X142844Y151245D01*
X141761Y151835D01*
X139055Y151835D01*
X141220Y148292D02*
X143385Y144749D01*
X146309Y151835D02*
X145226Y151245D01*
X144685Y150063D01*
X144685Y146520D01*
X145226Y145339D01*
X146309Y144749D01*
X147391Y144749D01*
X148474Y145339D01*
X149015Y146520D01*
X149015Y148292D01*
X147933Y148292D01*
X146309Y151835D02*
X147391Y151835D01*
X148474Y151245D01*
X150314Y151835D02*
X150314Y144749D01*
X154645Y144749D01*
X150314Y148292D02*
X152480Y148292D01*
X150314Y151835D02*
X154645Y151835D01*
X155944Y151835D02*
X160275Y151835D01*
X158110Y151835D02*
X158110Y144749D01*
X167204Y144749D02*
X167204Y151835D01*
X171535Y144749D01*
X171535Y151835D01*
X175541Y144749D02*
X176624Y145339D01*
X177165Y146520D01*
X175541Y144749D02*
X174458Y144749D01*
X173375Y145339D01*
X172834Y146520D01*
X172834Y150063D01*
X173375Y151245D01*
X174458Y151835D01*
X175541Y151835D01*
X176624Y151245D01*
X177165Y150063D01*
X178464Y148292D02*
X182795Y148292D01*
X184094Y151835D02*
X184094Y144749D01*
X188425Y144749D01*
X184094Y148292D02*
X186259Y148292D01*
X184094Y151835D02*
X188425Y151835D01*
X194055Y151835D02*
X194055Y144749D01*
X190807Y144749D01*
X189724Y145930D01*
X189724Y147701D01*
X190807Y148882D01*
X194055Y148882D01*
X195354Y144749D02*
X199685Y144749D01*
X197519Y144749D02*
X197519Y148882D01*
X197519Y151835D02*
X197519Y151245D01*
X195895Y148882D02*
X197519Y148882D01*
X200984Y151835D02*
X200984Y145930D01*
X202066Y144749D01*
X205314Y144749D01*
X200984Y148882D02*
X203149Y148882D01*
X206614Y144749D02*
X210944Y144749D01*
X208779Y144749D02*
X208779Y148882D01*
X208779Y151835D02*
X208779Y151245D01*
X207155Y148882D02*
X208779Y148882D01*
X212244Y147701D02*
X212244Y145930D01*
X212244Y147701D02*
X213326Y148882D01*
X215492Y148882D01*
X216574Y147701D01*
X216574Y145930D01*
X215492Y144749D01*
X213326Y144749D01*
X212244Y145930D01*
X217874Y144749D02*
X217874Y148882D01*
X217874Y147701D02*
X218956Y148882D01*
X221122Y148882D01*
X222204Y147701D01*
X222204Y144749D01*
X224586Y145339D02*
X224586Y144749D01*
X225127Y144749D01*
X225127Y145339D01*
X224586Y145339D01*
X225127Y148292D02*
X224586Y148292D01*
X224586Y147701D01*
X225127Y147701D01*
X225127Y148292D01*
X234763Y151835D02*
X234763Y144749D01*
X234763Y147111D02*
X239094Y151835D01*
X236387Y148882D02*
X239094Y144749D01*
X240393Y147701D02*
X240393Y145930D01*
X240393Y147701D02*
X241476Y148882D01*
X243641Y148882D01*
X244724Y147701D01*
X244724Y145930D01*
X243641Y144749D01*
X241476Y144749D01*
X240393Y145930D01*
X250354Y144749D02*
X250354Y147701D01*
X249271Y148882D01*
X248188Y144749D02*
X248188Y147701D01*
X246023Y148882D02*
X249271Y148882D01*
X246023Y144749D02*
X246023Y148882D01*
X248188Y147701D02*
X247106Y148882D01*
X255984Y144749D02*
X255984Y147701D01*
X254901Y148882D01*
X253818Y144749D02*
X253818Y147701D01*
X251653Y148882D02*
X254901Y148882D01*
X251653Y144749D02*
X251653Y148882D01*
X253818Y147701D02*
X252736Y148882D01*
X261614Y145339D02*
X260531Y144749D01*
X258366Y144749D01*
X257283Y145930D01*
X257283Y147701D01*
X258366Y148882D01*
X260531Y148882D01*
X261614Y148292D01*
X261614Y147701D01*
X260531Y147111D01*
X257283Y147111D01*
X262913Y148882D02*
X262913Y144749D01*
X262913Y147111D02*
X264537Y148882D01*
X267244Y148882D01*
X268543Y148882D02*
X272874Y148882D01*
X268543Y144749D01*
X272874Y144749D01*
X274173Y144749D02*
X278503Y144749D01*
X276338Y144749D02*
X276338Y148882D01*
X276338Y151835D02*
X276338Y151245D01*
X274714Y148882D02*
X276338Y148882D01*
X284133Y145339D02*
X283051Y144749D01*
X280885Y144749D01*
X279803Y145930D01*
X279803Y147701D01*
X280885Y148882D01*
X283051Y148882D01*
X284133Y148292D01*
X284133Y147701D01*
X283051Y147111D01*
X279803Y147111D01*
X285433Y144749D02*
X289763Y144749D01*
X286515Y151835D02*
X287598Y151835D01*
X287598Y144749D01*
X291062Y144749D02*
X295393Y144749D01*
X292145Y151835D02*
X293228Y151835D01*
X293228Y144749D01*
X301023Y145339D02*
X299940Y144749D01*
X297775Y144749D01*
X296692Y145930D01*
X296692Y147701D01*
X297775Y148882D01*
X299940Y148882D01*
X301023Y148292D01*
X301023Y147701D01*
X299940Y147111D01*
X296692Y147111D01*
X307952Y144749D02*
X307952Y151835D01*
X312283Y144749D01*
X312283Y151835D01*
X313582Y148882D02*
X313582Y145930D01*
X314665Y144749D01*
X316830Y144749D01*
X317913Y145930D01*
X317913Y148882D02*
X317913Y144749D01*
X319212Y151835D02*
X319212Y145930D01*
X320295Y144749D01*
X323543Y144749D01*
X319212Y148882D02*
X321377Y148882D01*
X324842Y148882D02*
X329173Y148882D01*
X324842Y144749D01*
X329173Y144749D01*
X330472Y148882D02*
X330472Y145930D01*
X331555Y144749D01*
X333720Y144749D01*
X334803Y145930D01*
X334803Y148882D02*
X334803Y144749D01*
X336102Y144749D02*
X336102Y148882D01*
X336102Y147701D02*
X337185Y148882D01*
X339350Y148882D01*
X340433Y147701D01*
X340433Y144749D01*
X346062Y145930D02*
X344980Y144749D01*
X342814Y144749D01*
X341732Y145930D01*
X341732Y147701D01*
X342814Y148882D01*
X344980Y148882D01*
X346062Y147701D01*
X346062Y143567D01*
X344980Y142386D01*
X341732Y142386D01*
X352992Y144749D02*
X357322Y144749D01*
X355157Y144749D02*
X355157Y148882D01*
X355157Y151835D02*
X355157Y151245D01*
X353533Y148882D02*
X355157Y148882D01*
X358622Y144749D02*
X362411Y144749D01*
X362952Y145930D01*
X362411Y147111D01*
X359163Y147111D01*
X358622Y148292D01*
X359163Y148882D01*
X362952Y148882D01*
X364251Y151835D02*
X364251Y145930D01*
X365334Y144749D01*
X368582Y144749D01*
X364251Y148882D02*
X366417Y148882D01*
X375511Y144749D02*
X379301Y144749D01*
X379842Y145930D01*
X379301Y147111D01*
X376053Y147111D01*
X375511Y148292D01*
X376053Y148882D01*
X379842Y148882D01*
X381141Y151835D02*
X381141Y145930D01*
X382224Y144749D01*
X385472Y144749D01*
X381141Y148882D02*
X383307Y148882D01*
X386771Y148882D02*
X386771Y144749D01*
X386771Y147111D02*
X388395Y148882D01*
X391102Y148882D01*
X392401Y145930D02*
X393484Y144749D01*
X395649Y144749D01*
X396732Y145930D01*
X392401Y145930D02*
X392401Y147701D01*
X393484Y148882D01*
X395649Y148882D01*
X396732Y147701D01*
X396732Y144749D01*
X398031Y142386D02*
X398031Y150654D01*
X399114Y151835D01*
X402362Y151835D01*
X398031Y147111D02*
X400196Y147111D01*
X403661Y151835D02*
X403661Y144749D01*
X406909Y144749D01*
X407992Y145930D01*
X407992Y147701D01*
X406909Y148882D01*
X403661Y148882D01*
X409291Y145930D02*
X410374Y144749D01*
X412539Y144749D01*
X413622Y145930D01*
X409291Y145930D02*
X409291Y147701D01*
X410374Y148882D01*
X412539Y148882D01*
X413622Y147701D01*
X413622Y144749D01*
X414921Y148882D02*
X414921Y144749D01*
X414921Y147111D02*
X416545Y148882D01*
X419251Y148882D01*
X422716Y144749D02*
X422716Y145339D01*
X423257Y145339D01*
X423257Y144749D01*
X422716Y144749D01*
X422716Y147111D02*
X423257Y147111D01*
X423799Y150654D01*
X423257Y151835D01*
X422716Y151835D01*
X422175Y150654D01*
X422716Y147111D01*
G54D19*
X53125Y100000D02*
X58257Y94867D01*
X58257Y79773D01*
X71250Y130625D02*
X64375Y130625D01*
X63125Y129375D01*
X63125Y121250D01*
X64375Y120000D01*
X64375Y113125D02*
X64375Y120000D01*
X64375Y113125D02*
X63125Y111875D01*
X55625Y111875D01*
X53125Y100000D02*
X53125Y109375D01*
X55625Y111875D01*
X18297Y3151D02*
X18297Y5167D01*
X16579Y5167D01*
X15541Y6205D01*
X15541Y31294D01*
X16579Y32332D01*
X25920Y32332D01*
X26958Y31294D01*
X26958Y6205D01*
X26206Y5452D01*
X53301Y5452D01*
X52549Y6205D01*
X52549Y31294D01*
X53587Y32332D01*
X62928Y32332D01*
X63966Y31294D01*
X63966Y6205D01*
X63214Y5452D01*
X66901Y5452D01*
X67047Y5598D01*
X67047Y12578D01*
X66903Y12578D01*
X64291Y15191D01*
X64291Y19808D01*
X66903Y22421D01*
X73096Y22421D01*
X75708Y19808D01*
X75708Y15191D01*
X73096Y12578D01*
X72952Y12578D01*
X72952Y3151D01*
X70981Y1181D01*
X76309Y1181D01*
X76309Y38902D01*
X76004Y38075D01*
X75049Y37120D01*
X73781Y36653D01*
X72468Y36653D01*
X71200Y37120D01*
X70245Y38075D01*
X69778Y39343D01*
X69778Y40656D01*
X70245Y41924D01*
X70762Y42441D01*
X70762Y42637D01*
X64646Y42637D01*
X62012Y45271D01*
X62012Y49682D01*
X61183Y48853D01*
X54716Y48853D01*
X53678Y49891D01*
X53678Y56358D01*
X54716Y57396D01*
X61183Y57396D01*
X62012Y56567D01*
X62012Y66190D01*
X53587Y66190D01*
X52549Y67228D01*
X52549Y92318D01*
X53587Y93356D01*
X62928Y93356D01*
X63966Y92318D01*
X63966Y85082D01*
X64343Y85221D01*
X65656Y85221D01*
X66924Y84754D01*
X67879Y83799D01*
X68346Y82531D01*
X68346Y81218D01*
X67879Y79950D01*
X67362Y79433D01*
X67362Y77771D01*
X66737Y77146D01*
X66737Y47362D01*
X72853Y47362D01*
X75487Y44728D01*
X75487Y42441D01*
X76004Y41924D01*
X76309Y41097D01*
X76309Y125040D01*
X76171Y124902D01*
X76171Y122686D01*
X75133Y121648D01*
X73612Y121648D01*
X73612Y108396D01*
X70978Y105762D01*
X65353Y105762D01*
X64862Y105271D01*
X64862Y104316D01*
X65379Y103799D01*
X65846Y102531D01*
X65846Y101218D01*
X65379Y99950D01*
X64424Y98995D01*
X63156Y98528D01*
X61843Y98528D01*
X60575Y98995D01*
X59620Y99950D01*
X59153Y101218D01*
X59153Y102531D01*
X59620Y103799D01*
X60137Y104316D01*
X60137Y107228D01*
X63396Y110487D01*
X68887Y110487D01*
X68887Y121648D01*
X67366Y121648D01*
X66328Y122686D01*
X66328Y124902D01*
X64360Y126871D01*
X64360Y134378D01*
X65675Y135693D01*
X19109Y135693D01*
X19316Y135487D01*
X29400Y135487D01*
X29523Y135610D01*
X31480Y135610D01*
X36112Y130978D01*
X36112Y117577D01*
X38396Y119862D01*
X58183Y119862D01*
X58700Y120379D01*
X59968Y120846D01*
X61281Y120846D01*
X62549Y120379D01*
X63504Y119424D01*
X63971Y118156D01*
X63971Y116843D01*
X63504Y115575D01*
X62549Y114620D01*
X61281Y114153D01*
X59968Y114153D01*
X58700Y114620D01*
X58183Y115137D01*
X40353Y115137D01*
X39862Y114646D01*
X39862Y67853D01*
X40353Y67362D01*
X48478Y67362D01*
X52987Y62853D01*
X52987Y46796D01*
X53258Y46796D01*
X54296Y45758D01*
X54296Y41091D01*
X53258Y40053D01*
X47991Y40053D01*
X46953Y41091D01*
X46953Y45758D01*
X47991Y46796D01*
X48262Y46796D01*
X48262Y60896D01*
X46521Y62637D01*
X45546Y62637D01*
X45546Y57991D01*
X44508Y56953D01*
X39841Y56953D01*
X38803Y57991D01*
X38803Y58262D01*
X35271Y58262D01*
X32987Y60547D01*
X32987Y57228D01*
X34728Y55487D01*
X38803Y55487D01*
X38803Y55758D01*
X39841Y56796D01*
X44508Y56796D01*
X45546Y55758D01*
X45546Y50491D01*
X44508Y49453D01*
X39841Y49453D01*
X38803Y50491D01*
X38803Y50762D01*
X32771Y50762D01*
X29202Y54331D01*
X29202Y52526D01*
X21223Y44547D01*
X13032Y44547D01*
X12008Y43523D01*
X4241Y43523D01*
X3203Y44561D01*
X3203Y46777D01*
X1235Y48746D01*
X1235Y56253D01*
X2484Y57502D01*
X1825Y57745D01*
X1181Y58390D01*
X1181Y1181D01*
X20268Y1181D01*
X18297Y3151D01*
X65329Y22578D02*
X64291Y23616D01*
X64291Y31383D01*
X65329Y32421D01*
X74670Y32421D01*
X75708Y31383D01*
X75708Y23616D01*
X74670Y22578D01*
X65329Y22578D01*
X30501Y133248D02*
X33750Y130000D01*
X33750Y63125D01*
X36250Y60625D01*
X42175Y60625D01*
X16875Y133125D02*
X30501Y133125D01*
X30501Y133248D01*
X42175Y53125D02*
X33750Y53125D01*
X30625Y56250D01*
X30625Y114375D01*
X27500Y117500D01*
X16875Y117500D02*
X27500Y117500D01*
X50625Y43425D02*
X50625Y61875D01*
X47500Y65000D01*
X39375Y65000D02*
X47500Y65000D01*
X39375Y65000D02*
X37500Y66875D01*
X37500Y115625D01*
X39375Y117500D01*
X60625Y117500D02*
X39375Y117500D01*
X10000Y69375D02*
X10000Y60625D01*
X10000Y69375D02*
X14375Y73750D01*
X14375Y93750D01*
X3750Y70000D02*
X3750Y60625D01*
X3750Y70000D02*
X7253Y73503D01*
X7253Y86003D01*
X64375Y78125D02*
X64375Y46250D01*
X65625Y45000D01*
X71875Y45000D01*
X73125Y43750D01*
X73125Y40000D01*
X65000Y81875D02*
X65000Y78750D01*
X64375Y78125D01*
X62500Y101875D02*
X62500Y106250D01*
X64375Y108125D02*
X62500Y106250D01*
X64375Y108125D02*
X70000Y108125D01*
X71250Y109375D01*
X71250Y125625D01*
G54D22*
X57950Y53125D02*
X57950Y36425D01*
X60000Y34375D01*
X68750Y34375D01*
X70000Y33125D01*
X70000Y27500D01*
X60000Y34375D02*
X58257Y32632D01*
X58257Y18750D01*
X58257Y53125D02*
X58257Y79773D01*
X58257Y53125D02*
X57950Y53125D01*
X8125Y47500D02*
X20000Y47500D01*
X26250Y53750D01*
X26250Y60625D01*
X70000Y17500D02*
X70000Y4375D01*
X68125Y2500D01*
X23125Y2500D01*
X21250Y4375D01*
X21250Y18750D01*
X21250Y79773D02*
X21250Y55000D01*
X18750Y52500D01*
X8125Y52500D01*
G54D23*
X16875Y133125D03*
X16875Y117500D03*
X60625Y117500D03*
X10000Y60625D03*
X14375Y93750D03*
X3750Y60625D03*
X73125Y40000D03*
X65000Y81875D03*
X62500Y101875D03*
G54D24*
X26250Y60625D03*
G54D31*
X50625Y43425D03*
G54D32*
X42175Y53125D03*
X42175Y60625D03*
G54D33*
X8125Y47500D03*
X8125Y52500D03*
X71250Y125625D03*
X71250Y130625D03*
G54D34*
X57950Y53125D03*
G54D37*
X70000Y17500D03*
G54D38*
X7253Y86003D03*
G54D43*
X70000Y27500D03*
G54D44*
X58257Y18750D03*
X21250Y18750D03*
X21250Y79773D03*
X58257Y79773D03*
G36*
X53678Y52534D02*
X53678Y53715D01*
X57950Y53715D01*
X57950Y52534D01*
X53678Y52534D01*
G37*
G36*
X57359Y48853D02*
X57359Y53125D01*
X58540Y53125D01*
X58540Y48853D01*
X57359Y48853D01*
G37*
G36*
X57359Y53125D02*
X57359Y57396D01*
X58540Y57396D01*
X58540Y53125D01*
X57359Y53125D01*
G37*
G36*
X57076Y18750D02*
X57076Y32332D01*
X59438Y32332D01*
X59438Y18750D01*
X57076Y18750D01*
G37*
G36*
X52549Y17568D02*
X52549Y19931D01*
X58257Y19931D01*
X58257Y17568D01*
X52549Y17568D01*
G37*
G36*
X58257Y17568D02*
X58257Y19931D01*
X63966Y19931D01*
X63966Y17568D01*
X58257Y17568D01*
G37*
G36*
X57076Y79773D02*
X57076Y93356D01*
X59438Y93356D01*
X59438Y79773D01*
X57076Y79773D01*
G37*
G36*
X57076Y66190D02*
X57076Y79773D01*
X59438Y79773D01*
X59438Y66190D01*
X57076Y66190D01*
G37*
G36*
X52549Y78592D02*
X52549Y80954D01*
X58257Y80954D01*
X58257Y78592D01*
X52549Y78592D01*
G37*
G36*
X68818Y22578D02*
X68818Y27500D01*
X71181Y27500D01*
X71181Y22578D01*
X68818Y22578D01*
G37*
G36*
X68818Y27500D02*
X68818Y32421D01*
X71181Y32421D01*
X71181Y27500D01*
X68818Y27500D01*
G37*
G36*
X70000Y26318D02*
X70000Y28681D01*
X75708Y28681D01*
X75708Y26318D01*
X70000Y26318D01*
G37*
G36*
X64291Y26318D02*
X64291Y28681D01*
X70000Y28681D01*
X70000Y26318D01*
X64291Y26318D01*
G37*
G36*
X64360Y129443D02*
X64360Y131806D01*
X71250Y131806D01*
X71250Y129443D01*
X64360Y129443D01*
G37*
G36*
X29523Y135462D02*
X18961Y135547D01*
X18962Y135841D01*
X65822Y135841D01*
X65822Y135546D01*
X29523Y135462D01*
G37*
G36*
X31480Y135462D02*
X29376Y135462D01*
X29375Y135757D01*
X65822Y135841D01*
X65823Y135546D01*
X31480Y135462D01*
G37*
G36*
X19256Y135338D02*
X18935Y135659D01*
X19011Y135842D01*
X29670Y135756D01*
X29671Y135464D01*
X19256Y135338D01*
G37*
G36*
X29461Y135339D02*
X19169Y135339D01*
X19167Y135633D01*
X29621Y135759D01*
X29698Y135576D01*
X29461Y135339D01*
G37*
G36*
X64419Y134229D02*
X31330Y135468D01*
X31335Y135757D01*
X65773Y135841D01*
X65849Y135659D01*
X64419Y134229D01*
G37*
G36*
X36058Y130823D02*
X31304Y135577D01*
X31385Y135761D01*
X64502Y134521D01*
X64513Y134248D01*
X36058Y130823D01*
G37*
G36*
X64507Y126700D02*
X35962Y130850D01*
X35966Y131109D01*
X64507Y134545D01*
X64507Y126700D01*
G37*
G36*
X66407Y124736D02*
X35942Y130862D01*
X35991Y131145D01*
X64429Y127010D01*
X66510Y124929D01*
X66407Y124736D01*
G37*
G36*
X66476Y122492D02*
X35935Y130873D01*
X36001Y131151D01*
X66476Y125023D01*
X66476Y122492D01*
G37*
G36*
X76310Y122534D02*
X76023Y122543D01*
X76023Y124963D01*
X76276Y125216D01*
X76462Y125133D01*
X76310Y122534D01*
G37*
G36*
X67434Y121474D02*
X35930Y130878D01*
X36010Y131159D01*
X66405Y122818D01*
X67552Y121671D01*
X67434Y121474D01*
G37*
G36*
X59836Y120686D02*
X59807Y120977D01*
X67358Y121796D01*
X69028Y121796D01*
X69041Y121514D01*
X59836Y120686D01*
G37*
G36*
X59946Y120695D02*
X35925Y130897D01*
X36020Y131159D01*
X67524Y121755D01*
X67502Y121514D01*
X59946Y120695D01*
G37*
G36*
X61289Y120698D02*
X59827Y120698D01*
X59814Y120980D01*
X69020Y121808D01*
X69048Y121517D01*
X61289Y120698D01*
G37*
G36*
X58693Y120219D02*
X35918Y130906D01*
X36036Y131171D01*
X60118Y120943D01*
X60113Y120742D01*
X58693Y120219D01*
G37*
G36*
X62537Y120226D02*
X61120Y120748D01*
X61149Y120980D01*
X69012Y121810D01*
X69055Y121531D01*
X62537Y120226D01*
G37*
G36*
X38276Y119711D02*
X35949Y131038D01*
X36092Y131150D01*
X58869Y120463D01*
X58821Y120234D01*
X38276Y119711D01*
G37*
G36*
X58244Y119714D02*
X38250Y119714D01*
X38247Y120006D01*
X58796Y120529D01*
X58875Y120345D01*
X58244Y119714D01*
G37*
G36*
X63469Y119250D02*
X62382Y120337D01*
X62433Y120506D01*
X68990Y121819D01*
X69067Y121563D01*
X63469Y119250D01*
G37*
G36*
X63899Y117924D02*
X63316Y119506D01*
X68953Y121835D01*
X69080Y121604D01*
X63899Y117924D01*
G37*
G36*
X36146Y117403D02*
X35964Y117479D01*
X35964Y131111D01*
X36229Y131138D01*
X38557Y119814D01*
X36146Y117403D01*
G37*
G36*
X64004Y116669D02*
X63823Y116745D01*
X63823Y118232D01*
X68913Y121848D01*
X69088Y121638D01*
X64004Y116669D01*
G37*
G36*
X63533Y115386D02*
X63323Y115511D01*
X63844Y116925D01*
X68886Y121853D01*
X69092Y121657D01*
X63533Y115386D01*
G37*
G36*
X39766Y114496D02*
X39687Y114680D01*
X40292Y115285D01*
X58329Y115285D01*
X58333Y114994D01*
X39766Y114496D01*
G37*
G36*
X58799Y114472D02*
X39716Y114499D01*
X39712Y114790D01*
X58243Y115287D01*
X58874Y114655D01*
X58799Y114472D01*
G37*
G36*
X60090Y114002D02*
X39712Y114502D01*
X39716Y114794D01*
X58727Y114768D01*
X60136Y114248D01*
X60090Y114002D01*
G37*
G36*
X63476Y110315D02*
X63246Y110371D01*
X63357Y115633D01*
X68862Y121843D01*
X69077Y121699D01*
X63476Y110315D01*
G37*
G36*
X63278Y110328D02*
X62388Y114668D01*
X63470Y115750D01*
X63654Y115672D01*
X63541Y110352D01*
X63278Y110328D01*
G37*
G36*
X63331Y110304D02*
X61066Y114231D01*
X62659Y114818D01*
X63566Y110393D01*
X63331Y110304D01*
G37*
G36*
X63378Y110290D02*
X59794Y114123D01*
X59871Y114301D01*
X61366Y114301D01*
X63590Y110446D01*
X63378Y110290D01*
G37*
G36*
X63475Y110323D02*
X39701Y114524D01*
X39728Y114797D01*
X60034Y114299D01*
X63577Y110510D01*
X63475Y110323D01*
G37*
G36*
X69035Y110339D02*
X63159Y110339D01*
X68807Y121818D01*
X69035Y121765D01*
X69035Y110339D01*
G37*
G36*
X73742Y108241D02*
X73464Y108257D01*
X73464Y121796D01*
X75299Y121796D01*
X73742Y108241D01*
G37*
G36*
X73732Y108229D02*
X73449Y108271D01*
X74992Y121716D01*
X76143Y122867D01*
X76335Y122767D01*
X73732Y108229D01*
G37*
G36*
X60175Y107057D02*
X39684Y114554D01*
X39754Y114815D01*
X63510Y110617D01*
X63564Y110446D01*
X60175Y107057D01*
G37*
G36*
X64771Y105116D02*
X64684Y105303D01*
X65292Y105910D01*
X71120Y105910D01*
X71131Y105626D01*
X64771Y105116D01*
G37*
G36*
X60285Y104075D02*
X39671Y114578D01*
X39782Y114832D01*
X60285Y107331D01*
X60285Y104075D01*
G37*
G36*
X64714Y104129D02*
X64714Y105407D01*
X71103Y105920D01*
X71145Y105650D01*
X64714Y104129D01*
G37*
G36*
X59646Y103616D02*
X39663Y114587D01*
X39799Y114844D01*
X60385Y104355D01*
X59646Y103616D01*
G37*
G36*
X65340Y103629D02*
X64696Y104273D01*
X64743Y104440D01*
X71080Y105938D01*
X71159Y105669D01*
X65340Y103629D01*
G37*
G36*
X59229Y102309D02*
X39662Y114597D01*
X39807Y114844D01*
X59803Y103867D01*
X59229Y102309D01*
G37*
G36*
X65770Y102309D02*
X65188Y103888D01*
X71054Y105945D01*
X71168Y105708D01*
X65770Y102309D01*
G37*
G36*
X59142Y101046D02*
X39659Y114607D01*
X39818Y114848D01*
X59301Y102613D01*
X59301Y101129D01*
X59142Y101046D01*
G37*
G36*
X65872Y101044D02*
X65698Y101123D01*
X65698Y102613D01*
X71014Y105960D01*
X71178Y105742D01*
X65872Y101044D01*
G37*
G36*
X59620Y99766D02*
X39657Y114614D01*
X39827Y114850D01*
X59276Y101313D01*
X59797Y99898D01*
X59620Y99766D01*
G37*
G36*
X65402Y99761D02*
X65199Y99889D01*
X65720Y101304D01*
X70986Y105967D01*
X71183Y105762D01*
X65402Y99761D01*
G37*
G36*
X65382Y99742D02*
X65170Y99947D01*
X70873Y105866D01*
X73611Y108604D01*
X73820Y108398D01*
X65382Y99742D01*
G37*
G36*
X60596Y98794D02*
X39655Y114617D01*
X39832Y114852D01*
X59717Y100062D01*
X60777Y99002D01*
X60596Y98794D01*
G37*
G36*
X53525Y93157D02*
X53387Y93416D01*
X63095Y98663D01*
X64503Y99182D01*
X64615Y98928D01*
X53525Y93157D01*
G37*
G36*
X53531Y93158D02*
X53387Y93405D01*
X61801Y98676D01*
X63271Y98676D01*
X63327Y98453D01*
X53531Y93158D01*
G37*
G36*
X53547Y93157D02*
X53386Y93383D01*
X60548Y99163D01*
X61980Y98635D01*
X61999Y98452D01*
X53547Y93157D01*
G37*
G36*
X53551Y93138D02*
X39671Y114670D01*
X39852Y114838D01*
X60815Y98999D01*
X53551Y93138D01*
G37*
G36*
X63042Y93208D02*
X53471Y93208D01*
X53416Y93433D01*
X64441Y99170D01*
X64591Y99050D01*
X63042Y93208D01*
G37*
G36*
X63018Y93173D02*
X62749Y93258D01*
X64291Y99071D01*
X65359Y100139D01*
X65559Y100010D01*
X63018Y93173D01*
G37*
G36*
X62974Y93165D02*
X62745Y93286D01*
X65251Y100031D01*
X73601Y108597D01*
X73811Y108422D01*
X62974Y93165D01*
G37*
G36*
X52516Y92077D02*
X39662Y114698D01*
X39908Y114847D01*
X53775Y93336D01*
X52516Y92077D01*
G37*
G36*
X63995Y92080D02*
X62736Y93340D01*
X73574Y108597D01*
X73811Y108442D01*
X63995Y92080D01*
G37*
G36*
X64436Y85056D02*
X64202Y85095D01*
X63816Y92355D01*
X73555Y108589D01*
X73799Y108468D01*
X64436Y85056D01*
G37*
G36*
X65761Y85073D02*
X64125Y85073D01*
X73528Y108585D01*
X73798Y108484D01*
X65761Y85073D01*
G37*
G36*
X63818Y84870D02*
X63818Y92462D01*
X64106Y92469D01*
X64496Y85120D01*
X63818Y84870D01*
G37*
G36*
X67022Y84560D02*
X65469Y85132D01*
X73519Y108580D01*
X73793Y108494D01*
X67022Y84560D01*
G37*
G36*
X67836Y83633D02*
X66758Y84711D01*
X73509Y108575D01*
X73788Y108503D01*
X68003Y83681D01*
X67836Y83633D01*
G37*
G36*
X68246Y82375D02*
X67725Y83789D01*
X73501Y108571D01*
X73785Y108509D01*
X68468Y82392D01*
X68246Y82375D01*
G37*
G36*
X68465Y81058D02*
X68198Y81084D01*
X68198Y82546D01*
X73496Y108569D01*
X73785Y108512D01*
X68465Y81058D01*
G37*
G36*
X67475Y77609D02*
X67214Y77640D01*
X67214Y79494D01*
X67853Y80134D01*
X68048Y80025D01*
X67475Y77609D01*
G37*
G36*
X67464Y77592D02*
X67185Y77665D01*
X67737Y79993D01*
X68257Y81402D01*
X68527Y81314D01*
X67464Y77592D01*
G37*
G36*
X39939Y67682D02*
X39714Y67737D01*
X39714Y114760D01*
X39934Y114818D01*
X52717Y92321D01*
X39939Y67682D01*
G37*
G36*
X40395Y67111D02*
X39681Y67825D01*
X52485Y92515D01*
X52745Y92384D01*
X40395Y67111D01*
G37*
G36*
X48603Y67214D02*
X40116Y67214D01*
X52472Y92497D01*
X52715Y92420D01*
X48603Y67214D01*
G37*
G36*
X52696Y67076D02*
X48305Y67220D01*
X52425Y92476D01*
X52696Y92454D01*
X52696Y67076D01*
G37*
G36*
X53662Y66022D02*
X48314Y67248D01*
X48349Y67514D01*
X52612Y67374D01*
X53770Y66216D01*
X53662Y66022D01*
G37*
G36*
X52946Y62685D02*
X48295Y67336D01*
X48403Y67530D01*
X53757Y66303D01*
X53116Y62739D01*
X52946Y62685D01*
G37*
G36*
X52958Y62685D02*
X52826Y62795D01*
X53463Y66338D01*
X62136Y66338D01*
X62179Y66095D01*
X52958Y62685D01*
G37*
G36*
X48294Y60700D02*
X45373Y62573D01*
X45436Y62785D01*
X46582Y62785D01*
X48460Y60907D01*
X48294Y60700D01*
G37*
G36*
X38950Y57831D02*
X35118Y58126D01*
X35129Y58410D01*
X38950Y58410D01*
X38950Y57831D01*
G37*
G36*
X45585Y57816D02*
X45399Y57890D01*
X45399Y62725D01*
X45552Y62809D01*
X48491Y60925D01*
X45585Y57816D01*
G37*
G36*
X54773Y57234D02*
X54601Y57268D01*
X52803Y62943D01*
X62067Y66368D01*
X62198Y66183D01*
X54773Y57234D01*
G37*
G36*
X61318Y57249D02*
X54622Y57249D01*
X54542Y57418D01*
X61968Y66369D01*
X62170Y66285D01*
X61318Y57249D01*
G37*
G36*
X32839Y56999D02*
X32839Y60645D01*
X33021Y60721D01*
X35526Y58216D01*
X32839Y56999D01*
G37*
G36*
X32880Y57065D02*
X32810Y57310D01*
X35245Y58412D01*
X38947Y58128D01*
X38954Y57862D01*
X32880Y57065D01*
G37*
G36*
X39935Y56801D02*
X32845Y57086D01*
X32833Y57357D01*
X38856Y58147D01*
X40016Y56986D01*
X39935Y56801D01*
G37*
G36*
X39693Y56643D02*
X39693Y57100D01*
X44654Y57100D01*
X44658Y56810D01*
X39693Y56643D01*
G37*
G36*
X39988Y56639D02*
X32832Y57090D01*
X32847Y57381D01*
X39988Y57095D01*
X39988Y56639D01*
G37*
G36*
X44656Y56649D02*
X39695Y56649D01*
X39691Y56939D01*
X44656Y57106D01*
X44656Y56649D01*
G37*
G36*
X44553Y56622D02*
X44361Y56694D01*
X44361Y57014D01*
X45543Y58196D01*
X45751Y58001D01*
X44553Y56622D01*
G37*
G36*
X44519Y56589D02*
X44301Y56783D01*
X45436Y58090D01*
X48255Y61104D01*
X48470Y60905D01*
X44519Y56589D01*
G37*
G36*
X61978Y56393D02*
X61030Y57341D01*
X61879Y66345D01*
X62160Y66331D01*
X62160Y56469D01*
X61978Y56393D01*
G37*
G36*
X53716Y56188D02*
X53541Y56250D01*
X52826Y62970D01*
X53087Y63025D01*
X54884Y57355D01*
X53716Y56188D01*
G37*
G36*
X1254Y56064D02*
X1053Y56196D01*
X1741Y57933D01*
X2751Y57561D01*
X1254Y56064D01*
G37*
G36*
X1328Y56087D02*
X1090Y56129D01*
X1030Y58486D01*
X1214Y58565D01*
X1998Y57781D01*
X1328Y56087D01*
G37*
G36*
X38848Y55595D02*
X32820Y57118D01*
X32862Y57384D01*
X39945Y56938D01*
X40012Y56759D01*
X38848Y55595D01*
G37*
G36*
X45583Y55513D02*
X44304Y56792D01*
X48241Y61092D01*
X48454Y60942D01*
X45583Y55513D01*
G37*
G36*
X34671Y55335D02*
X32803Y57203D01*
X32914Y57399D01*
X38961Y55871D01*
X38938Y55619D01*
X34671Y55335D01*
G37*
G36*
X38950Y55339D02*
X34585Y55339D01*
X34576Y55625D01*
X38950Y55916D01*
X38950Y55339D01*
G37*
G36*
X32818Y50574D02*
X29055Y52435D01*
X29055Y54430D01*
X29237Y54505D01*
X32964Y50778D01*
X32818Y50574D01*
G37*
G36*
X38950Y50336D02*
X32620Y50621D01*
X32627Y50910D01*
X38950Y50910D01*
X38950Y50336D01*
G37*
G36*
X45656Y50328D02*
X45399Y50361D01*
X45399Y55795D01*
X48193Y61081D01*
X48438Y60986D01*
X45656Y50328D01*
G37*
G36*
X53538Y49739D02*
X52832Y62989D01*
X53118Y63012D01*
X53825Y56366D01*
X53825Y49747D01*
X53538Y49739D01*
G37*
G36*
X39921Y49288D02*
X32609Y50642D01*
X32640Y50916D01*
X38867Y50636D01*
X40022Y49480D01*
X39921Y49288D01*
G37*
G36*
X1088Y48598D02*
X1032Y58535D01*
X1325Y58540D01*
X1382Y56255D01*
X1382Y48598D01*
X1088Y48598D01*
G37*
G36*
X66881Y47213D02*
X66589Y47216D01*
X66589Y77207D01*
X67328Y77946D01*
X67511Y77868D01*
X66881Y47213D01*
G37*
G36*
X66877Y47209D02*
X66586Y47219D01*
X67214Y77793D01*
X68240Y81385D01*
X68500Y81342D01*
X66877Y47209D01*
G37*
G36*
X66867Y47203D02*
X66582Y47226D01*
X68199Y81236D01*
X73494Y108563D01*
X73774Y108521D01*
X66867Y47203D01*
G37*
G36*
X66865Y47198D02*
X66574Y47232D01*
X73466Y108417D01*
X76051Y122854D01*
X76335Y122810D01*
X66865Y47198D01*
G37*
G36*
X72994Y47214D02*
X66569Y47214D01*
X76042Y122845D01*
X76324Y122821D01*
X72994Y47214D01*
G37*
G36*
X72994Y47208D02*
X72699Y47221D01*
X76023Y122693D01*
X76170Y125195D01*
X76463Y125180D01*
X72994Y47208D01*
G37*
G36*
X47927Y46624D02*
X45387Y50464D01*
X48153Y61060D01*
X48412Y61024D01*
X48136Y46685D01*
X47927Y46624D01*
G37*
G36*
X48000Y46603D02*
X44285Y49438D01*
X45570Y50723D01*
X48183Y46774D01*
X48000Y46603D01*
G37*
G36*
X48063Y46617D02*
X39675Y49352D01*
X39715Y49600D01*
X44558Y49600D01*
X48179Y46838D01*
X48063Y46617D01*
G37*
G36*
X48092Y46617D02*
X32596Y50655D01*
X32658Y50933D01*
X39877Y49596D01*
X48173Y46892D01*
X48092Y46617D01*
G37*
G36*
X48410Y46649D02*
X47840Y46649D01*
X48118Y61045D01*
X48410Y61042D01*
X48410Y46649D01*
G37*
G36*
X53102Y46635D02*
X52839Y46664D01*
X52839Y62997D01*
X53126Y63004D01*
X53826Y49878D01*
X53102Y46635D01*
G37*
G36*
X53025Y46612D02*
X52817Y46715D01*
X53553Y50008D01*
X53721Y50057D01*
X54916Y48861D01*
X53025Y46612D01*
G37*
G36*
X52918Y46627D02*
X52805Y46809D01*
X54647Y49000D01*
X61314Y49000D01*
X61346Y48741D01*
X52918Y46627D01*
G37*
G36*
X53277Y46649D02*
X52856Y46649D01*
X52824Y46908D01*
X61290Y49032D01*
X61363Y48747D01*
X53277Y46649D01*
G37*
G36*
X46991Y45588D02*
X32588Y50670D01*
X32671Y50941D01*
X48111Y46917D01*
X48156Y46752D01*
X46991Y45588D01*
G37*
G36*
X54264Y45582D02*
X53093Y46752D01*
X53138Y46918D01*
X61278Y49030D01*
X61368Y48774D01*
X54264Y45582D01*
G37*
G36*
X61898Y45109D02*
X61021Y48899D01*
X61978Y49856D01*
X62160Y49780D01*
X62160Y45139D01*
X61898Y45109D01*
G37*
G36*
X62201Y45111D02*
X54172Y45618D01*
X54130Y45846D01*
X61287Y49061D01*
X62201Y45111D01*
G37*
G36*
X75452Y44554D02*
X72703Y47303D01*
X76167Y125191D01*
X76458Y125183D01*
X75633Y44628D01*
X75452Y44554D01*
G37*
G36*
X3120Y44391D02*
X1048Y48795D01*
X1251Y48938D01*
X3351Y46838D01*
X3351Y44443D01*
X3120Y44391D01*
G37*
G36*
X21180Y44356D02*
X21028Y44561D01*
X29173Y52706D01*
X32917Y50855D01*
X32920Y50675D01*
X21180Y44356D01*
G37*
G36*
X21112Y44394D02*
X21049Y44621D01*
X32759Y50923D01*
X47117Y45857D01*
X47081Y45617D01*
X21112Y44394D01*
G37*
G36*
X11920Y43365D02*
X11830Y43554D01*
X12970Y44694D01*
X21362Y44694D01*
X21378Y44415D01*
X11920Y43365D01*
G37*
G36*
X11873Y43367D02*
X11848Y43654D01*
X21211Y44694D01*
X47092Y45913D01*
X47108Y45620D01*
X11873Y43367D01*
G37*
G36*
X64714Y42463D02*
X54128Y45655D01*
X54174Y45914D01*
X62077Y45415D01*
X64832Y42660D01*
X64714Y42463D01*
G37*
G36*
X70910Y42289D02*
X64496Y42494D01*
X64501Y42785D01*
X70910Y42785D01*
X70910Y42289D01*
G37*
G36*
X75633Y42293D02*
X75339Y42294D01*
X75339Y44729D01*
X76162Y125189D01*
X76458Y125186D01*
X75633Y42293D01*
G37*
G36*
X70298Y41768D02*
X64488Y42509D01*
X64510Y42789D01*
X70864Y42585D01*
X70935Y42405D01*
X70298Y41768D01*
G37*
G36*
X75969Y41750D02*
X75338Y42380D01*
X76162Y125188D01*
X76457Y125186D01*
X76151Y41825D01*
X75969Y41750D01*
G37*
G36*
X76213Y40930D02*
X75856Y41898D01*
X76161Y125188D01*
X76456Y125187D01*
X76456Y40973D01*
X76213Y40930D01*
G37*
G36*
X47100Y40932D02*
X11860Y43385D01*
X11861Y43662D01*
X47100Y45916D01*
X47100Y40932D01*
G37*
G36*
X47091Y40935D02*
X4089Y43384D01*
X4098Y43671D01*
X12013Y43671D01*
X47109Y41228D01*
X47091Y40935D01*
G37*
G36*
X54149Y40919D02*
X54149Y45957D01*
X64802Y42745D01*
X64785Y42509D01*
X54149Y40919D01*
G37*
G36*
X54163Y40936D02*
X54135Y41216D01*
X64644Y42786D01*
X70398Y42053D01*
X70388Y41783D01*
X54163Y40936D01*
G37*
G36*
X69880Y40505D02*
X54150Y40947D01*
X54147Y41231D01*
X70461Y42083D01*
X69880Y40505D01*
G37*
G36*
X48082Y39898D02*
X4084Y43387D01*
X4104Y43679D01*
X47017Y41235D01*
X48168Y40084D01*
X48082Y39898D01*
G37*
G36*
X53163Y39902D02*
X53083Y40086D01*
X54237Y41240D01*
X69925Y40800D01*
X69926Y40514D01*
X53163Y39902D01*
G37*
G36*
X69926Y39189D02*
X53110Y39911D01*
X53111Y40195D01*
X69926Y40809D01*
X69926Y39189D01*
G37*
G36*
X69920Y39191D02*
X47841Y39910D01*
X47845Y40200D01*
X53262Y40200D01*
X69931Y39484D01*
X69920Y39191D01*
G37*
G36*
X70464Y37908D02*
X47835Y39919D01*
X47852Y40205D01*
X69882Y39487D01*
X70464Y37908D01*
G37*
G36*
X70380Y37916D02*
X4082Y43388D01*
X4106Y43682D01*
X48003Y40200D01*
X70405Y38209D01*
X70380Y37916D01*
G37*
G36*
X71290Y36963D02*
X4081Y43390D01*
X4107Y43682D01*
X70311Y38218D01*
X71378Y37151D01*
X71290Y36963D01*
G37*
G36*
X72583Y36493D02*
X4080Y43391D01*
X4109Y43684D01*
X71233Y37265D01*
X72641Y36747D01*
X72583Y36493D01*
G37*
G36*
X65261Y32224D02*
X65131Y32487D01*
X73722Y36789D01*
X75130Y37307D01*
X75240Y37048D01*
X65261Y32224D01*
G37*
G36*
X65267Y32225D02*
X65131Y32475D01*
X72428Y36801D01*
X73898Y36801D01*
X73952Y36573D01*
X65267Y32225D01*
G37*
G36*
X65357Y32266D02*
X4075Y43403D01*
X4115Y43684D01*
X72589Y36789D01*
X72635Y36581D01*
X65357Y32266D01*
G37*
G36*
X74807Y32273D02*
X65211Y32273D01*
X65158Y32502D01*
X75062Y37290D01*
X75203Y37194D01*
X74807Y32273D01*
G37*
G36*
X74783Y32254D02*
X74512Y32296D01*
X74906Y37186D01*
X75978Y38258D01*
X76173Y38150D01*
X74783Y32254D01*
G37*
G36*
X74778Y32243D02*
X74493Y32312D01*
X75862Y38118D01*
X76218Y39084D01*
X76486Y39002D01*
X74778Y32243D01*
G37*
G36*
X16522Y32184D02*
X4059Y43489D01*
X4158Y43688D01*
X65488Y32542D01*
X65464Y32273D01*
X16522Y32184D01*
G37*
G36*
X25921Y32185D02*
X16431Y32185D01*
X16431Y32480D01*
X65476Y32569D01*
X65477Y32273D01*
X25921Y32185D01*
G37*
G36*
X53587Y32185D02*
X25773Y32185D01*
X25773Y32479D01*
X65476Y32569D01*
X65477Y32274D01*
X53587Y32185D01*
G37*
G36*
X62931Y32185D02*
X53439Y32185D01*
X53438Y32479D01*
X65473Y32569D01*
X65479Y32279D01*
X62931Y32185D01*
G37*
G36*
X64308Y31191D02*
X62757Y32272D01*
X62817Y32476D01*
X65424Y32572D01*
X65504Y32388D01*
X64308Y31191D01*
G37*
G36*
X75671Y31212D02*
X74507Y32376D01*
X76199Y39070D01*
X76467Y39026D01*
X75848Y31277D01*
X75671Y31212D01*
G37*
G36*
X15537Y31081D02*
X4037Y43527D01*
X4236Y43727D01*
X16793Y32337D01*
X15537Y31081D01*
G37*
G36*
X15533Y31086D02*
X2996Y44567D01*
X3205Y44768D01*
X4348Y43625D01*
X15749Y31286D01*
X15533Y31086D01*
G37*
G36*
X26899Y31144D02*
X25746Y32298D01*
X25822Y32480D01*
X53731Y32480D01*
X53737Y32190D01*
X26899Y31144D01*
G37*
G36*
X52610Y31147D02*
X26813Y31147D01*
X26808Y31436D01*
X53681Y32484D01*
X53762Y32299D01*
X52610Y31147D01*
G37*
G36*
X63922Y31129D02*
X62728Y32323D01*
X62902Y32531D01*
X64452Y31450D01*
X64420Y31265D01*
X63922Y31129D01*
G37*
G36*
X64149Y23465D02*
X63814Y31406D01*
X64438Y31576D01*
X64438Y23472D01*
X64149Y23465D01*
G37*
G36*
X75850Y23466D02*
X75561Y23471D01*
X75561Y31389D01*
X76173Y39058D01*
X76462Y39041D01*
X75850Y23466D01*
G37*
G36*
X66898Y22273D02*
X65174Y22445D01*
X65188Y22726D01*
X74817Y22726D01*
X74819Y22434D01*
X66898Y22273D01*
G37*
G36*
X73103Y22273D02*
X66757Y22273D01*
X66754Y22565D01*
X74809Y22729D01*
X74826Y22445D01*
X73103Y22273D01*
G37*
G36*
X64311Y19620D02*
X64111Y19748D01*
X65230Y22736D01*
X67011Y22558D01*
X67074Y22382D01*
X64311Y19620D01*
G37*
G36*
X64386Y19641D02*
X64143Y19685D01*
X64143Y23715D01*
X64325Y23790D01*
X65500Y22615D01*
X64386Y19641D01*
G37*
G36*
X64147Y19658D02*
X63814Y31437D01*
X64107Y31447D01*
X64438Y23619D01*
X64438Y19663D01*
X64147Y19658D01*
G37*
G36*
X75688Y19620D02*
X72925Y22382D01*
X72988Y22558D01*
X74769Y22736D01*
X75888Y19748D01*
X75688Y19620D01*
G37*
G36*
X75613Y19641D02*
X74499Y22615D01*
X75674Y23790D01*
X75856Y23715D01*
X75856Y19685D01*
X75613Y19641D01*
G37*
G36*
X75851Y19658D02*
X75561Y19663D01*
X75561Y23619D01*
X76167Y39055D01*
X76461Y39044D01*
X75851Y19658D01*
G37*
G36*
X64146Y15042D02*
X63815Y31438D01*
X64109Y31446D01*
X64438Y19810D01*
X64438Y15045D01*
X64146Y15042D01*
G37*
G36*
X75852Y15041D02*
X75561Y15045D01*
X75561Y19810D01*
X76166Y39054D01*
X76460Y39045D01*
X75852Y15041D01*
G37*
G36*
X15439Y6039D02*
X3026Y44628D01*
X3231Y44748D01*
X15688Y31352D01*
X15688Y6078D01*
X15439Y6039D01*
G37*
G36*
X15448Y6019D02*
X1050Y48831D01*
X1309Y48935D01*
X3341Y44615D01*
X15726Y6110D01*
X15448Y6019D01*
G37*
G36*
X26991Y6031D02*
X26811Y6107D01*
X26811Y31442D01*
X52648Y31442D01*
X52723Y31258D01*
X26991Y6031D01*
G37*
G36*
X52696Y6057D02*
X26859Y6057D01*
X26784Y6241D01*
X52515Y31468D01*
X52696Y31392D01*
X52696Y6057D01*
G37*
G36*
X64108Y6054D02*
X63818Y6060D01*
X63818Y31441D01*
X64111Y31443D01*
X64439Y15190D01*
X64108Y6054D01*
G37*
G36*
X64049Y6033D02*
X63814Y6089D01*
X64147Y15293D01*
X64327Y15364D01*
X67081Y12610D01*
X64049Y6033D01*
G37*
G36*
X64035Y6009D02*
X63771Y6134D01*
X66809Y12726D01*
X67282Y12726D01*
X64035Y6009D01*
G37*
G36*
X67194Y5418D02*
X63750Y6097D01*
X66965Y12748D01*
X67194Y12696D01*
X67194Y5418D01*
G37*
G36*
X63119Y5301D02*
X63038Y5486D01*
X63917Y6365D01*
X67204Y5717D01*
X67184Y5455D01*
X63119Y5301D01*
G37*
G36*
X26110Y5302D02*
X26031Y5486D01*
X26897Y6352D01*
X52694Y6352D01*
X52698Y6061D01*
X26110Y5302D01*
G37*
G36*
X53400Y5305D02*
X26060Y5305D01*
X26056Y5596D01*
X52608Y6354D01*
X53475Y5487D01*
X53400Y5305D01*
G37*
G36*
X66963Y5305D02*
X63069Y5305D01*
X63063Y5594D01*
X67142Y5749D01*
X67222Y5564D01*
X66963Y5305D01*
G37*
G36*
X18251Y2977D02*
X16405Y5143D01*
X16484Y5314D01*
X18444Y5314D01*
X18444Y3048D01*
X18251Y2977D01*
G37*
G36*
X18285Y2944D02*
X15335Y6213D01*
X15543Y6411D01*
X16687Y5267D01*
X18504Y3136D01*
X18285Y2944D01*
G37*
G36*
X73098Y3003D02*
X72805Y3005D01*
X72805Y12726D01*
X73245Y12726D01*
X73098Y3003D01*
G37*
G36*
X73067Y2989D02*
X72803Y3021D01*
X72949Y12640D01*
X75682Y15374D01*
X75877Y15266D01*
X73067Y2989D01*
G37*
G36*
X1328Y1033D02*
X1033Y1033D01*
X1033Y58537D01*
X1327Y58538D01*
X1382Y48746D01*
X1328Y1033D01*
G37*
G36*
X1033Y972D02*
X1087Y48871D01*
X1335Y48911D01*
X15727Y6113D01*
X1033Y972D01*
G37*
G36*
X1066Y1019D02*
X1007Y1276D01*
X15585Y6376D01*
X18467Y3184D01*
X18403Y3015D01*
X1066Y1019D01*
G37*
G36*
X20366Y1033D02*
X1041Y1033D01*
X1025Y1311D01*
X18351Y3306D01*
X20442Y1215D01*
X20366Y1033D01*
G37*
G36*
X76421Y1033D02*
X70883Y1033D01*
X70807Y1215D01*
X72929Y3337D01*
X76481Y1251D01*
X76421Y1033D01*
G37*
G36*
X76309Y1009D02*
X72784Y3079D01*
X75593Y15350D01*
X75850Y15326D01*
X76460Y1099D01*
X76309Y1009D01*
G37*
G36*
X76167Y1030D02*
X75560Y15190D01*
X76165Y39051D01*
X76456Y39048D01*
X76456Y1036D01*
X76167Y1030D01*
G37*
M02*
