%FSLAX35Y35*%
%MOIN*%
%TF.FileFunction,Legend,Top*%
%ADD10C,0.00591*%
%ADD11C,0.00214*%
%ADD12C,0.00384*%
%ADD13C,0.00409*%
%ADD14C,0.00512*%
%ADD15C,0.00650*%
%ADD16C,0.00768*%
%ADD17C,0.01181*%
%ADD18C,0.01575*%
%ADD19C,0.01969*%
%ADD20C,0.02362*%
%ADD21C,0.03150*%
%ADD22C,0.03937*%
%AMR_23*21,1,0.03200,0.03800,0,0,90.000*%
%ADD23R_23*%
%AMR_24*21,1,0.03200,0.03800,0,0,180.000*%
%ADD24R_24*%
%AMR_25*21,1,0.04409,0.06299,0,0,90.000*%
%ADD25R_25*%
%AMR_26*21,1,0.05000,0.05000,0,0,180.000*%
%ADD26R_26*%
%AMR_27*21,1,0.07874,0.09449,0,0,90.000*%
%ADD27R_27*%
%AMR_28*21,1,0.19685,0.19685,0,0,0.000*%
%ADD28R_28*%
%AMOCT_29*4,1,8,0.031496,0.023622,0.015748,0.039370,-0.015748,0.039370,-0.031496,0.023622,-0.031496,-0.023622,-0.015748,-0.039370,0.015748,-0.039370,0.031496,-0.023622,0.031496,0.023622,270.000*%
%ADD29OCT_29*%
%AMOCT_30*4,1,8,0.039370,0.009843,0.029528,0.019685,-0.029528,0.019685,-0.039370,0.009843,-0.039370,-0.009843,-0.029528,-0.019685,0.029528,-0.019685,0.039370,-0.009843,0.039370,0.009843,0.000*%
%ADD30OCT_30*%
%AMOCT_31*4,1,8,0.039370,0.009843,0.029528,0.019685,-0.029528,0.019685,-0.039370,0.009843,-0.039370,-0.009843,-0.029528,-0.019685,0.029528,-0.019685,0.039370,-0.009843,0.039370,0.009843,90.000*%
%ADD31OCT_31*%
%ADD32O,0.02559X0.04173*%
%AMRR_33*21,1,0.02559,0.03661,0,0,180.000*21,1,0.02047,0.04173,0,0,180.000*1,1,0.00512,-0.01024,-0.01831*1,1,0.00512,0.01024,0.01831*1,1,0.00512,-0.01024,0.01831*1,1,0.00512,0.01024,-0.01831*%
%ADD33RR_33*%
%AMRR_34*21,1,0.06299,0.06929,0,0,180.000*21,1,0.05354,0.07874,0,0,180.000*1,1,0.00945,-0.02677,-0.03465*1,1,0.00945,0.02677,0.03465*1,1,0.00945,-0.02677,0.03465*1,1,0.00945,0.02677,-0.03465*%
%ADD34RR_34*%
%AMRR_35*21,1,0.06299,0.06614,0,0,270.000*21,1,0.05039,0.07874,0,0,270.000*1,1,0.01260,0.03307,-0.02520*1,1,0.01260,-0.03307,0.02520*1,1,0.01260,-0.03307,-0.02520*1,1,0.01260,0.03307,0.02520*%
%ADD35RR_35*%
%AMRR_36*21,1,0.23622,0.06457,0,0,90.000*21,1,0.22205,0.07874,0,0,90.000*1,1,0.01417,-0.03228,0.11102*1,1,0.01417,0.03228,-0.11102*1,1,0.01417,0.03228,0.11102*1,1,0.01417,-0.03228,-0.11102*%
%ADD36RR_36*%
G54D10*
X20855Y55602D02*
X20964Y55121D01*
X20975Y55106D01*
X20994Y55103D01*
X21009Y55114D01*
X21012Y55132D01*
X20903Y55613D01*
X20892Y55628D01*
X20873Y55631D01*
X20858Y55620D01*
X20855Y55602D01*
X20552Y55977D02*
X20859Y55592D01*
X20876Y55583D01*
X20894Y55588D01*
X20903Y55604D01*
X20898Y55623D01*
X20591Y56008D01*
X20574Y56017D01*
X20556Y56012D01*
X20547Y55995D01*
X20552Y55977D01*
X20117Y56184D02*
X20561Y55970D01*
X20580Y55969D01*
X20594Y55982D01*
X20595Y56001D01*
X20582Y56015D01*
X20138Y56229D01*
X20119Y56230D01*
X20105Y56217D01*
X20104Y56198D01*
X20117Y56184D01*
X19635Y56182D02*
X20127Y56182D01*
X20145Y56189D01*
X20152Y56206D01*
X20145Y56224D01*
X20127Y56231D01*
X19635Y56231D01*
X19617Y56224D01*
X19610Y56206D01*
X19617Y56189D01*
X19635Y56182D01*
X19201Y55970D02*
X19645Y56184D01*
X19658Y56198D01*
X19657Y56217D01*
X19643Y56230D01*
X19624Y56229D01*
X19180Y56015D01*
X19167Y56001D01*
X19168Y55982D01*
X19183Y55969D01*
X19201Y55970D01*
X18903Y55592D02*
X19210Y55977D01*
X19215Y55995D01*
X19206Y56012D01*
X19188Y56017D01*
X19171Y56008D01*
X18864Y55623D01*
X18859Y55604D01*
X18868Y55588D01*
X18886Y55583D01*
X18903Y55592D01*
X18798Y55121D02*
X18907Y55602D01*
X18904Y55620D01*
X18889Y55631D01*
X18870Y55628D01*
X18859Y55613D01*
X18750Y55132D01*
X18753Y55114D01*
X18768Y55103D01*
X18787Y55106D01*
X18798Y55121D01*
X18823Y52863D02*
X18823Y55127D01*
X18816Y55144D01*
X18798Y55151D01*
X18781Y55144D01*
X18774Y55127D01*
X18774Y52863D01*
X18781Y52846D01*
X18798Y52838D01*
X18816Y52846D01*
X18823Y52863D01*
X18774Y53390D02*
X18823Y53390D01*
X18774Y53941D02*
X18823Y53941D01*
X18774Y54492D02*
X18823Y54492D01*
X18774Y55043D02*
X18823Y55043D01*
X18907Y52388D02*
X18798Y52869D01*
X18787Y52884D01*
X18768Y52887D01*
X18753Y52876D01*
X18750Y52858D01*
X18859Y52377D01*
X18870Y52362D01*
X18889Y52359D01*
X18904Y52370D01*
X18907Y52388D01*
X19210Y52013D02*
X18903Y52398D01*
X18886Y52407D01*
X18868Y52402D01*
X18859Y52385D01*
X18864Y52367D01*
X19171Y51982D01*
X19188Y51973D01*
X19206Y51978D01*
X19215Y51995D01*
X19210Y52013D01*
X19645Y51806D02*
X19201Y52019D01*
X19183Y52021D01*
X19168Y52008D01*
X19167Y51989D01*
X19180Y51975D01*
X19624Y51761D01*
X19643Y51760D01*
X19657Y51773D01*
X19658Y51792D01*
X19645Y51806D01*
X20127Y51808D02*
X19635Y51808D01*
X19617Y51801D01*
X19610Y51784D01*
X19617Y51766D01*
X19635Y51759D01*
X20127Y51759D01*
X20145Y51766D01*
X20152Y51784D01*
X20145Y51801D01*
X20127Y51808D01*
X20561Y52019D02*
X20117Y51806D01*
X20104Y51792D01*
X20105Y51773D01*
X20119Y51760D01*
X20138Y51761D01*
X20582Y51975D01*
X20595Y51989D01*
X20594Y52008D01*
X20580Y52021D01*
X20561Y52019D01*
X20859Y52398D02*
X20552Y52013D01*
X20547Y51995D01*
X20556Y51978D01*
X20574Y51973D01*
X20591Y51982D01*
X20898Y52367D01*
X20903Y52385D01*
X20894Y52402D01*
X20876Y52407D01*
X20859Y52398D01*
X20964Y52869D02*
X20855Y52388D01*
X20858Y52370D01*
X20873Y52359D01*
X20892Y52362D01*
X20903Y52377D01*
X21012Y52858D01*
X21009Y52876D01*
X20994Y52887D01*
X20975Y52884D01*
X20964Y52869D01*
X23013Y56227D02*
X22127Y55341D01*
X22120Y55324D01*
X22127Y55306D01*
X22145Y55299D01*
X22162Y55306D01*
X23048Y56192D01*
X23055Y56209D01*
X23048Y56227D01*
X23031Y56234D01*
X23013Y56227D01*
X22637Y55850D02*
X22706Y55850D01*
X23055Y51780D02*
X23055Y56209D01*
X23048Y56227D01*
X23031Y56234D01*
X23013Y56227D01*
X23006Y56209D01*
X23006Y51780D01*
X23013Y51763D01*
X23031Y51756D01*
X23048Y51763D01*
X23055Y51780D01*
X23006Y52307D02*
X23055Y52307D01*
X23006Y52858D02*
X23055Y52858D01*
X23006Y53409D02*
X23055Y53409D01*
X23006Y53960D02*
X23055Y53960D01*
X23006Y54512D02*
X23055Y54512D01*
X23006Y55063D02*
X23055Y55063D01*
X23006Y55614D02*
X23055Y55614D01*
X23006Y56165D02*
X23055Y56165D01*
X20594Y62477D02*
X20704Y61996D01*
X20714Y61981D01*
X20733Y61978D01*
X20748Y61989D01*
X20751Y62007D01*
X20642Y62488D01*
X20631Y62503D01*
X20612Y62506D01*
X20597Y62495D01*
X20594Y62477D01*
X20291Y62852D02*
X20599Y62467D01*
X20615Y62458D01*
X20633Y62463D01*
X20642Y62479D01*
X20637Y62498D01*
X20330Y62883D01*
X20313Y62892D01*
X20295Y62887D01*
X20286Y62870D01*
X20291Y62852D01*
X19856Y63059D02*
X20300Y62845D01*
X20319Y62844D01*
X20333Y62857D01*
X20334Y62876D01*
X20321Y62890D01*
X19877Y63104D01*
X19858Y63105D01*
X19844Y63092D01*
X19843Y63073D01*
X19856Y63059D01*
X19374Y63057D02*
X19867Y63057D01*
X19884Y63064D01*
X19891Y63081D01*
X19884Y63099D01*
X19867Y63106D01*
X19374Y63106D01*
X19356Y63099D01*
X19349Y63081D01*
X19356Y63064D01*
X19374Y63057D01*
X18941Y62845D02*
X19384Y63059D01*
X19397Y63073D01*
X19396Y63092D01*
X19382Y63105D01*
X19363Y63104D01*
X18919Y62890D01*
X18907Y62876D01*
X18908Y62857D01*
X18922Y62844D01*
X18941Y62845D01*
X18642Y62467D02*
X18949Y62852D01*
X18954Y62870D01*
X18945Y62887D01*
X18927Y62892D01*
X18911Y62883D01*
X18603Y62498D01*
X18598Y62479D01*
X18607Y62463D01*
X18625Y62458D01*
X18642Y62467D01*
X18537Y61996D02*
X18647Y62477D01*
X18643Y62495D01*
X18628Y62506D01*
X18609Y62503D01*
X18599Y62488D01*
X18489Y62007D01*
X18492Y61989D01*
X18507Y61978D01*
X18526Y61981D01*
X18537Y61996D01*
X18562Y59738D02*
X18562Y62002D01*
X18555Y62019D01*
X18538Y62026D01*
X18520Y62019D01*
X18513Y62002D01*
X18513Y59738D01*
X18520Y59721D01*
X18538Y59713D01*
X18555Y59721D01*
X18562Y59738D01*
X18513Y60265D02*
X18562Y60265D01*
X18513Y60816D02*
X18562Y60816D01*
X18513Y61367D02*
X18562Y61367D01*
X18513Y61918D02*
X18562Y61918D01*
X18647Y59263D02*
X18537Y59744D01*
X18526Y59759D01*
X18507Y59762D01*
X18492Y59751D01*
X18489Y59733D01*
X18599Y59252D01*
X18609Y59237D01*
X18628Y59234D01*
X18643Y59245D01*
X18647Y59263D01*
X18949Y58888D02*
X18642Y59273D01*
X18625Y59282D01*
X18607Y59277D01*
X18598Y59260D01*
X18603Y59242D01*
X18911Y58857D01*
X18927Y58848D01*
X18945Y58853D01*
X18954Y58870D01*
X18949Y58888D01*
X19384Y58681D02*
X18941Y58894D01*
X18922Y58896D01*
X18908Y58883D01*
X18907Y58864D01*
X18919Y58850D01*
X19363Y58636D01*
X19382Y58635D01*
X19396Y58648D01*
X19397Y58667D01*
X19384Y58681D01*
X19867Y58683D02*
X19374Y58683D01*
X19356Y58676D01*
X19349Y58659D01*
X19356Y58641D01*
X19374Y58634D01*
X19867Y58634D01*
X19884Y58641D01*
X19891Y58659D01*
X19884Y58676D01*
X19867Y58683D01*
X20300Y58894D02*
X19856Y58681D01*
X19843Y58667D01*
X19844Y58648D01*
X19858Y58635D01*
X19877Y58636D01*
X20321Y58850D01*
X20334Y58864D01*
X20333Y58883D01*
X20319Y58896D01*
X20300Y58894D01*
X20599Y59273D02*
X20291Y58888D01*
X20286Y58870D01*
X20295Y58853D01*
X20313Y58848D01*
X20330Y58857D01*
X20637Y59242D01*
X20642Y59260D01*
X20633Y59277D01*
X20615Y59282D01*
X20599Y59273D01*
X20704Y59744D02*
X20594Y59263D01*
X20597Y59245D01*
X20612Y59234D01*
X20631Y59237D01*
X20642Y59252D01*
X20751Y59733D01*
X20748Y59751D01*
X20733Y59762D01*
X20714Y59759D01*
X20704Y59744D01*
X23513Y62635D02*
X23632Y62192D01*
X23643Y62177D01*
X23662Y62175D01*
X23677Y62186D01*
X23679Y62205D01*
X23561Y62648D01*
X23549Y62663D01*
X23531Y62665D01*
X23516Y62654D01*
X23513Y62635D01*
X23195Y62948D02*
X23520Y62624D01*
X23537Y62617D01*
X23554Y62624D01*
X23562Y62642D01*
X23554Y62659D01*
X23230Y62983D01*
X23213Y62990D01*
X23195Y62983D01*
X23188Y62966D01*
X23195Y62948D01*
X22763Y63061D02*
X23206Y62942D01*
X23225Y62945D01*
X23237Y62959D01*
X23234Y62978D01*
X23219Y62990D01*
X22776Y63108D01*
X22758Y63106D01*
X22746Y63091D01*
X22749Y63072D01*
X22763Y63061D01*
X22333Y62942D02*
X22776Y63061D01*
X22791Y63072D01*
X22794Y63091D01*
X22782Y63106D01*
X22763Y63108D01*
X22321Y62990D01*
X22306Y62978D01*
X22303Y62959D01*
X22315Y62945D01*
X22333Y62942D01*
X22020Y62624D02*
X22344Y62948D01*
X22352Y62966D01*
X22344Y62983D01*
X22327Y62990D01*
X22310Y62983D01*
X21985Y62659D01*
X21978Y62642D01*
X21985Y62624D01*
X22003Y62617D01*
X22020Y62624D01*
X21908Y62192D02*
X22026Y62635D01*
X22024Y62654D01*
X22009Y62665D01*
X21990Y62663D01*
X21979Y62648D01*
X21860Y62205D01*
X21863Y62186D01*
X21878Y62175D01*
X21896Y62177D01*
X21908Y62192D01*
X21906Y58644D02*
X23678Y62188D01*
X23679Y62206D01*
X23667Y62221D01*
X23648Y62222D01*
X23634Y62210D01*
X21862Y58666D01*
X21861Y58648D01*
X21873Y58633D01*
X21892Y58632D01*
X21906Y58644D01*
X22120Y59183D02*
X22175Y59183D01*
X22396Y59734D02*
X22451Y59734D01*
X22672Y60286D02*
X22727Y60286D01*
X22947Y60837D02*
X23002Y60837D01*
X23223Y61388D02*
X23278Y61388D01*
X23498Y61939D02*
X23553Y61939D01*
X23656Y58680D02*
X21884Y58680D01*
X21867Y58673D01*
X21859Y58655D01*
X21867Y58638D01*
X21884Y58631D01*
X23656Y58631D01*
X23673Y58638D01*
X23680Y58655D01*
X23673Y58673D01*
X23656Y58680D01*
X11611Y56680D02*
X11611Y52250D01*
X11618Y52233D01*
X11635Y52226D01*
X11653Y52233D01*
X11660Y52250D01*
X11660Y56680D01*
X11653Y56697D01*
X11635Y56704D01*
X11618Y56697D01*
X11611Y56680D01*
X11611Y52777D02*
X11660Y52777D01*
X11611Y53328D02*
X11660Y53328D01*
X11611Y53879D02*
X11660Y53879D01*
X11611Y54431D02*
X11660Y54431D01*
X11611Y54982D02*
X11660Y54982D01*
X11611Y55533D02*
X11660Y55533D01*
X11611Y56084D02*
X11660Y56084D01*
X11611Y56635D02*
X11660Y56635D01*
X12718Y56704D02*
X11635Y56704D01*
X11618Y56697D01*
X11611Y56680D01*
X11618Y56662D01*
X11635Y56655D01*
X12718Y56655D01*
X12735Y56662D01*
X12743Y56680D01*
X12735Y56697D01*
X12718Y56704D01*
X13193Y54623D02*
X12713Y54514D01*
X12697Y54503D01*
X12694Y54484D01*
X12705Y54469D01*
X12723Y54466D01*
X13204Y54575D01*
X13219Y54586D01*
X13222Y54605D01*
X13212Y54620D01*
X13193Y54623D01*
X13568Y54926D02*
X13183Y54619D01*
X13174Y54602D01*
X13179Y54584D01*
X13196Y54575D01*
X13214Y54580D01*
X13599Y54887D01*
X13608Y54904D01*
X13603Y54922D01*
X13586Y54931D01*
X13568Y54926D01*
X13775Y55361D02*
X13562Y54917D01*
X13560Y54898D01*
X13573Y54884D01*
X13592Y54883D01*
X13606Y54896D01*
X13820Y55340D01*
X13821Y55359D01*
X13808Y55373D01*
X13789Y55374D01*
X13775Y55361D01*
X13773Y55843D02*
X13773Y55351D01*
X13780Y55333D01*
X13798Y55326D01*
X13815Y55333D01*
X13822Y55351D01*
X13822Y55843D01*
X13815Y55861D01*
X13798Y55868D01*
X13780Y55861D01*
X13773Y55843D01*
X13562Y56277D02*
X13775Y55833D01*
X13789Y55820D01*
X13808Y55821D01*
X13821Y55835D01*
X13820Y55854D01*
X13606Y56298D01*
X13592Y56311D01*
X13573Y56309D01*
X13560Y56295D01*
X13562Y56277D01*
X13183Y56575D02*
X13568Y56268D01*
X13586Y56263D01*
X13603Y56272D01*
X13608Y56290D01*
X13599Y56307D01*
X13214Y56614D01*
X13196Y56619D01*
X13179Y56610D01*
X13174Y56592D01*
X13183Y56575D01*
X12713Y56680D02*
X13193Y56571D01*
X13212Y56574D01*
X13222Y56589D01*
X13219Y56608D01*
X13204Y56619D01*
X12723Y56728D01*
X12705Y56725D01*
X12694Y56710D01*
X12697Y56691D01*
X12713Y56680D01*
X11635Y54440D02*
X12718Y54440D01*
X12735Y54448D01*
X12743Y54465D01*
X12735Y54482D01*
X12718Y54490D01*
X11635Y54490D01*
X11618Y54482D01*
X11611Y54465D01*
X11618Y54448D01*
X11635Y54440D01*
X13872Y52262D02*
X12740Y54476D01*
X12726Y54488D01*
X12707Y54487D01*
X12695Y54473D01*
X12696Y54454D01*
X13828Y52239D01*
X13842Y52227D01*
X13861Y52229D01*
X13873Y52243D01*
X13872Y52262D01*
X13553Y52778D02*
X13608Y52778D01*
X13271Y53329D02*
X13326Y53329D01*
X12989Y53881D02*
X13044Y53881D01*
X12707Y54432D02*
X12763Y54432D01*
X15850Y56697D02*
X14964Y55811D01*
X14957Y55794D01*
X14964Y55776D01*
X14982Y55769D01*
X14999Y55776D01*
X15885Y56662D01*
X15892Y56680D01*
X15885Y56697D01*
X15868Y56704D01*
X15850Y56697D01*
X15474Y56320D02*
X15543Y56320D01*
X15892Y52250D02*
X15892Y56680D01*
X15885Y56697D01*
X15868Y56704D01*
X15850Y56697D01*
X15843Y56680D01*
X15843Y52250D01*
X15850Y52233D01*
X15868Y52226D01*
X15885Y52233D01*
X15892Y52250D01*
X15843Y52777D02*
X15892Y52777D01*
X15843Y53328D02*
X15892Y53328D01*
X15843Y53879D02*
X15892Y53879D01*
X15843Y54431D02*
X15892Y54431D01*
X15843Y54982D02*
X15892Y54982D01*
X15843Y55533D02*
X15892Y55533D01*
X15843Y56084D02*
X15892Y56084D01*
X15843Y56635D02*
X15892Y56635D01*
X11350Y63555D02*
X11350Y59125D01*
X11357Y59108D01*
X11375Y59101D01*
X11392Y59108D01*
X11399Y59125D01*
X11399Y63555D01*
X11392Y63572D01*
X11375Y63579D01*
X11357Y63572D01*
X11350Y63555D01*
X11350Y59652D02*
X11399Y59652D01*
X11350Y60203D02*
X11399Y60203D01*
X11350Y60754D02*
X11399Y60754D01*
X11350Y61306D02*
X11399Y61306D01*
X11350Y61857D02*
X11399Y61857D01*
X11350Y62408D02*
X11399Y62408D01*
X11350Y62959D02*
X11399Y62959D01*
X11350Y63510D02*
X11399Y63510D01*
X12457Y63579D02*
X11375Y63579D01*
X11357Y63572D01*
X11350Y63555D01*
X11357Y63537D01*
X11375Y63530D01*
X12457Y63530D01*
X12475Y63537D01*
X12482Y63555D01*
X12475Y63572D01*
X12457Y63579D01*
X12932Y61498D02*
X12452Y61389D01*
X12436Y61378D01*
X12433Y61359D01*
X12444Y61344D01*
X12463Y61341D01*
X12943Y61450D01*
X12958Y61461D01*
X12962Y61480D01*
X12951Y61495D01*
X12932Y61498D01*
X13308Y61801D02*
X12922Y61494D01*
X12913Y61477D01*
X12918Y61459D01*
X12935Y61450D01*
X12953Y61455D01*
X13338Y61762D01*
X13347Y61779D01*
X13342Y61797D01*
X13326Y61806D01*
X13308Y61801D01*
X13515Y62236D02*
X13301Y61792D01*
X13300Y61773D01*
X13312Y61759D01*
X13331Y61758D01*
X13345Y61771D01*
X13559Y62215D01*
X13560Y62234D01*
X13547Y62248D01*
X13529Y62249D01*
X13515Y62236D01*
X13512Y62718D02*
X13512Y62226D01*
X13519Y62208D01*
X13537Y62201D01*
X13554Y62208D01*
X13561Y62226D01*
X13561Y62718D01*
X13554Y62736D01*
X13537Y62743D01*
X13519Y62736D01*
X13512Y62718D01*
X13301Y63152D02*
X13515Y62708D01*
X13529Y62695D01*
X13547Y62696D01*
X13560Y62710D01*
X13559Y62729D01*
X13345Y63173D01*
X13331Y63186D01*
X13312Y63184D01*
X13300Y63170D01*
X13301Y63152D01*
X12922Y63450D02*
X13308Y63143D01*
X13326Y63138D01*
X13342Y63147D01*
X13347Y63165D01*
X13338Y63182D01*
X12953Y63489D01*
X12935Y63494D01*
X12918Y63485D01*
X12913Y63467D01*
X12922Y63450D01*
X12452Y63555D02*
X12932Y63446D01*
X12951Y63449D01*
X12962Y63464D01*
X12958Y63483D01*
X12943Y63494D01*
X12463Y63603D01*
X12444Y63600D01*
X12433Y63585D01*
X12436Y63566D01*
X12452Y63555D01*
X11375Y61315D02*
X12457Y61315D01*
X12475Y61323D01*
X12482Y61340D01*
X12475Y61357D01*
X12457Y61365D01*
X11375Y61365D01*
X11357Y61357D01*
X11350Y61340D01*
X11357Y61323D01*
X11375Y61315D01*
X13611Y59137D02*
X12479Y61351D01*
X12465Y61363D01*
X12446Y61362D01*
X12434Y61348D01*
X12435Y61329D01*
X13567Y59114D01*
X13581Y59102D01*
X13600Y59104D01*
X13612Y59118D01*
X13611Y59137D01*
X13292Y59653D02*
X13347Y59653D01*
X13010Y60204D02*
X13065Y60204D01*
X12728Y60756D02*
X12784Y60756D01*
X12447Y61307D02*
X12502Y61307D01*
X16350Y63105D02*
X16469Y62662D01*
X16480Y62647D01*
X16499Y62645D01*
X16514Y62656D01*
X16516Y62675D01*
X16398Y63118D01*
X16386Y63133D01*
X16368Y63135D01*
X16353Y63124D01*
X16350Y63105D01*
X16032Y63419D02*
X16357Y63094D01*
X16374Y63087D01*
X16391Y63094D01*
X16399Y63112D01*
X16391Y63129D01*
X16067Y63453D01*
X16050Y63461D01*
X16032Y63453D01*
X16025Y63436D01*
X16032Y63419D01*
X15600Y63531D02*
X16043Y63412D01*
X16062Y63415D01*
X16073Y63430D01*
X16071Y63448D01*
X16056Y63460D01*
X15613Y63578D01*
X15594Y63576D01*
X15583Y63561D01*
X15585Y63542D01*
X15600Y63531D01*
X15170Y63412D02*
X15613Y63531D01*
X15628Y63542D01*
X15631Y63561D01*
X15619Y63576D01*
X15600Y63578D01*
X15158Y63460D01*
X15143Y63448D01*
X15140Y63430D01*
X15152Y63415D01*
X15170Y63412D01*
X14857Y63094D02*
X15181Y63419D01*
X15188Y63436D01*
X15181Y63453D01*
X15164Y63461D01*
X15146Y63453D01*
X14822Y63129D01*
X14815Y63112D01*
X14822Y63094D01*
X14840Y63087D01*
X14857Y63094D01*
X14745Y62662D02*
X14863Y63105D01*
X14861Y63124D01*
X14846Y63135D01*
X14827Y63133D01*
X14816Y63118D01*
X14697Y62675D01*
X14700Y62656D01*
X14715Y62645D01*
X14733Y62647D01*
X14745Y62662D01*
X14743Y59114D02*
X16515Y62658D01*
X16516Y62677D01*
X16504Y62691D01*
X16485Y62692D01*
X16471Y62680D01*
X14699Y59136D01*
X14698Y59118D01*
X14710Y59103D01*
X14729Y59102D01*
X14743Y59114D01*
X14957Y59653D02*
X15012Y59653D01*
X15233Y60205D02*
X15288Y60205D01*
X15509Y60756D02*
X15564Y60756D01*
X15784Y61307D02*
X15839Y61307D01*
X16060Y61858D02*
X16115Y61858D01*
X16335Y62409D02*
X16390Y62409D01*
X16493Y59150D02*
X14721Y59150D01*
X14704Y59143D01*
X14696Y59125D01*
X14704Y59108D01*
X14721Y59101D01*
X16493Y59101D01*
X16510Y59108D01*
X16517Y59125D01*
X16510Y59143D01*
X16493Y59150D01*
X71668Y8134D02*
X68125Y8134D01*
X67971Y8071D01*
X67908Y7918D01*
X67971Y7765D01*
X68125Y7701D01*
X71668Y7701D01*
X71821Y7765D01*
X71884Y7918D01*
X71821Y8071D01*
X71668Y8134D01*
X70073Y6107D02*
X70073Y9729D01*
X70010Y9882D01*
X69857Y9945D01*
X69704Y9882D01*
X69640Y9729D01*
X69640Y6107D01*
X69704Y5954D01*
X69857Y5890D01*
X70010Y5954D01*
X70073Y6107D01*
X69640Y6441D02*
X70073Y6441D01*
X69640Y6993D02*
X70073Y6993D01*
X69640Y7544D02*
X70073Y7544D01*
X69640Y8095D02*
X70073Y8095D01*
X69640Y8646D02*
X70073Y8646D01*
X69640Y9197D02*
X70073Y9197D01*
X69648Y9749D02*
X70065Y9749D01*
X71899Y36884D02*
X68750Y36884D01*
X68596Y36821D01*
X68533Y36668D01*
X68596Y36515D01*
X68750Y36451D01*
X71899Y36451D01*
X72052Y36515D01*
X72116Y36668D01*
X72052Y36821D01*
X71899Y36884D01*
G54D13*
X46038Y23005D02*
X47455Y23005D01*
X46731Y23005D02*
X46731Y20171D01*
X48180Y22438D02*
X48747Y23005D01*
X48747Y20171D01*
X32288Y23005D02*
X33705Y23005D01*
X32981Y23005D02*
X32981Y20171D01*
X35563Y22438D02*
X35455Y22772D01*
X35172Y22978D01*
X34821Y22978D01*
X34538Y22772D01*
X34430Y22438D01*
X35563Y22438D02*
X34430Y20171D01*
X35563Y20171D01*
X19163Y23005D02*
X20580Y23005D01*
X19856Y23005D02*
X19856Y20171D01*
X21305Y20738D02*
X21413Y20404D01*
X21696Y20199D01*
X22047Y20199D01*
X22330Y20404D01*
X22438Y20738D01*
X22438Y21147D02*
X22438Y20738D01*
X22438Y21147D02*
X22363Y21431D01*
X22155Y21638D01*
X21872Y21714D01*
X21714Y21714D02*
X21872Y21714D01*
X21714Y21714D01*
X21872Y21714D02*
X22161Y21800D01*
X22368Y22019D01*
X22438Y22312D01*
X22438Y22438D02*
X22438Y22312D01*
X22438Y22438D02*
X22330Y22772D01*
X22047Y22978D01*
X21696Y22978D01*
X21413Y22772D01*
X21305Y22438D01*
G54D15*
X3937Y144749D02*
X3937Y149473D01*
X3937Y147111D02*
X8267Y147111D01*
X8267Y149473D02*
X8267Y144749D01*
X3937Y149473D02*
X6102Y151835D01*
X8267Y149473D01*
X9566Y151835D02*
X9566Y144749D01*
X9566Y147111D02*
X12814Y150654D01*
X11190Y148882D02*
X13897Y144749D01*
X15196Y151835D02*
X15196Y145930D01*
X16279Y144749D01*
X19527Y144749D01*
X15196Y148882D02*
X17362Y148882D01*
X20826Y148882D02*
X20826Y145930D01*
X21909Y144749D01*
X24074Y144749D01*
X25157Y145930D01*
X25157Y148882D02*
X25157Y144749D01*
X30787Y145339D02*
X29704Y144749D01*
X27539Y144749D01*
X26456Y145930D01*
X26456Y147701D01*
X27539Y148882D01*
X29704Y148882D01*
X30787Y148292D01*
X30787Y147701D01*
X29704Y147111D01*
X26456Y147111D01*
X32086Y144749D02*
X36417Y144749D01*
X33169Y151835D02*
X34251Y151835D01*
X34251Y144749D01*
X37716Y144749D02*
X42047Y144749D01*
X38799Y151835D02*
X39881Y151835D01*
X39881Y144749D01*
X47677Y145339D02*
X46594Y144749D01*
X44429Y144749D01*
X43346Y145930D01*
X43346Y147701D01*
X44429Y148882D01*
X46594Y148882D01*
X47677Y148292D01*
X47677Y147701D01*
X46594Y147111D01*
X43346Y147111D01*
X48976Y144749D02*
X52765Y144749D01*
X53307Y145930D01*
X52765Y147111D01*
X49517Y147111D01*
X48976Y148292D01*
X49517Y148882D01*
X53307Y148882D01*
X60236Y151835D02*
X60236Y144749D01*
X60236Y148292D02*
X62942Y148292D01*
X64025Y148882D01*
X64566Y150063D01*
X64025Y151245D01*
X62942Y151835D01*
X60236Y151835D01*
X65866Y148882D02*
X65866Y144749D01*
X65866Y147111D02*
X67490Y148882D01*
X70196Y148882D01*
X71496Y147701D02*
X71496Y145930D01*
X71496Y147701D02*
X72578Y148882D01*
X74744Y148882D01*
X75826Y147701D01*
X75826Y145930D01*
X74744Y144749D01*
X72578Y144749D01*
X71496Y145930D01*
X77125Y142386D02*
X80374Y142386D01*
X81456Y143567D01*
X81456Y148882D01*
X79832Y148882D01*
X81456Y151835D02*
X81456Y151245D01*
X87086Y145339D02*
X86003Y144749D01*
X83838Y144749D01*
X82755Y145930D01*
X82755Y147701D01*
X83838Y148882D01*
X86003Y148882D01*
X87086Y148292D01*
X87086Y147701D01*
X86003Y147111D01*
X82755Y147111D01*
X88385Y151835D02*
X88385Y144749D01*
X88385Y147111D02*
X91633Y150654D01*
X90009Y148882D02*
X92716Y144749D01*
X94015Y151835D02*
X94015Y145930D01*
X95098Y144749D01*
X98346Y144749D01*
X94015Y148882D02*
X96181Y148882D01*
X105275Y148882D02*
X107440Y144749D01*
X109606Y148882D01*
X110905Y147701D02*
X110905Y145930D01*
X110905Y147701D02*
X111988Y148882D01*
X114153Y148882D01*
X115236Y147701D01*
X115236Y145930D01*
X114153Y144749D01*
X111988Y144749D01*
X110905Y145930D01*
X116535Y144749D02*
X116535Y148882D01*
X116535Y147701D02*
X117618Y148882D01*
X119783Y148882D01*
X120866Y147701D01*
X120866Y144749D01*
X127795Y151835D02*
X132125Y151835D01*
X129960Y151835D02*
X129960Y144749D01*
X133425Y144749D02*
X133425Y149473D01*
X133425Y147111D02*
X137755Y147111D01*
X137755Y149473D02*
X137755Y144749D01*
X133425Y149473D02*
X135590Y151835D01*
X137755Y149473D01*
X139055Y151835D02*
X139055Y144749D01*
X139055Y148292D02*
X141761Y148292D01*
X142844Y148882D01*
X143385Y150063D01*
X142844Y151245D01*
X141761Y151835D01*
X139055Y151835D01*
X141220Y148292D02*
X143385Y144749D01*
X146309Y151835D02*
X145226Y151245D01*
X144685Y150063D01*
X144685Y146520D01*
X145226Y145339D01*
X146309Y144749D01*
X147391Y144749D01*
X148474Y145339D01*
X149015Y146520D01*
X149015Y148292D01*
X147933Y148292D01*
X146309Y151835D02*
X147391Y151835D01*
X148474Y151245D01*
X150314Y151835D02*
X150314Y144749D01*
X154645Y144749D01*
X150314Y148292D02*
X152480Y148292D01*
X150314Y151835D02*
X154645Y151835D01*
X155944Y151835D02*
X160275Y151835D01*
X158110Y151835D02*
X158110Y144749D01*
X167204Y144749D02*
X167204Y151835D01*
X171535Y144749D01*
X171535Y151835D01*
X175541Y144749D02*
X176624Y145339D01*
X177165Y146520D01*
X175541Y144749D02*
X174458Y144749D01*
X173375Y145339D01*
X172834Y146520D01*
X172834Y150063D01*
X173375Y151245D01*
X174458Y151835D01*
X175541Y151835D01*
X176624Y151245D01*
X177165Y150063D01*
X178464Y148292D02*
X182795Y148292D01*
X184094Y151835D02*
X184094Y144749D01*
X188425Y144749D01*
X184094Y148292D02*
X186259Y148292D01*
X184094Y151835D02*
X188425Y151835D01*
X194055Y151835D02*
X194055Y144749D01*
X190807Y144749D01*
X189724Y145930D01*
X189724Y147701D01*
X190807Y148882D01*
X194055Y148882D01*
X195354Y144749D02*
X199685Y144749D01*
X197519Y144749D02*
X197519Y148882D01*
X197519Y151835D02*
X197519Y151245D01*
X195895Y148882D02*
X197519Y148882D01*
X200984Y151835D02*
X200984Y145930D01*
X202066Y144749D01*
X205314Y144749D01*
X200984Y148882D02*
X203149Y148882D01*
X206614Y144749D02*
X210944Y144749D01*
X208779Y144749D02*
X208779Y148882D01*
X208779Y151835D02*
X208779Y151245D01*
X207155Y148882D02*
X208779Y148882D01*
X212244Y147701D02*
X212244Y145930D01*
X212244Y147701D02*
X213326Y148882D01*
X215492Y148882D01*
X216574Y147701D01*
X216574Y145930D01*
X215492Y144749D01*
X213326Y144749D01*
X212244Y145930D01*
X217874Y144749D02*
X217874Y148882D01*
X217874Y147701D02*
X218956Y148882D01*
X221122Y148882D01*
X222204Y147701D01*
X222204Y144749D01*
X224586Y145339D02*
X224586Y144749D01*
X225127Y144749D01*
X225127Y145339D01*
X224586Y145339D01*
X225127Y148292D02*
X224586Y148292D01*
X224586Y147701D01*
X225127Y147701D01*
X225127Y148292D01*
X234763Y151835D02*
X234763Y144749D01*
X234763Y147111D02*
X239094Y151835D01*
X236387Y148882D02*
X239094Y144749D01*
X240393Y147701D02*
X240393Y145930D01*
X240393Y147701D02*
X241476Y148882D01*
X243641Y148882D01*
X244724Y147701D01*
X244724Y145930D01*
X243641Y144749D01*
X241476Y144749D01*
X240393Y145930D01*
X250354Y144749D02*
X250354Y147701D01*
X249271Y148882D01*
X248188Y144749D02*
X248188Y147701D01*
X246023Y148882D02*
X249271Y148882D01*
X246023Y144749D02*
X246023Y148882D01*
X248188Y147701D02*
X247106Y148882D01*
X255984Y144749D02*
X255984Y147701D01*
X254901Y148882D01*
X253818Y144749D02*
X253818Y147701D01*
X251653Y148882D02*
X254901Y148882D01*
X251653Y144749D02*
X251653Y148882D01*
X253818Y147701D02*
X252736Y148882D01*
X261614Y145339D02*
X260531Y144749D01*
X258366Y144749D01*
X257283Y145930D01*
X257283Y147701D01*
X258366Y148882D01*
X260531Y148882D01*
X261614Y148292D01*
X261614Y147701D01*
X260531Y147111D01*
X257283Y147111D01*
X262913Y148882D02*
X262913Y144749D01*
X262913Y147111D02*
X264537Y148882D01*
X267244Y148882D01*
X268543Y148882D02*
X272874Y148882D01*
X268543Y144749D01*
X272874Y144749D01*
X274173Y144749D02*
X278503Y144749D01*
X276338Y144749D02*
X276338Y148882D01*
X276338Y151835D02*
X276338Y151245D01*
X274714Y148882D02*
X276338Y148882D01*
X284133Y145339D02*
X283051Y144749D01*
X280885Y144749D01*
X279803Y145930D01*
X279803Y147701D01*
X280885Y148882D01*
X283051Y148882D01*
X284133Y148292D01*
X284133Y147701D01*
X283051Y147111D01*
X279803Y147111D01*
X285433Y144749D02*
X289763Y144749D01*
X286515Y151835D02*
X287598Y151835D01*
X287598Y144749D01*
X291062Y144749D02*
X295393Y144749D01*
X292145Y151835D02*
X293228Y151835D01*
X293228Y144749D01*
X301023Y145339D02*
X299940Y144749D01*
X297775Y144749D01*
X296692Y145930D01*
X296692Y147701D01*
X297775Y148882D01*
X299940Y148882D01*
X301023Y148292D01*
X301023Y147701D01*
X299940Y147111D01*
X296692Y147111D01*
X307952Y144749D02*
X307952Y151835D01*
X312283Y144749D01*
X312283Y151835D01*
X313582Y148882D02*
X313582Y145930D01*
X314665Y144749D01*
X316830Y144749D01*
X317913Y145930D01*
X317913Y148882D02*
X317913Y144749D01*
X319212Y151835D02*
X319212Y145930D01*
X320295Y144749D01*
X323543Y144749D01*
X319212Y148882D02*
X321377Y148882D01*
X324842Y148882D02*
X329173Y148882D01*
X324842Y144749D01*
X329173Y144749D01*
X330472Y148882D02*
X330472Y145930D01*
X331555Y144749D01*
X333720Y144749D01*
X334803Y145930D01*
X334803Y148882D02*
X334803Y144749D01*
X336102Y144749D02*
X336102Y148882D01*
X336102Y147701D02*
X337185Y148882D01*
X339350Y148882D01*
X340433Y147701D01*
X340433Y144749D01*
X346062Y145930D02*
X344980Y144749D01*
X342814Y144749D01*
X341732Y145930D01*
X341732Y147701D01*
X342814Y148882D01*
X344980Y148882D01*
X346062Y147701D01*
X346062Y143567D01*
X344980Y142386D01*
X341732Y142386D01*
X352992Y144749D02*
X357322Y144749D01*
X355157Y144749D02*
X355157Y148882D01*
X355157Y151835D02*
X355157Y151245D01*
X353533Y148882D02*
X355157Y148882D01*
X358622Y144749D02*
X362411Y144749D01*
X362952Y145930D01*
X362411Y147111D01*
X359163Y147111D01*
X358622Y148292D01*
X359163Y148882D01*
X362952Y148882D01*
X364251Y151835D02*
X364251Y145930D01*
X365334Y144749D01*
X368582Y144749D01*
X364251Y148882D02*
X366417Y148882D01*
X375511Y144749D02*
X379301Y144749D01*
X379842Y145930D01*
X379301Y147111D01*
X376053Y147111D01*
X375511Y148292D01*
X376053Y148882D01*
X379842Y148882D01*
X381141Y151835D02*
X381141Y145930D01*
X382224Y144749D01*
X385472Y144749D01*
X381141Y148882D02*
X383307Y148882D01*
X386771Y148882D02*
X386771Y144749D01*
X386771Y147111D02*
X388395Y148882D01*
X391102Y148882D01*
X392401Y145930D02*
X393484Y144749D01*
X395649Y144749D01*
X396732Y145930D01*
X392401Y145930D02*
X392401Y147701D01*
X393484Y148882D01*
X395649Y148882D01*
X396732Y147701D01*
X396732Y144749D01*
X398031Y142386D02*
X398031Y150654D01*
X399114Y151835D01*
X402362Y151835D01*
X398031Y147111D02*
X400196Y147111D01*
X403661Y151835D02*
X403661Y144749D01*
X406909Y144749D01*
X407992Y145930D01*
X407992Y147701D01*
X406909Y148882D01*
X403661Y148882D01*
X409291Y145930D02*
X410374Y144749D01*
X412539Y144749D01*
X413622Y145930D01*
X409291Y145930D02*
X409291Y147701D01*
X410374Y148882D01*
X412539Y148882D01*
X413622Y147701D01*
X413622Y144749D01*
X414921Y148882D02*
X414921Y144749D01*
X414921Y147111D02*
X416545Y148882D01*
X419251Y148882D01*
X422716Y144749D02*
X422716Y145339D01*
X423257Y145339D01*
X423257Y144749D01*
X422716Y144749D01*
X422716Y147111D02*
X423257Y147111D01*
X423799Y150654D01*
X423257Y151835D01*
X422716Y151835D01*
X422175Y150654D01*
X422716Y147111D01*
G54D16*
X25659Y95255D02*
X23001Y95255D01*
X23001Y92598D01*
X24832Y92598D01*
X23001Y92598D02*
X23001Y89940D01*
X25659Y89940D01*
X29675Y93956D02*
X29552Y94520D01*
X29206Y94983D01*
X28699Y95259D01*
X28123Y95301D01*
X27582Y95099D01*
X27174Y94691D01*
X26972Y94149D01*
X27013Y93574D01*
X27290Y93067D01*
X27752Y92721D01*
X28316Y92598D01*
X27017Y91240D02*
X27150Y90691D01*
X27498Y90246D01*
X28000Y89987D01*
X28564Y89959D01*
X29089Y90168D01*
X29479Y90576D01*
X29665Y91110D01*
X29612Y91672D01*
X29330Y92162D01*
X28871Y92490D01*
X28316Y92598D01*
X31033Y89940D02*
X31033Y92598D01*
X32332Y92598D01*
X32332Y92627D02*
X32841Y92729D01*
X33272Y93017D01*
X33560Y93448D01*
X33661Y93956D01*
X33560Y94465D01*
X33272Y94896D01*
X32841Y95184D01*
X32332Y95285D01*
X32332Y95255D02*
X31033Y95255D01*
X31033Y92598D01*
X35049Y94192D02*
X36112Y95255D01*
X36112Y89940D01*
X39596Y94192D02*
X39491Y94654D01*
X39196Y95023D01*
X38770Y95229D01*
X38296Y95229D01*
X37870Y95023D01*
X37575Y94654D01*
X37470Y94192D01*
X39596Y94192D02*
X37470Y89940D01*
X39596Y89940D01*
X43612Y95255D02*
X40954Y95255D01*
X40954Y92598D01*
X42785Y92598D01*
X40954Y92598D02*
X40954Y89940D01*
X43612Y89940D01*
X47332Y95255D02*
X44970Y89940D01*
X51348Y95255D02*
X48690Y95255D01*
X48690Y92598D01*
X50521Y92598D01*
X48690Y92598D02*
X48690Y89940D01*
X63011Y45816D02*
X63011Y48474D01*
X61653Y47116D02*
X64370Y47116D01*
G54D17*
X7253Y70255D02*
X70246Y70255D01*
X70246Y164744D01*
X7253Y164744D01*
X7253Y70255D01*
X61750Y49325D02*
X45750Y49325D01*
X45750Y56925D01*
X61750Y56925D01*
X61750Y49325D02*
X61750Y56925D01*
X61750Y56825D02*
X45750Y56825D01*
X45750Y64425D01*
X61750Y64425D01*
X61750Y56825D02*
X61750Y64425D01*
X33675Y49925D02*
X45075Y49925D01*
X45075Y56325D02*
X33675Y56325D01*
X45075Y49925D02*
X45075Y56325D01*
X33675Y49925D02*
X33675Y56325D01*
X33675Y57425D02*
X45075Y57425D01*
X45075Y63825D02*
X33675Y63825D01*
X45075Y57425D02*
X45075Y63825D01*
X33675Y57425D02*
X33675Y63825D01*
X75905Y49360D02*
X75511Y49360D01*
X64094Y49360D02*
X64488Y49360D01*
X75905Y63139D02*
X75511Y63139D01*
X64094Y63139D02*
X64488Y63139D01*
X64094Y49360D02*
X64094Y63139D01*
X75905Y49360D02*
X75905Y63139D01*
X75000Y30000D02*
X75000Y25000D01*
X72500Y22500D01*
X67500Y22500D01*
X65000Y25000D01*
X72500Y32500D02*
X65000Y32500D01*
X75000Y30000D02*
X72500Y32500D01*
X65000Y25000D02*
X65000Y32500D01*
X72500Y22500D02*
X75000Y20000D01*
X75000Y15000D01*
X72500Y12500D01*
X67500Y12500D01*
X65000Y15000D01*
X65000Y20000D01*
X67500Y22500D01*
G54D18*
X51250Y23750D03*
X38125Y23750D03*
X25000Y23750D03*
G54D21*
X46624Y137185D02*
X15127Y137185D01*
X15127Y160807D01*
X23001Y160807D01*
X23001Y141122D01*
X30875Y141122D01*
X30875Y160807D01*
X38750Y160807D01*
X38750Y141122D01*
X46624Y141122D01*
X46624Y160807D01*
X62372Y160807D01*
G36*
X15127Y78129D02*
X15127Y133248D01*
X62372Y133248D01*
X62372Y78129D01*
X15127Y78129D01*
G37*
M02*
